<?xml version="1.0" encoding="UTF-8"?>
<svg version="1.1" viewBox="0 0 584.97 572.72" xmlns="http://www.w3.org/2000/svg">
 <g transform="translate(-178.09 -88.353)">
  <g transform="translate(-585.87 -68.389)">
   <g transform="matrix(.83605 .54866 -.54866 .83605 1410.3 -624.25)" fill="#7e7e7e" stroke="#7e7e7e">
    <g transform="translate(-24.244 51.518)" stroke-width="3.6">
     <path d="m271.42 1172.4 8.5714-8.5714c-34.526 70.934-46 143.52-42.857 217.14l-2.8571-17.143c-3.8206-62.653 3.4019-126.09 37.143-191.43z" color="#000000"/>
     <path d="m222.85 1175.2 11.429-20c-26.778 73.944-34.406 152.14-37.143 231.43l-2.8572-5.7143c3.9631-69.265 4.0232-139.02 28.571-205.71z" color="#000000"/>
    </g>
    <g transform="matrix(.9952 -.097892 .097892 .9952 -122.19 46.931)">
     <g transform="matrix(.14229 -.81202 .81202 .14229 -777.35 1177.8)">
      <path d="m234.28 1155.2c-42.941 52.731-24.304 77.392-27.041 134.46l-2.8572-5.7143c-12.128-64.396-10.895-97.508 29.899-128.74z" color="#000000" fill="#7e7e7e" stroke="#7e7e7e" stroke-width="3.6"/>
     </g>
     <g transform="matrix(.11255 -.64226 .64226 .11255 -558.74 1160.5)">
      <path d="m234.28 1155.2c-42.941 52.731-24.304 77.392-27.041 134.46l-2.8572-5.7143c-12.128-64.396-10.895-97.508 29.899-128.74z" color="#000000" fill="#7e7e7e" stroke="#7e7e7e" stroke-width="3.6"/>
     </g>
    </g>
   </g>
   <path transform="matrix(.85075 0 0 .85075 1172.1 -160.97)" d="m182.86 1018.1c0 15.78-85.705 28.571-191.43 28.571-105.72-0.1-191.43-12.8-191.43-28.6 0-15.78 85.705-28.571 191.43-28.571s191.43 12.792 191.43 28.571z" fill="#7e7e7e"/>
   <g transform="matrix(1.137 0 0 1.0475 841.32 -188.42)">
    <rect x="200.09" y="386.74" width="139.82" height="151.25" color="#000000" fill="#f95"/>
    <rect x="270.97" y="437.62" width="112.34" height="49.481" color="#000000" fill="#f95"/>
    <rect x="177.14" y="426.65" width="40" height="40" color="#000000" fill="#f95"/>
    <rect x="185.6" y="410.34" width="40.208" height="23.066" color="#000000" fill="#520"/>
    <rect x="196.81" y="387.27" width="64.839" height="26.359" color="#000000" fill="#520"/>
    <rect x="308.33" y="476.48" width="40.954" height="18.096" color="#000000" fill="#520"/>
    <rect x="289.54" y="484.09" width="34.286" height="17.143" color="#000000" fill="#520"/>
    <rect x="200" y="329.51" width="140" height="60" color="#000000" fill="#0096ff"/>
    <rect x="171.43" y="369.51" width="200" height="20" color="#000000" fill="#0096ff"/>
    <rect x="177.14" y="523.79" width="194.29" height="137.14" color="#000000" fill="#0096ff"/>
    <rect x="222.81" y="523.74" width="34.383" height="94.383" color="#000000" fill="#f00"/>
    <rect x="227.56" y="556.92" width="24.47" height="29.755" color="#000000" fill="#ff0"/>
    <rect x="222.84" y="609.48" width="108.62" height="51.473" color="#000000" fill="#f00"/>
    <rect x="294.7" y="523.53" width="36.315" height="102.7" color="#000000" fill="#f00"/>
    <rect x="302.12" y="558.18" width="22.641" height="28.356" color="#000000" fill="#ff0"/>
    <rect x="157.52" y="647.03" width="53.527" height="84.956" color="#000000" fill="#0096ff"/>
    <rect x="156.77" y="709.13" width="72.571" height="35.04" color="#000000" fill="#441b00"/>
    <rect x="340.63" y="638.7" width="47.319" height="95.891" color="#000000" fill="#0096ff"/>
    <rect x="339.65" y="709.16" width="64.75" height="29.271" color="#000000" fill="#441b00"/>
    <rect x="108.54" y="563.34" width="42.919" height="49.481" color="#000000" fill="#f95"/>
    <rect x="126.69" y="535.9" width="65.509" height="51.224" color="#000000" fill="#0096ff"/>
    <rect x="403.5" y="490.9" width="42.919" height="49.481" color="#000000" fill="#f95"/>
    <rect x="354.45" y="508.54" width="68.571" height="51.429" color="#000000" fill="#0096ff"/>
    <path transform="matrix(1.6512 0 0 1.6512 -185.08 -273.87)" d="m314.29 425.22c0 7.1008-5.7563 12.857-12.857 12.857-7.1008 0-12.857-5.7563-12.857-12.857 0-7.1008 5.7563-12.857 12.857-12.857 7.1008 0 12.857 5.7563 12.857 12.857z" color="#000000" fill="#fff"/>
    <path transform="translate(18.232 1.9029)" d="m314.29 425.22c0 7.1008-5.7563 12.857-12.857 12.857-7.1008 0-12.857-5.7563-12.857-12.857 0-7.1008 5.7563-12.857 12.857-12.857 7.1008 0 12.857 5.7563 12.857 12.857z" color="#000000" fill="#2b2b2b"/>
    <rect x="276.15" y="496.47" width="34.286" height="17.143" color="#000000" fill="#520"/>
   </g>
  </g>
 </g>
</svg>
