<?xml version="1.0" encoding="utf-8"?>
<!-- Generator: Adobe Illustrator 24.2.0, SVG Export Plug-In . SVG Version: 6.00 Build 0)  -->
<svg version="1.1" xmlns="http://www.w3.org/2000/svg" xmlns:xlink="http://www.w3.org/1999/xlink" x="0px" y="0px"
	 viewBox="0 0 475.2 106.3" style="enable-background:new 0 0 475.2 106.3;" xml:space="preserve">
<style type="text/css">
	.st0{opacity:0.37;fill:#FFFFFF;}
	.st1{fill:#FFFFFF;}
</style>
<g id="Layer_1">
	<path d="M205.6,67.7c-1.4,2.3-7.5-0.9-9.1-3.3c-1.8-2.8-3.3-5.7-5-8.5c-0.2-0.4-0.5-0.7-1.5-1.1c-0.4,2.4-0.9,4.7-1.1,7.1
		c-0.3,3.5-3.1,6.1-6.6,5.4c-1.8-0.3-2.7,0.2-3.8,1.5c-3.9,4.9-9.3,6.9-15.4,7.4c-2.9,0.2-4.8-1.3-5.9-4c-2-4.9-0.7-9,2.7-12.8
		c0.9-1,1.6-2.2,2.4-3.4c-0.1-0.2-0.2-0.4-0.4-0.6c-6.3,1.8-12.6,3.6-18.9,5.5c1.4,3.1,2.9,5.8,3.9,8.7c2.1,5.8,1.5,11.5-1.2,17.1
		c-5.4,11.3-14.7,17-26.7,18.5c-11.7,1.4-23.5,1.4-35.2-0.9c-5.3-1.1-10.6-1.9-15.7-3.4c-3-0.8-4.3-2.8-3.4-5.8
		c0.4-1.2,1-2.5,1.8-3.5c5.7-7.3,12.8-12.9,21.4-16.5c7.2-3,14.3-6.1,21.6-8.9c6.3-2.4,12.8-4.4,19.2-6.6c1.3-0.5,2.6-1,3.9-1.5
		c-3.7-5.3-7-10.4-10.6-15.2c-2.2-3-5.1-5.5-7.5-8.3c-2.1-2.4-3.8-5-5.9-7.4c-1.2-1.3-2.7-2.3-4.1-3.5c-1.2-1-2.3-2.1-3.6-3.1
		c-0.8-0.6-1.9-1.4-2.8-1.3c-14.4,2.3-28.8,4.7-43.3,7.1c-7.2,1.2-14.4,2.2-21.6,3.4c-3.9,0.7-7.8,1.6-11.7,2.6
		c-4.1,1.1-8.2,2.5-12.2,3.9c-2.7,0.9-8.3-0.5-9.1-2.8c-0.5-1.4-0.6-3.5,0.1-4.6c1.4-1.9,3.2-4.6,6-3c3.6,2.1,7.1,1.2,10.6,0.7
		c12.4-2,24.7-4.2,37-6.3c10.7-1.8,21.4-3.6,32.2-5.2c9.2-1.3,18.4-2.2,27.6-3.5c8.5-1.2,17-2.7,25.5-4.2c4.9-0.8,9.7-1.7,14.5-2.9
		c2.8-0.7,5.4-2,8.1-3.1c0.8-0.3,1.6-0.9,2.5-1.2c2.5-0.8,4.7,0.8,5.1,3.6c0.3,1.6-1.9,4-3.7,4.3c-2.3,0.4-4.7,1.1-7,1.6
		c-6.4,1.4-12.8,3-19.2,4c-8.8,1.4-17.6,2.5-26.4,3.7c-0.4,0.1-0.7,0.3-1.1,0.4c1.8,5.8,5.9,9.8,9.3,14.3c3.5,4.5,6.9,9.1,10.3,13.7
		c2.1,2.9,4.1,5.9,6.3,8.6c0.5,0.7,2.1,1.1,3,0.8c4.8-1.3,9.5-2.9,14.3-4.4c2.4-0.8,4.9-1.6,7.3-2.5c0.7-0.2,1.5-0.4,2-0.9
		c3.5-3.6,7.3-3.3,11.6-1.7c2.3,0.8,4.9,0.9,7.3,1c0.8,0,1.8-1,2.6-1.7c0.3-0.2,0.3-0.8,0.6-1.1c3.4-3.7,5.9-4.9,8.8,0.4
		c1.7,3.1,2.7,6.6,3.8,9.9c0.9,2.7,4.5,4.3,5.1,6.1C205.2,62.2,206.6,66.2,205.6,67.7z M141.8,73.9c-0.5-3-2.6-6.5-4.9-10
		c-0.2-0.3-1.1-0.4-1.5-0.3c-1.5,0.4-3,0.8-4.5,1.4c-6.3,2.3-12.6,4.7-18.8,7.1c-8.3,3.2-16.6,6.2-24.7,9.8
		C82,84.2,77.2,87.6,74.2,93c-0.8,1.5-0.8,2.1,1,2.6c2.6,0.7,5.2,1.8,7.9,2.3c5.6,0.9,11.3,2,17,2c7.3,0,14.7-0.5,21.9-2.3
		C133.2,94.8,141.7,87.7,141.8,73.9z M164.7,66.9c0.8,0.4,1.8,1.3,2.5,1.1c5.2-1.6,8.7-5.3,10.9-10.1c0.8-1.8-0.5-3.2-2.2-2.5
		c-4.6,1.7-8.3,4.6-10.4,9.2C165.1,65,165,65.6,164.7,66.9z"/>
	<g>
		<path d="M336.1,75.2c-4.5,3.8-8.8,7.5-11.3,12.8c-1,2.2-2.8,2.8-5.1,2.7c-4.3-0.3-7.2-2.4-9.3-6c-1.8-3.2-3.8-6.3-5.7-9.4
			c-0.2,0-0.5,0.1-0.7,0.1c-0.3,1-0.7,2.1-1,3.1c-1.5,4.7-3,9.5-4.4,14.2c-0.7,2.4-2.6,3.4-4.6,3.9c-0.9,0.2-2.7-0.6-3.1-1.4
			c-1.1-2.2-1.8-4.6-2.3-7c-0.9-5.3-1.5-10.6-2.2-15.9c-0.5-3.8-1-7.5-1.6-12c-1.3,2.5-2.3,4.6-3.4,6.6c-6.8,12.2-15.7,22.6-29,28
			c-7.7,3.1-16,2.4-22.7-4.3c-6.5-6.5-8.8-14.1-8.9-23.1c0-13.6,4.8-25.5,11.7-36.7c2.7-4.4,5.7-8.8,9.2-12.6
			c4.2-4.5,9.3-8,15.2-10.1c2.6-0.9,5.1-2.3,7.8-2.4c2.7-0.1,5.4,1,8,1.9c0.6,0.2,1.5,2,1.2,2.3c-0.9,1-2.4,2.5-3.2,2.3
			c-4.1-1.2-7.6,0.6-11.1,1.8c-10.5,3.6-17.8,11.2-23.1,20.5c-3.2,5.7-5.6,11.8-7.9,18c-2.8,7.6-3.1,15.6-0.9,23.4
			c1.4,5.1,4.7,9.2,9.2,12c4.9,3.1,10,3,15.1,0.4c11.6-6,19.4-15.4,24.6-27.1c2.1-4.7,3.6-9.8,5.2-14.7c0.4-1.3,0.2-2.9-0.1-4.3
			c-0.9-4.6,2.4-8.1,6.9-7c1.9,0.5,2.5,2,2.3,3.9c-0.4,3.5-1.4,7.1-1.1,10.6c0.5,6.3,1.7,12.5,2.6,18.7c0.4,2.9,0.7,5.8,1,8.6
			c0.2,1.4,0.4,2.7,1.1,4.2c0.2-0.4,0.5-0.9,0.6-1.3c1.2-3.9,2.1-8,3.7-11.8c1.6-4,6.7-5.6,10.3-2.2c1.5,1.4,1.6,4.1,2.6,6
			c1.7,2.9,3.6,5.7,5.4,8.5c0.7,1.1,1.7,1.6,2.6,0.6c0.6-0.7,1.3-1.9,1.2-2.7c-0.9-5.2,0-7.1,4.9-8.7c2-0.6,4.1-0.8,6.1-1.3
			c1.6-0.4,3-1.3,4.6-1.8c1.9-0.6,3.9-1.5,5.9-1.6c2.7-0.1,4.5,2.2,4.5,4.9c0,1.9-0.2,3.5-1.4,5.2c-1.1,1.6-1,4.1-1.1,6.2
			c0,0.3,1.4,1,2.2,1.1c0.4,0.1,1-0.5,1.5-0.8c3.1-1.6,6.3-3.1,9.9-2.5c1,0.2,2.7,0.8,2.7,1.4c0.2,1.2-0.1,2.9-1,3.8
			c-1.2,1.2-3,1.7-4.5,2.6c-1.9,1-3.8,2.3-5.8,3.1c-2.5,0.9-5.1,2.1-7.6,2c-5.7-0.1-7.3-4.6-7-9.8C335.1,79.6,335.7,77.4,336.1,75.2
			z"/>
		<path d="M417.6,58.8c3.6-0.6,7-1.5,10.4-1.6c4.9-0.2,6.6,1.7,7.5,6.4c0.6,3.2,1.7,6.2,2.3,9.4c0.4,1.9,0.2,3.9,0.2,5.9
			c0,0.7-0.5,1.5-0.3,2.2c0.7,2.8-1.3,3.5-3.2,4.1c-1.7,0.5-4.2-1.1-4.9-3c-1.6-3.9-1.3-8.1-1.1-12.2c0.1-2.1-0.3-3.9-2.1-4.6
			c-1.2-0.5-3,0.1-4.4,0.4c-1,0.2-2,0.8-3.4,1.4c1.2,2.6,2.5,5,3.3,7.6c0.9,2.6,1.3,5.4,1.9,8.1c0.1,0.4-0.2,1-0.6,1.3
			c-2,1.6-6.9,0.8-8.3-1.4c-1.3-2.1-3.1-3.4-5.3-4.5c-2.4-1.2-4.5-3.1-6.4-5.1c-1.8-1.9-1.9-6-0.2-7.8c0.9-1,2.6-1.3,4-1.8
			c0.9-0.3,2-0.3,2.8-0.8c0.7-0.4,1.5-1.4,1.4-2.1c-0.6-4.6-1.4-9.1-2.7-13.9c-0.3,0.7-0.8,1.3-1,2c-2,5.5-3.9,11-5.8,16.5
			c-1.1,3-2.2,5.9-3.2,8.9c-0.1,0.4,0.5,1.3,1,1.7c2.1,1.8,2.6,3.9,1.5,6.5c-1.1,2.5-2.5,4.5-4.9,6.1c-2.5,1.7-4.6,4-6.5,6.4
			c-1.3,1.8-2.9,1.2-4.2,1c-1.1-0.2-2.5-1.3-2.9-2.3c-0.6-1.6-0.7-3.3,0.8-5c1.9-2.1,3.3-4.7,5-7.1c1-1.5,0.8-2.4-0.9-3.4
			c-3.1-2-6.8-3.5-8.3-7.3c-0.8-2-1.3-4.1-1.6-6.1c-0.4-3.1,2.6-6.2,6.4-7c3-0.6,6-1.6,9-2.4c1.6-0.4,3.4-1.1,5-0.7
			c1.9,0.4,2.1-0.7,2.4-1.7c1.2-3.9,2.2-7.8,3.3-11.7c0.7-2.7,1.1-5.5,2.4-8c0.6-1.1,2.9-2,4.2-1.8c1.4,0.2,3.5,1.5,3.9,2.7
			c1,3.3,1.2,6.8,1.7,10.2c0.6,4,1.1,8,1.6,12.1C417.4,56.9,417.5,57.8,417.6,58.8z M397.1,62.3c-4.3-0.5-7,1.5-9.9,3.1
			c-0.2,0.1-2.3,1.9-2.4,2.4c-0.2,0.6,1.7,1.3,1.7,1.3l1.8,1l4.3,2C392.5,72.2,395.6,65.5,397.1,62.3z"/>
		<path d="M466.3,81.3c1.5-0.4,3-0.8,4.5-1c1-0.1,2.2,0,3.2,0.4c1.6,0.6,1.7,2.1,0.3,3c-4.9,3.1-10,4.4-15.8,2.8
			c-4.7-1.3-9.3-2.6-12.6-6.4c-1.9-2.2-4.3-3.9-5.2-6.5c-0.8-2.3-1.5-4.7-0.8-7.7c0.4-1.7,0.8-3,1.4-4.2c2.4-5.1,5.8-10.6,11.4-11
			c1.7-0.1,3.9,0.7,5,1.8c1.6,1.6,2.6,3.9,1.1,6.3c-2.4,3.9-4,8.4-8.4,10.8c-1.1,0.6-0.5,3.9,0.8,5.3
			C455.2,79.2,460.2,81.3,466.3,81.3z"/>
		<path d="M363.8,80.6c-0.4-3.3-0.8-6.6-1.2-9.9c-0.2-1.6,1.5-4.6,3-5.2c2.1-0.8,4.3,0,5.5,2c2.7,4.7,2,9.7,1.4,14.7
			c-0.4,2.7-3.3,3.9-6,3.4c-2.2-0.4-3.5-2.4-3.4-4.9C363.3,80.7,363.5,80.7,363.8,80.6z"/>
		<path d="M419.1,46c-0.8-2.9,0.5-5.6,2.5-6.2c2.1-0.6,4.1,0.2,5.5,1.9c1.6,1.8,1.8,4.1,1.3,6.3c-0.6,2.5-3.5,3.3-5.7,1.8
			c0,0-2.1-1.4-2.6-2C419.8,47.4,419.1,46,419.1,46z"/>
		<path d="M366.8,59.5c0.1,3-1.6,5.4-3.7,5.5c-2.2,0.1-5.4-3.3-5.3-5.9c0-2.2,1.3-3,3.4-3C364.5,56.1,366.8,57.4,366.8,59.5z"/>
	</g>
	<path d="M391.8,71.9"/>
</g>
<g id="Layer_2">
	
		<rect x="389.2" y="65.7" transform="matrix(0.9084 0.418 -0.418 0.9084 64.5398 -157.4052)" class="st0" width="4.8" height="5.8"/>
	<path class="st1" d="M395,84.4c-0.6,1.1-4.1,1.8-4.1,1.8l3.4-6.3C394.3,79.9,395.6,83.3,395,84.4z"/>
	<path class="st1" d="M407.9,70.7c-0.1-1.2,3.4-4,3.4-4l0.8,7.1C412.1,73.8,408,72,407.9,70.7z"/>
	<path class="st1" d="M447.6,57.4c0.7-1,5.2-0.7,5.2-0.7l-4.2,5.8C448.6,62.6,446.9,58.4,447.6,57.4z"/>
</g>
</svg>
