<svg id="Layer_1" data-name="Layer 1" xmlns="http://www.w3.org/2000/svg" viewBox="0 0 735.23 1507.02"><defs><style>.cls-1{fill:#385282;}.cls-2{fill:#e35b6b;}.cls-3{fill:#fdd79f;}.cls-4{fill:#010101;}.cls-5{fill:#9f630c;}.cls-6{fill:#27385b;}.cls-7{fill:#a55320;}.cls-8{fill:#a35221;}.cls-9{fill:#a6521f;}.cls-10{fill:#fcfbd1;}.cls-11{fill:#9e3e49;}.cls-12{fill:#a13c47;}.cls-13{fill:#060404;}.cls-14{fill:#d0b080;}</style></defs><path class="cls-1" d="M302.56,932c-2.44-3.93-4.87-7.87-7.55-12.2-5.95,15.16-11.79,29.94-17.57,44.74-18.85,48.23-37.21,96.67-56.75,144.63C212,1130.48,201,1150.84,191,1171.6c-14,29-28.73,57.77-41.94,87.18-9.5,21.12-17.05,43.12-25.43,64.75-1.31,3.38-2.43,6.85-3.63,10.28a3.89,3.89,0,0,1-.74.28c-.25,0-.59-.16-.73,0a1.07,1.07,0,0,0-.24.74q0,20,0,40c.1,1.24.21,2.48.31,3.72-.64,6.47-1.25,12.94-2,19.39-.2,1.83-.7,3.62-1.06,5.42-1.87-.87-3,.68-4.24,1.45-12.51,7.54-25.36,14.38-39.26,19-15.81,5.26-31.55,6.78-47.29-.48-3.65-1.68-7.41-3.39-11.5-4-2.36-1.4-1.53-3.58-1.19-5.49,4.09-23,8.64-45.91,13.43-68.77,14.07-67.3,38-131.39,63.36-195,15.05-37.68,30.78-75.09,46.54-112.48,4.38-10.41,5.5-21.77,7.92-32.72,6.92-31.22,14.06-62.39,19.27-94,3.69-22.36,6.87-44.77,7.23-67.51.32-19.78-3.75-38.92-8.18-58-11-47.57-4.35-93.08,15.49-137.14,8.16,2.81,16.29,5.72,24.5,8.37,2,.63,5.11,2.25,6-.91a118.06,118.06,0,0,0,3.72-21.91c.26-3.24-1.64-4.38-4.41-4.6a80.2,80.2,0,0,1-17.53-3.74q1.8-3.45,3.62-6.9c1.53-1.25,3.16-.36,4.58.07,8.43,2.54,16.8,5.25,25.2,7.89,10.32,3.24,20.66,6.42,31,9.71,9,2.88,18.45,3.71,27.69,5.5q23.67,4.6,47.42,8.73c3.83.66,7.7,1.45,11.54,2.15,6.68,1.22,13.26,3.23,20.17,3,2,1.35,5.12,1.75,4.52,5.32-3.17-.37-6.46.23-9.51-.94-4.59-1.76-5-1.43-5.38,3.51-.53,6.73,1,13.62-1.57,20.24-.54,1.38-.07,3.15,1.95,3.15,7.22,0,14.22,3,21.53,1.55,6.1,23.75,12.25,47.48,18.29,71.24,12.69,49.93,24.91,100,38.16,149.77,6.46,24.23,15,47.9,22.28,71.92,30.16,99.42,59.41,199.11,88.71,298.79,1.15,3.92,2.6,7.78,3.37,11.78,2,10.64,7.42,19.32,14.21,27.61,10.92,13.35,21.21,27.22,31.75,40.88.94,1.23,2.41,2.27,1.77,4.18-1.93,0-3.17,1.36-4.58,2.35q-39.9,27.87-79.82,55.69c-2.24,1.56-3.49,3.24-3.52,5.89-1.11-5.43-3.19.71-5.24-1.22-7.78-19.83-15.91-40.59-24-61.34-20.22-51.6-40.58-103.14-60.55-154.83-5.15-13.34-7.4-27.59-10.89-41.44q-13.83-54.74-27.27-109.57a28,28,0,0,0-3-7.24Q340.39,998.44,309.08,944a28.74,28.74,0,0,1-1.23-2.77,21.37,21.37,0,0,1,.39-4.34c2.72-9.09,3.87-18.5,5.78-27.75,5.63-27.33,11-54.71,16.34-82.1.53-2.7,1.64-5.55.66-8.43-4.19,10.64-7.92,21.34-11.66,32C313,868.88,307,887.35,300,905.37c-3.19,8.15-1.8,14.87,2,21.85C302.78,928.79,303.89,930.2,302.56,932Zm34.07-246.84c7.35.26,7.71-.29,8.09-6.56.36-6.07-.79-12.21,1-18.22.5-1.68-.78-2.69-2.27-3.09-8-2.1-16.19-3.33-24.28-5-7.4-1.55-15-2.74-22.36-4.36-9.9-2.18-19.88-4.06-29.78-6.19-7.1-1.52-14.27-3.11-21.5-4.25a90.3,90.3,0,0,1-9.32-1.85c-5.26-1.41-10.5-2.83-16-3.14-2.61-.15-3.36.71-3.76,3.35-.87,5.78-1.43,11.61-3,17.31-.6,2.2-2.24,6.37,1.38,7.07,3.23.63,6.32,1.8,9.58,2.38,5.9,1,11.65,2.82,17.61,3.82,6.56,1.11,12.9,3.47,19.44,4.66,6.9,1.25,13.73,2.82,20.63,4,8.85,1.57,17.62,3.66,26.52,5.13,4.12.68,8.45.69,12.31,1.94C326.53,684,332.43,683.11,336.63,685.16ZM332.4,815.72c-.09-.25-.19-.49-.29-.74-.11.09-.3.18-.3.28a4.4,4.4,0,0,0,.07.8Z"/><path class="cls-2" d="M360.56,655.61c-6.91.21-13.49-1.8-20.17-3-3.84-.7-7.71-1.49-11.54-2.15q-23.76-4.12-47.42-8.73c-9.24-1.79-18.66-2.62-27.69-5.5-10.31-3.29-20.65-6.47-31-9.71-8.4-2.64-16.77-5.35-25.2-7.89-1.42-.43-3-1.32-4.58-.07.36-11.47-3.38-23.3-3.38-23.3l-6.54-22.16-.37-7.26-.72-24.7c0-27.25,2.88-31,3.24-50.46.44-23.49-1.34-46.71-7.26-69.53-1.58-6.1-3.43-12.18-6.55-17.62-8-13.95-9-28.82-6.57-44.19,5.51-34.59,13.71-68.43,28.93-100.23,11.45-23.93,29-41.47,53.81-51.47a11,11,0,0,0,6.21-5.67c2.72-5.5,6.09-10.67,8.75-16.19,1.65-3.42,3.41-4.63,6.73-2.31,15.47,8.83,31.2,17.2,45.88,27.38,14.36,10,26.65,21.42,31.28,39.08-7.14,2.92-14.27,5.87-21.44,8.73-1.69.67-2.25,1.42-.67,2.69,8.95,7.14,17.92,14.26,27.47,21.86.26-7.86-2.61-14.74-1.66-21.86,3.82,9.58,4.53,19.9,7.2,29.79a108.15,108.15,0,0,0-1.44-31.51c-1.11-5.31-3.51-10.36-3.3-15.94,7.68,7.27,15.33,14.57,23.07,21.76,1.73,1.61,2.88,3.22,2.34,5.65q-6.9,7.6-13.81,15.2c-3.09,3.39-2.92,4.21,1.41,5.42,4.76,1.34,9.55,2.58,14.33,3.86.25,1.29.61,2.57.75,3.87.94,9.28,1.8,18.57,2.77,27.85.13,1.25-.65,3.18,1.74,3.3a10.59,10.59,0,0,1-.18,3.05c-1.67,4.69.2,7.24,4.31,9.79,13,8.05,25.69,16.61,38.51,25,6.69,4.36,13.39,8.69,20,13,1.38-1.81-.29-3.9,1.4-5.21a4.35,4.35,0,0,1,1.6,3.47c1.17,21.44-1.41,42.27-10.16,62.08-6.59,14.88-18.95,20.12-34.3,20.47a125.85,125.85,0,0,1-21-1.17c-3.81-.56-4.17.65-3.79,3.81q2.67,22.41,3.31,45c.74,25.82-2.39,51.29-7.51,76.57-4.46,22-9.86,43.87-15.31,65.68C361.79,653.31,361.77,654.75,360.56,655.61ZM241.17,500.92a1.4,1.4,0,0,0,.3-.15s0-.15.05-.23l-.35.37-.89.87a1.6,1.6,0,0,0-1.8,1.71,1.65,1.65,0,0,0-1.82,1.68l-1.11.54c.09.11.24.33.26.31.35-.19.69-.42,1-.64l1.72-1.79c.58-.6,1.16-1.19,1.73-1.79Zm50.89-223.78.86.89c1.42,3.82,5.13,5.49,7.79,8.12,25,24.71,49.8,49.67,73.08,76.07l.36.19-.39-.16c.25-1.57-.54-2.84-1.2-4.13Q361,335.54,349.4,313a12.91,12.91,0,0,0-5-5.37c-11.95-7-23.76-14.25-35.75-21.2-5.13-3-9.82-6.79-15.62-8.53l-.9-.85-.47-.34ZM238.68,384l-.56-.29.3.54c1.32,1.37,2.55,2.82,4,4.08q29.33,26.29,58.67,52.55a14.48,14.48,0,0,0,6.34,3.73q24.25,5.64,48.52,11.23c4.48,1,9,1.93,13.5,2.89-10-5.84-20.21-10.79-30.16-16.27-28.64-15.78-56.6-32.72-84.65-49.5C249.39,389.86,244.73,385.66,238.68,384Zm-4.89,123.45c-1.23-.28-1.87.6-2.58,1.26-10.8,10.06-21.69,20-32.33,30.23-4.09,3.92-8.11,8-10.57,13.31-.5,1.06-1.21,2.44-.18,3.25,1.3,1,2-.62,2.74-1.35,3-3.16,5.91-6.47,8.95-9.62,10.75-11.16,21.55-22.26,32.3-33.42C233,510.17,234.62,509.39,233.79,507.47ZM372.14,459l-.35.09c0,.1,0,.27.09.27a1,1,0,0,0,.34-.07Z"/><path class="cls-3" d="M352.59,243.67c-.21,5.58,2.19,10.63,3.3,15.94a108.15,108.15,0,0,1,1.44,31.51c-2.67-9.89-3.38-20.21-7.2-29.79-1.28-3.79-1.72-7.85-3.7-11.42-4.63-17.66-16.92-29.12-31.28-39.08-14.68-10.18-30.41-18.55-45.88-27.38q1.32-7.09,2.63-14.19c3.89-.63,7.82-1.06,11.65-1.93,5.74-1.31,7.94-4.08,7.83-9.87-.28-14.88.8-29.75,0-44.65-.69-12.66,3.5-19,15.26-23.66,11-4.32,22-3.36,28.21,9.29a32.49,32.49,0,0,0,1.85,3c-9,9.76-17.94,19.6-27.1,29.21-2.09,2.2-1.72,3.21.25,5.06,14.21,13.25,28.31,26.62,42.45,40,2.78,2.62,5.54,5.27,8.3,7.9a8.85,8.85,0,0,0-1.5-4.19c-9.15-15.57-18.47-31.05-26.29-47.36-1.75-3.66-3.05-7.54-4.45-11.36-.34-.92-.57-2.14.32-2.89,1.19-1,2.22,0,3.11.67a44.94,44.94,0,0,1,8.1,8q13.81,16.44,27.66,32.85a53.57,53.57,0,0,0,9.1,8.83c2.85,2.1,4.3.94,4.65-2.16a16.31,16.31,0,0,0-.19-4.35c-1.15-7.05-2.67-14.05-3.47-21.14-.54-4.67-2.63-8-5.85-11.21-6.37-6.4-13.19-12.39-18.76-19.56.87-1.49.47-3.13.49-4.71.17-9-.07-18,.93-27C356,64,363.88,55.65,379.09,52.29c12.47-2.77,18.5,0,25.44,11.74,1.11,6.41,2.86,12.66,3.82,19.16,1.39,9.45,2.34,19,4.45,28.4,2,8.77,5.5,16.8,9.2,24.85,1.52,3.31,3.27,6.53,4.88,9.81,1.46,3,3.63,5.87.81,9.27-.61.73-.09,1.64.38,2.43,7.36,12.21,10.14,26,13.07,39.61,2.18,10.2,4,20.52,4,31.12,0,5.92-1.83,11.46-2.23,17.29a176.27,176.27,0,0,0,.06,28.79c.43,4.49,0,9.06.26,13.58,1.07,18.15,2.49,36.28,3.31,54.44.43,9.6,1.25,19.16,1.89,28.74.11,1.61-.05,3.23.89,4.66-1.7,1.31,0,3.4-1.41,5.21-6.65-4.32-13.35-8.65-20-13-12.82-8.35-25.51-16.91-38.51-25-4.11-2.55-6-5.1-4.31-9.79a10.59,10.59,0,0,0,.18-3.05c.29-2.15.74-4.3.83-6.47.45-10.32,2.07-20.53,3-30.81,1.24-14.22,2.63-28.39,2.38-42.68a6.54,6.54,0,0,0-1.77-4.73c-5.82-6.14-11.63-12.29-17.25-18.6-2.53-2.84-5.3-4.42-9.14-3.76-6-9-12.57-17.56-17.51-27.21l-.36-1.13-.31.23c.2.32.41.63.62.94,1.72,9.75,5.78,18.82,8.16,28.38.88,3.57,2.33,3.78,4.94,1.33a7.86,7.86,0,0,1,4.47-2.54c0,1.66-1.28,2.5-2.23,3.56-2.69,3-5.44,6-8.06,9C350.91,238.49,349.75,241,352.59,243.67ZM307.94,96.31l.38-.39-.43.34-.9.84c-3.34,1-5.65,3.55-8.34,5.5-5.37,3.87-5.33,4-2.94,10.18,2.31,6,4.7,11.92,7.05,17.88a64.14,64.14,0,0,0-1-10.5c-1.05-8.28,1-15.88,5.31-22.94Zm87.69,57.92.07-.11-.17,0c1.38,3.63,2.08,7.55,5,12,.09-2.9,3.73-3.21,2.09-5.32C400.74,158.25,398.7,155.57,395.63,154.23Zm-51.25,38.3-.06.63c.08-.1.21-.19.22-.29S344.44,192.64,344.38,192.53ZM304,132.82l-.06.63c.08-.1.21-.19.22-.29S304,132.93,304,132.82Z"/><path class="cls-4" d="M13.25,1419.31c4.09.58,7.85,2.29,11.5,4,15.74,7.26,31.48,5.74,47.29.48,13.9-4.64,26.75-11.48,39.26-19,1.28-.77,2.37-2.32,4.24-1.45,16.31,15.1,32.74,30.06,51.21,42.55,14.57,9.87,29.86,18.35,47.61,20.93a192.57,192.57,0,0,0,19.68,1.32c9.36.39,13.47,2.82,14.92,9.16a18.2,18.2,0,0,1-9,20.12c-5.37,2.82-11.24,4.07-17.15,4.9a508.41,508.41,0,0,1-89.26,4.38,109.09,109.09,0,0,1-27.64-4.2,49.31,49.31,0,0,1-22.8-14c-2.47-2.72-3.53-2.07-5.55.13-3.57,3.87-7.47,7.42-11.1,11.24a5,5,0,0,1-4.64,1.69c-19.18-2-38.36-4-57.56-5.85-2.11-.21-2.79-.78-3.13-3-2.77-17.86-.42-35.2,5-52.25C8.4,1433.33,10.88,1426.34,13.25,1419.31Z"/><path class="cls-4" d="M502.72,1428.54c0-2.65,1.28-4.33,3.52-5.89q40-27.74,79.82-55.69c1.41-1,2.65-2.34,4.58-2.35,16.19,6.51,32.7,11.65,50.47,10.41,14.24-1,27.64-5.41,41-10,11-3.77,21.78-8.22,33.29-10.37,8.25-1.55,15.71.24,18.13,5.23,3.35,6.9,1.35,13.32-3,19.21a39,39,0,0,1-8.78,8.52c-14.34,10.31-28.66,20.63-43.13,30.75-18.29,12.79-39.12,18.34-61,20.85-10.6,1.21-21.21,2.27-31.88,2.62-2.16.07-2.77.57-2.28,2.77.85,3.84,1.16,7.8,2.18,11.59.59,2.18.08,3.08-1.8,4q-27.79,13.74-55.54,27.61c-1.25.62-2.36,1.63-3.52-.38-8.14-14.1-17-27.84-20.43-44.12A71.94,71.94,0,0,1,502.72,1428.54Z"/><path class="cls-5" d="M404.53,64c-6.94-11.72-13-14.51-25.44-11.74C363.88,55.65,356,64,354.44,77.86c-1,9-.76,18-.93,27.05,0,1.58.38,3.22-.49,4.71-3.47-2-5.9-5.08-8.43-8-2.84-3.24-5.12-4.21-7.9-.26a32.49,32.49,0,0,1-1.85-3c-6.18-12.65-17.21-13.61-28.21-9.29-11.76,4.62-15.95,11-15.26,23.66.81,14.9-.27,29.77,0,44.65.11,5.79-2.09,8.56-7.83,9.87-3.83.87-7.76,1.3-11.65,1.93-10.35-19.83-19.29-40.17-24.91-61.95-7.42-28.78-.12-53.08,21.19-73.35,17.5-16.64,37.55-28.87,61.75-32.7C362.2-3.86,388.34,6.6,407.3,33.57,416.08,46.05,415.32,52.87,404.53,64Z"/><path class="cls-6" d="M302.56,932c1.33-1.8.22-3.21-.63-4.78-3.78-7-5.17-13.7-2-21.85,7.08-18,13-36.49,19.41-54.77,3.74-10.69,7.47-21.39,11.66-32,1,2.88-.13,5.73-.66,8.43C325,854.39,319.65,881.77,314,909.1c-1.91,9.25-3.06,18.66-5.78,27.75a21.37,21.37,0,0,0-.39,4.34A53.05,53.05,0,0,1,302.56,932Z"/><path class="cls-7" d="M189.37,625.44a80.2,80.2,0,0,0,17.53,3.74c2.77.22,4.67,1.36,4.41,4.6a118.06,118.06,0,0,1-3.72,21.91c-.86,3.16-4,1.54-6,.91-8.21-2.65-16.34-5.56-24.5-8.37A68.48,68.48,0,0,1,189.37,625.44Z"/><path class="cls-8" d="M372.1,688.44c-7.31,1.4-14.31-1.54-21.53-1.55-2,0-2.49-1.77-1.95-3.15,2.61-6.62,1-13.51,1.57-20.24.39-4.94.79-5.27,5.38-3.51,3.05,1.17,6.34.57,9.51.94A184.91,184.91,0,0,1,372.1,688.44Z"/><path class="cls-9" d="M336.63,685.16c-4.2-2-10.1-1.19-15.65-3-3.86-1.25-8.19-1.26-12.31-1.94-8.9-1.47-17.67-3.56-26.52-5.13-6.9-1.22-13.73-2.79-20.63-4-6.54-1.19-12.88-3.55-19.44-4.66-6-1-11.71-2.77-17.61-3.82-3.26-.58-6.35-1.75-9.58-2.38-3.62-.7-2-4.87-1.38-7.07,1.55-5.7,2.11-11.53,3-17.31.4-2.64,1.15-3.5,3.76-3.35,5.48.31,10.72,1.73,16,3.14a90.3,90.3,0,0,0,9.32,1.85c7.23,1.14,14.4,2.73,21.5,4.25,9.9,2.13,19.88,4,29.78,6.19,7.37,1.62,15,2.81,22.36,4.36,8.09,1.7,16.28,2.93,24.28,5,1.49.4,2.77,1.41,2.27,3.09-1.81,6-.66,12.15-1,18.22C344.34,684.87,344,685.42,336.63,685.16Z"/><path class="cls-6" d="M119.22,1334.09c-.06,10.81-.09,21.62-.21,32.43,0,2.75.25,5.56-.77,8.24q0-20,0-40a1.07,1.07,0,0,1,.24-.74C118.63,1333.93,119,1334.06,119.22,1334.09Z"/><path class="cls-6" d="M332.4,815.72l-.52.34a4.4,4.4,0,0,1-.07-.8c0-.1.19-.19.3-.28C332.21,815.23,332.31,815.47,332.4,815.72Z"/><path class="cls-10" d="M363.21,223.53c3.84-.66,6.61.92,9.14,3.76,5.62,6.31,11.43,12.46,17.25,18.6a6.54,6.54,0,0,1,1.77,4.73c.25,14.29-1.14,28.46-2.38,42.68-.9,10.28-2.52,20.49-3,30.81-.09,2.17-.54,4.32-.83,6.47-2.39-.12-1.61-2.05-1.74-3.3-1-9.28-1.83-18.57-2.77-27.85-.14-1.3-.5-2.58-.75-3.87q-1-12.24-1.93-24.48c.54-2.43-.61-4-2.34-5.65-7.74-7.19-15.39-14.49-23.07-21.76-2.84-2.65-1.68-5.18.34-7.55,2.62-3.07,5.37-6,8.06-9,.95-1.06,2.26-1.9,2.23-3.56Z"/><path class="cls-11" d="M238.68,384c6,1.64,10.71,5.84,15.92,9,28,16.78,56,33.72,84.65,49.5,9.95,5.48,20.17,10.43,30.16,16.27-4.5-1-9-1.86-13.5-2.89q-24.27-5.58-48.52-11.23a14.48,14.48,0,0,1-6.34-3.73q-29.31-26.29-58.67-52.55c-1.41-1.26-2.64-2.71-4-4.08Z"/><path class="cls-11" d="M373.79,362.22c-23.28-26.4-48.05-51.36-73.08-76.07-2.66-2.63-6.37-4.3-7.79-8.12l.13-.13c5.8,1.74,10.49,5.56,15.62,8.53,12,6.95,23.8,14.19,35.75,21.2a12.91,12.91,0,0,1,5,5.37q11.64,22.53,23.16,45.12c.66,1.29,1.45,2.56,1.2,4.13Z"/><path class="cls-11" d="M346.43,249.91c2,3.57,2.42,7.63,3.7,11.42-.95,7.12,1.92,14,1.66,21.86-9.55-7.6-18.52-14.72-27.47-21.86-1.58-1.27-1-2,.67-2.69C332.16,255.78,339.29,252.83,346.43,249.91Z"/><path class="cls-12" d="M233.79,507.47c.83,1.92-.75,2.7-1.67,3.66-10.75,11.16-21.55,22.26-32.3,33.42-3,3.15-5.92,6.46-8.95,9.62-.71.73-1.44,2.38-2.74,1.35-1-.81-.32-2.19.18-3.25,2.46-5.27,6.48-9.39,10.57-13.31,10.64-10.21,21.53-20.17,32.33-30.23C231.92,508.07,232.56,507.19,233.79,507.47Z"/><path class="cls-11" d="M378,271.08q1,12.24,1.93,24.48c-4.78-1.28-9.57-2.52-14.33-3.86-4.33-1.21-4.5-2-1.41-5.42Q371.11,278.69,378,271.08Z"/><path class="cls-12" d="M238.48,503.49a1.6,1.6,0,0,1,1.8-1.71l0,0-1.74,1.79Z"/><path class="cls-12" d="M236.66,505.16a1.65,1.65,0,0,1,1.82-1.67l.09.1-1.72,1.79Z"/><path class="cls-11" d="M372.14,459l.08.29a1,1,0,0,1-.34.07s-.06-.17-.09-.27Z"/><path class="cls-12" d="M236.85,505.38c-.35.22-.69.45-1,.64,0,0-.17-.2-.26-.31l1.11-.54Z"/><path class="cls-11" d="M292.06,277.15l-.38-.44.47.34Z"/><path class="cls-11" d="M292.15,277.05l.9.85-.13.13-.86-.89Z"/><path class="cls-11" d="M373.76,362.25l.39.16-.36-.19Z"/><path class="cls-11" d="M238.42,384.27l-.3-.54.56.29Z"/><path class="cls-12" d="M241.17,500.91l.35-.37c0,.08,0,.19-.05.23a1.4,1.4,0,0,1-.3.15Z"/><path class="cls-12" d="M240.28,501.78l.89-.87h0l-.86.88Z"/><path class="cls-13" d="M336.69,101.4c2.78-4,5.06-3,7.9.26,2.53,2.88,5,6,8.43,8,5.57,7.17,12.39,13.16,18.76,19.56,3.22,3.24,5.31,6.54,5.85,11.21.8,7.09,2.32,14.09,3.47,21.14a16.31,16.31,0,0,1,.19,4.35c-.35,3.1-1.8,4.26-4.65,2.16a53.57,53.57,0,0,1-9.1-8.83q-13.86-16.41-27.66-32.85a44.94,44.94,0,0,0-8.1-8c-.89-.63-1.92-1.68-3.11-.67-.89.75-.66,2-.32,2.89,1.4,3.82,2.7,7.7,4.45,11.36,7.82,16.31,17.14,31.79,26.29,47.36a8.85,8.85,0,0,1,1.5,4.19c-2.76-2.63-5.52-5.28-8.3-7.9-14.14-13.33-28.24-26.7-42.45-40-2-1.85-2.34-2.86-.25-5.06C318.75,121,327.68,111.16,336.69,101.4Z"/><path class="cls-14" d="M345.7,196.32c4.94,9.65,11.5,18.25,17.51,27.21h0a7.86,7.86,0,0,0-4.47,2.54c-2.61,2.45-4.06,2.24-4.94-1.33-2.38-9.56-6.44-18.63-8.16-28.38Z"/><path class="cls-14" d="M307.11,97.22c-4.28,7.06-6.37,14.66-5.32,22.94a64.14,64.14,0,0,1,1,10.5c-2.35-6-4.74-11.91-7.05-17.88-2.39-6.19-2.43-6.31,2.94-10.18,2.69-1.95,5-4.52,8.34-5.5Z"/><path class="cls-13" d="M395.61,154.21c3.09,1.36,5.13,4,7.05,6.52,1.64,2.11-2,2.42-2.09,5.32-3-4.41-3.66-8.33-5-12Z"/><path class="cls-14" d="M345.65,196.36c-.21-.31-.42-.62-.62-.94l.31-.23.36,1.13Z"/><path class="cls-14" d="M344.38,192.53c.06.11.17.23.16.34s-.14.19-.22.29Z"/><path class="cls-14" d="M304,132.82c.05.11.16.23.15.34s-.14.19-.22.29C303.94,133.24,304,133,304,132.82Z"/><path class="cls-14" d="M307.89,96.26l.43-.34-.38.39Z"/><path class="cls-13" d="M395.53,154.09l.17,0s-.07.11-.08.1Z"/><path class="cls-14" d="M307,97.1l.9-.84.05,0c-.28.3-.56.6-.83.91Z"/></svg>