<svg id="Layer_1" data-name="Layer 1" xmlns="http://www.w3.org/2000/svg" viewBox="0 0 974.44 1825.61"><defs><style>.cls-1{fill:#385282;}.cls-2{fill:#4faeba;}.cls-3{fill:#fdd79f;}.cls-4{fill:#010101;}.cls-5{fill:#9f630c;}.cls-6{fill:#27385b;}.cls-7{fill:#316e72;}.cls-8{fill:#9e3e49;}.cls-9{fill:#060404;}.cls-10{fill:#d0b080;}.cls-11{fill:#0e77c0;}.cls-12{fill:#e6e9eb;}.cls-13{fill:#2296ae;}.cls-14{fill:#eef0f1;}.cls-15{fill:#e0e0e0;}.cls-16{fill:#2e97d1;}.cls-17{fill:#2e95c5;}.cls-18{fill:#2b97ca;}.cls-19{fill:#eceded;}.cls-20{fill:#0781d2;}.cls-21{fill:#e5e6e6;}.cls-22{fill:#2b4d76;}.cls-23{fill:#2a4b70;}</style></defs><path class="cls-1" d="M410.57,1250.6,403,1238.39c-6,15.17-11.79,29.95-17.57,44.74-18.85,48.24-37.21,96.68-56.75,144.63C320,1449.07,309,1469.43,299,1490.2c-14,29-28.73,57.77-42,87.17-9.49,21.13-17,43.13-25.42,64.75-1.31,3.39-2.43,6.85-3.64,10.28a3.24,3.24,0,0,1-.73.28c-.25,0-.59-.16-.73,0a1,1,0,0,0-.24.74v40c.1,1.24.2,2.48.31,3.73-.64,6.46-1.25,12.93-2,19.39-.2,1.82-.7,3.61-1.06,5.42-1.87-.87-3,.67-4.24,1.44-12.51,7.55-25.36,14.38-39.27,19-15.8,5.27-31.54,6.79-47.29-.47-3.64-1.69-7.4-3.4-11.49-4-2.36-1.4-1.53-3.58-1.19-5.5,4.09-23,8.64-45.9,13.43-68.77,14.07-67.3,38-131.39,63.36-195,15-37.69,30.78-75.1,46.53-112.49,4.39-10.4,5.51-21.76,7.93-32.72,6.92-31.21,14.05-62.39,19.27-94,3.69-22.36,6.87-44.77,7.23-67.5.32-19.79-3.75-38.93-8.18-58-11-47.56-4.36-93.08,15.48-137.14,8.17,2.82,16.3,5.73,24.51,8.37,2,.63,5.11,2.25,6-.9a117.9,117.9,0,0,0,3.72-21.92c.25-3.24-1.65-4.38-4.41-4.6A79.83,79.83,0,0,1,297.38,944l3.61-6.9c1.54-1.26,3.17-.37,4.59.06,8.43,2.54,16.8,5.26,25.19,7.89,10.33,3.24,20.67,6.42,31,9.71,9,2.88,18.45,3.71,27.69,5.51q23.67,4.59,47.42,8.72c3.83.66,7.69,1.46,11.53,2.16,6.69,1.21,13.27,3.22,20.18,3,2,1.34,5.12,1.75,4.51,5.31-3.16-.36-6.45.23-9.5-.93-4.59-1.76-5-1.43-5.38,3.5-.53,6.74,1,13.63-1.57,20.24-.54,1.38-.07,3.15,2,3.15,7.22,0,14.22,3,21.53,1.55,6.1,23.75,12.25,47.48,18.29,71.25,12.69,49.93,24.9,100,38.16,149.77,6.46,24.23,15,47.9,22.28,71.91,30.16,99.42,59.41,199.12,88.71,298.79,1.15,3.92,2.6,7.79,3.37,11.78,2,10.64,7.42,19.33,14.21,27.62,10.92,13.35,21.21,27.22,31.75,40.88.94,1.22,2.41,2.26,1.77,4.17-1.93,0-3.17,1.37-4.58,2.35q-39.9,27.87-79.82,55.7c-2.24,1.55-3.49,3.24-3.52,5.89-1.11-5.44-3.19.7-5.24-1.22-7.78-19.84-15.91-40.59-24-61.35-20.22-51.59-40.58-103.13-60.55-154.83-5.15-13.33-7.4-27.59-10.9-41.44q-13.81-54.73-27.27-109.56a27.56,27.56,0,0,0-3-7.25q-31.4-54.43-62.71-108.88a25.3,25.3,0,0,1-1.22-2.77,21.05,21.05,0,0,1,.39-4.34c2.72-9.09,3.87-18.5,5.78-27.75,5.63-27.33,11-54.71,16.34-82.1.52-2.7,1.63-5.55.66-8.43-4.19,10.65-7.92,21.34-11.66,32C421,1187.48,415,1205.94,408,1224c-3.19,8.15-1.8,14.88,2,21.86C410.79,1247.39,411.9,1248.8,410.57,1250.6Zm34.07-246.85c7.35.26,7.71-.29,8.09-6.56.36-6.06-.79-12.21,1-18.22.51-1.68-.77-2.69-2.26-3.08-8-2.1-16.2-3.33-24.28-5-7.4-1.56-15-2.74-22.36-4.37-9.9-2.18-19.88-4.06-29.78-6.18-7.1-1.53-14.27-3.11-21.5-4.25a92,92,0,0,1-9.32-1.86c-5.26-1.41-10.5-2.82-16-3.13-2.6-.15-3.36.71-3.75,3.34-.87,5.78-1.43,11.61-3,17.31-.6,2.21-2.24,6.38,1.38,7.08,3.23.62,6.32,1.8,9.58,2.38,5.9,1,11.65,2.82,17.61,3.82,6.56,1.1,12.9,3.47,19.44,4.65,6.9,1.25,13.73,2.82,20.63,4,8.85,1.57,17.62,3.66,26.52,5.14,4.11.68,8.45.69,12.31,1.94C434.54,1002.56,440.44,1001.71,444.64,1003.75Zm-4.23,130.56-.3-.74c-.1.1-.29.18-.29.28a4.25,4.25,0,0,0,.07.8Z"/><path class="cls-2" d="M468.57,974.21c-6.91.2-13.49-1.81-20.18-3-3.84-.7-7.7-1.5-11.53-2.16q-23.76-4.11-47.42-8.72c-9.24-1.8-18.66-2.63-27.69-5.51-10.31-3.29-20.65-6.47-31-9.71-8.39-2.63-16.76-5.35-25.19-7.89-1.42-.43-3.05-1.32-4.59-.06.37-11.48-3.38-23.3-3.38-23.3l-6.53-22.16-.37-7.27-.72-24.7c0-27.24,2.88-31,3.24-50.46.44-23.48-1.34-46.71-7.26-69.52-1.58-6.11-3.44-12.18-6.55-17.63-8-13.94-9-28.82-6.57-44.19,5.51-34.59,13.7-68.43,28.92-100.23,11.45-23.92,29.05-41.46,53.82-51.47a11,11,0,0,0,6.21-5.67c2.72-5.49,6.09-10.67,8.75-16.19,1.65-3.41,3.41-4.63,6.73-2.31,15.47,8.83,31.2,17.2,45.88,27.38,14.36,10,26.64,21.43,31.28,39.08-7.14,2.92-14.27,5.87-21.44,8.73-1.69.67-2.26,1.42-.67,2.69,8.95,7.15,17.92,14.26,27.47,21.87.25-7.87-2.61-14.75-1.66-21.87,3.82,9.58,4.53,19.9,7.2,29.8a108.22,108.22,0,0,0-1.45-31.52c-1.1-5.31-3.51-10.36-3.29-15.93,7.68,7.26,15.33,14.56,23.07,21.76,1.72,1.6,2.88,3.21,2.34,5.64L472.18,604.9c-3.1,3.38-2.92,4.2,1.41,5.42,4.76,1.33,9.55,2.58,14.33,3.86.25,1.28.61,2.56.74,3.86.95,9.29,1.81,18.58,2.78,27.86.13,1.24-.65,3.17,1.74,3.3a10.8,10.8,0,0,1-.18,3c-1.67,4.69.2,7.25,4.31,9.79,13,8.06,25.69,16.61,38.51,25q10,6.53,20,13c1.38-1.8-.29-3.89,1.4-5.21a4.38,4.38,0,0,1,1.6,3.48c1.17,21.43-1.41,42.27-10.16,62.07-6.59,14.89-19,20.12-34.31,20.47a125,125,0,0,1-21-1.17c-3.82-.55-4.17.66-3.79,3.81q2.67,22.42,3.31,45c.74,25.82-2.39,51.29-7.51,76.57-4.47,22-9.86,43.87-15.31,65.68C469.8,971.91,469.78,973.34,468.57,974.21ZM349.18,819.51a1.4,1.4,0,0,0,.3-.15v-.23l-.35.38-.89.86a1.6,1.6,0,0,0-1.79,1.38,1.22,1.22,0,0,0,0,.33,1.64,1.64,0,0,0-1.81,1.47,1.48,1.48,0,0,0,0,.21l-1.11.54a2.6,2.6,0,0,0,.26.32c.35-.2.69-.42,1-.64l1.73-1.8c.58-.6,1.16-1.19,1.73-1.79Zm50.89-223.77.86.88c1.42,3.83,5.13,5.49,7.79,8.13,25,24.71,49.8,49.67,73.08,76.06l.36.19-.39-.16c.25-1.56-.54-2.84-1.2-4.13Q469,654.15,457.41,631.59a12.86,12.86,0,0,0-5-5.36c-12-7-23.77-14.26-35.75-21.21-5.13-3-9.82-6.78-15.62-8.53l-.9-.84-.47-.35ZM346.69,702.61l-.56-.28.3.54c1.32,1.36,2.55,2.82,4,4.08L409.1,759.5a14.3,14.3,0,0,0,6.33,3.72q24.27,5.64,48.53,11.23c4.48,1,9,1.94,13.5,2.9-10-5.85-20.21-10.8-30.16-16.28-28.64-15.78-56.6-32.71-84.65-49.5C357.4,708.45,352.74,704.26,346.69,702.61ZM341.8,826.07c-1.23-.29-1.87.6-2.58,1.26-10.8,10-21.69,20-32.33,30.23-4.09,3.92-8.11,8-10.58,13.3-.49,1.06-1.2,2.44-.17,3.25,1.3,1,2-.61,2.74-1.35,3-3.15,5.91-6.46,8.94-9.62,10.75-11.15,21.56-22.26,32.31-33.42C341.05,828.77,342.63,828,341.8,826.07Zm138.35-48.45-.35.09c0,.09.05.27.09.27a1,1,0,0,0,.34-.08Z"/><path class="cls-3" d="M460.6,562.27c-.22,5.57,2.19,10.62,3.29,15.93a108.22,108.22,0,0,1,1.45,31.52c-2.67-9.9-3.38-20.22-7.2-29.8-1.28-3.79-1.72-7.85-3.7-11.42-4.64-17.65-16.92-29.12-31.28-39.08-14.68-10.18-30.41-18.55-45.88-27.38q1.32-7.1,2.63-14.19c3.89-.63,7.82-1.05,11.65-1.93,5.74-1.31,7.94-4.08,7.83-9.86-.29-14.89.8-29.76,0-44.66-.69-12.66,3.5-19,15.26-23.65,11-4.32,22-3.36,28.21,9.29a33.12,33.12,0,0,0,1.85,3c-9,9.75-17.94,19.59-27.1,29.21-2.09,2.19-1.72,3.21.25,5.05,14.21,13.26,28.31,26.62,42.45,40q4.15,3.93,8.3,7.9a9,9,0,0,0-1.5-4.2C458,482.43,448.64,467,440.82,450.65c-1.75-3.66-3.05-7.55-4.45-11.37-.34-.92-.57-2.14.32-2.89,1.19-1,2.22,0,3.11.68a44.78,44.78,0,0,1,8.1,8q13.82,16.44,27.66,32.85a53.5,53.5,0,0,0,9.09,8.83c2.86,2.1,4.31.94,4.66-2.15a16.26,16.26,0,0,0-.19-4.35c-1.15-7.05-2.67-14.06-3.48-21.14-.53-4.67-2.62-8-5.84-11.22-6.37-6.4-13.19-12.39-18.76-19.56.87-1.49.46-3.13.49-4.7.17-9-.07-18.05.93-27.06,1.53-13.86,9.44-22.2,24.65-25.57,12.47-2.76,18.5,0,25.44,11.74,1.11,6.42,2.86,12.67,3.82,19.16,1.39,9.46,2.34,19,4.45,28.4,2,8.78,5.5,16.81,9.19,24.85,1.53,3.32,3.28,6.53,4.89,9.81,1.45,3,3.63,5.87.81,9.27-.61.74-.09,1.65.38,2.44,7.36,12.2,10.14,26,13.06,39.61,2.19,10.19,4,20.52,4,31.11,0,5.92-1.83,11.46-2.22,17.3a175,175,0,0,0,.06,28.78c.43,4.49,0,9.06.26,13.58,1.06,18.15,2.49,36.28,3.3,54.44.43,9.6,1.26,19.17,1.9,28.75.11,1.6,0,3.22.88,4.65-1.69,1.32,0,3.41-1.4,5.21q-10-6.48-20-13c-12.82-8.36-25.51-16.91-38.51-25-4.11-2.54-6-5.1-4.31-9.79a10.8,10.8,0,0,0,.18-3c.29-2.16.74-4.31.83-6.48.45-10.32,2.07-20.52,3-30.8,1.24-14.22,2.63-28.4,2.37-42.69a6.52,6.52,0,0,0-1.76-4.73c-5.82-6.13-11.63-12.28-17.25-18.6-2.53-2.84-5.3-4.42-9.14-3.76-6-9-12.57-17.56-17.51-27.21l-.36-1.12a2.18,2.18,0,0,0-.31.22c.2.32.41.63.62.94,1.72,9.75,5.78,18.83,8.16,28.38.88,3.57,2.33,3.79,4.94,1.33a7.81,7.81,0,0,1,4.47-2.54c0,1.67-1.28,2.5-2.23,3.56-2.69,3-5.44,6-8.06,9C458.91,557.08,457.76,559.62,460.6,562.27ZM416,414.9l.38-.39-.43.35-.9.83c-3.34,1-5.65,3.56-8.34,5.5-5.37,3.87-5.33,4-2.94,10.18,2.31,6,4.7,11.92,7,17.88a63.81,63.81,0,0,0-1-10.5c-1-8.28,1-15.87,5.31-22.94Zm87.68,57.92.08-.11h-.17c1.38,3.63,2.08,7.56,5,12,.09-2.91,3.73-3.22,2.09-5.33-1.93-2.53-4-5.21-7.05-6.56Zm-51.24,38.3-.06.64c.08-.1.21-.2.22-.3s-.15-.22-.21-.34ZM412,451.41l-.06.63c.08-.09.21-.19.22-.29S412.05,451.53,412,451.41Z"/><path class="cls-4" d="M121.26,1737.91c4.09.57,7.85,2.28,11.49,4,15.75,7.26,31.49,5.74,47.29.47,13.91-4.64,26.76-11.47,39.27-19,1.28-.77,2.37-2.31,4.24-1.44,16.31,15.09,32.74,30.06,51.21,42.55,14.57,9.86,29.86,18.34,47.61,20.92,6.49,1,13.11,1,19.68,1.33,9.36.39,13.47,2.82,14.92,9.15a18.21,18.21,0,0,1-9,20.12c-5.37,2.83-11.24,4.08-17.15,4.9a508.46,508.46,0,0,1-89.26,4.38A109.07,109.07,0,0,1,214,1821a49.28,49.28,0,0,1-22.8-14c-2.47-2.73-3.53-2.07-5.55.12-3.57,3.87-7.48,7.42-11.1,11.24a5,5,0,0,1-4.64,1.69q-28.77-3-57.56-5.85c-2.11-.2-2.79-.77-3.13-3-2.77-17.86-.42-35.2,5-52.25C116.41,1751.92,118.89,1744.93,121.26,1737.91Z"/><path class="cls-4" d="M610.73,1747.14c0-2.65,1.28-4.34,3.52-5.89q40-27.75,79.82-55.7c1.41-1,2.65-2.34,4.58-2.35,16.19,6.52,32.7,11.65,50.47,10.42,14.23-1,27.64-5.42,41-10,11-3.78,21.78-8.23,33.29-10.38,8.25-1.54,15.7.24,18.13,5.24,3.35,6.89,1.35,13.31-3,19.2a38.79,38.79,0,0,1-8.78,8.52c-14.34,10.31-28.66,20.63-43.13,30.75-18.29,12.79-39.12,18.34-61,20.85-10.6,1.22-21.21,2.27-31.88,2.63-2.16.07-2.77.57-2.28,2.76.85,3.84,1.16,7.81,2.18,11.59.58,2.19.08,3.08-1.8,4q-27.79,13.76-55.54,27.61c-1.25.63-2.36,1.64-3.52-.38-8.14-14.09-17-27.83-20.43-44.12A71.74,71.74,0,0,1,610.73,1747.14Z"/><path class="cls-5" d="M512.54,382.62c-6.94-11.72-13-14.5-25.44-11.74-15.21,3.37-23.12,11.71-24.65,25.57-1,9-.76,18-.93,27.06,0,1.57.38,3.21-.49,4.7-3.47-1.94-5.9-5.08-8.43-8-2.84-3.23-5.12-4.2-7.9-.25a33.12,33.12,0,0,1-1.85-3c-6.18-12.65-17.21-13.61-28.21-9.29-11.76,4.62-15.95,11-15.26,23.65.81,14.9-.28,29.77,0,44.66.11,5.78-2.09,8.55-7.83,9.86-3.83.88-7.76,1.3-11.65,1.93-10.35-19.82-19.29-40.17-24.91-62-7.43-28.77-.12-53.08,21.19-73.35,17.49-16.64,37.55-28.87,61.75-32.7,32.27-5.11,58.41,5.34,77.37,32.31C524.09,364.64,523.33,371.46,512.54,382.62Z"/><path class="cls-6" d="M410.57,1250.6c1.33-1.8.22-3.21-.63-4.78-3.78-7-5.17-13.71-2-21.86,7.08-18,13-36.48,19.41-54.77,3.74-10.69,7.47-21.38,11.66-32,1,2.88-.14,5.73-.66,8.43-5.32,27.39-10.71,54.77-16.34,82.1-1.91,9.25-3.06,18.66-5.78,27.75a21.05,21.05,0,0,0-.39,4.34A53.5,53.5,0,0,1,410.57,1250.6Z"/><path class="cls-4" d="M297.38,944a79.72,79.72,0,0,0,17.53,3.73c2.76.22,4.66,1.36,4.41,4.6a117.9,117.9,0,0,1-3.72,21.92c-.86,3.15-4,1.53-6,.9-8.21-2.64-16.34-5.55-24.51-8.37A68.34,68.34,0,0,1,297.38,944Z"/><path class="cls-4" d="M480.11,1007c-7.31,1.41-14.31-1.54-21.53-1.55-2,0-2.49-1.77-1.95-3.15,2.61-6.61,1-13.5,1.57-20.24.39-4.93.79-5.26,5.38-3.5,3.05,1.16,6.34.57,9.5.93A183.73,183.73,0,0,1,480.11,1007Z"/><path class="cls-4" d="M444.64,1003.75c-4.2-2-10.1-1.19-15.65-3-3.86-1.25-8.2-1.26-12.31-1.94-8.9-1.48-17.67-3.57-26.52-5.14-6.9-1.22-13.73-2.79-20.63-4-6.54-1.18-12.88-3.55-19.44-4.65-6-1-11.71-2.77-17.61-3.82-3.26-.58-6.35-1.76-9.58-2.38-3.62-.7-2-4.87-1.38-7.08,1.55-5.7,2.11-11.53,3-17.31.39-2.63,1.15-3.49,3.75-3.34,5.49.31,10.73,1.72,16,3.13a92,92,0,0,0,9.32,1.86c7.23,1.14,14.4,2.72,21.5,4.25,9.9,2.12,19.88,4,29.78,6.18,7.37,1.63,15,2.81,22.36,4.37,8.08,1.7,16.28,2.93,24.28,5,1.49.39,2.77,1.4,2.26,3.08-1.8,6-.65,12.16-1,18.22C452.35,1003.46,452,1004,444.64,1003.75Z"/><path class="cls-6" d="M227.23,1652.68c-.06,10.81-.09,21.63-.22,32.44,0,2.75.25,5.56-.76,8.23v-40a1,1,0,0,1,.24-.74C226.64,1652.52,227,1652.66,227.23,1652.68Z"/><path class="cls-6" d="M440.41,1134.31l-.52.34a4.25,4.25,0,0,1-.07-.8c0-.1.19-.18.29-.28Z"/><path class="cls-7" d="M346.69,702.61c6.05,1.65,10.71,5.84,15.92,9,28.05,16.79,56,33.72,84.65,49.5,9.95,5.48,20.17,10.43,30.16,16.28-4.5-1-9-1.86-13.5-2.9q-24.27-5.57-48.53-11.23a14.3,14.3,0,0,1-6.33-3.72Q379.75,733.19,350.39,707c-1.41-1.26-2.64-2.72-4-4.08Z"/><path class="cls-7" d="M481.8,680.81c-23.28-26.39-48.05-51.35-73.08-76.06-2.66-2.64-6.37-4.3-7.79-8.13l.13-.13c5.8,1.75,10.49,5.56,15.62,8.53,12,7,23.8,14.2,35.75,21.21a12.86,12.86,0,0,1,5,5.36q11.64,22.53,23.16,45.12c.66,1.29,1.45,2.57,1.2,4.13Z"/><path class="cls-7" d="M454.44,568.5c2,3.57,2.42,7.63,3.7,11.42-.95,7.12,1.91,14,1.66,21.87-9.55-7.61-18.52-14.72-27.47-21.87-1.59-1.27-1-2,.67-2.69C440.17,574.37,447.3,571.42,454.44,568.5Z"/><path class="cls-7" d="M341.8,826.07c.83,1.91-.75,2.7-1.67,3.65-10.75,11.16-21.56,22.27-32.31,33.42-3,3.16-5.91,6.47-8.94,9.62-.71.74-1.44,2.38-2.74,1.35-1-.81-.32-2.19.17-3.25,2.47-5.27,6.49-9.38,10.58-13.3,10.64-10.22,21.53-20.18,32.33-30.23C339.93,826.67,340.57,825.78,341.8,826.07Z"/><path class="cls-7" d="M486,589.67q1,12.24,1.93,24.49c-4.78-1.28-9.57-2.53-14.33-3.86-4.33-1.22-4.51-2-1.41-5.42Q479.12,597.29,486,589.67Z"/><path class="cls-7" d="M346.49,822.08a1.6,1.6,0,0,1,1.47-1.72,1.82,1.82,0,0,1,.33,0h0c-.57.6-1.15,1.19-1.73,1.79Z"/><path class="cls-7" d="M344.67,823.76a1.65,1.65,0,0,1,1.61-1.69h.21l.09.1-1.73,1.8Z"/><path class="cls-8" d="M480.15,777.62l.08.28a1,1,0,0,1-.34.08l-.09-.27Z"/><path class="cls-7" d="M344.85,824l-1,.64a2.6,2.6,0,0,1-.26-.32l1.11-.54Z"/><path class="cls-8" d="M400.07,595.74l-.38-.44.47.35Z"/><path class="cls-8" d="M400.16,595.65l.9.84-.13.13-.86-.88Z"/><path class="cls-8" d="M481.77,680.84l.39.16-.36-.19Z"/><path class="cls-8" d="M346.43,702.87l-.3-.54.56.28Z"/><path class="cls-7" d="M349.18,819.51l.35-.38v.23a1.4,1.4,0,0,1-.3.15Z"/><path class="cls-7" d="M348.29,820.37l.89-.86h0l-.87.88Z"/><path class="cls-9" d="M444.7,420c2.78-3.95,5.06-3,7.9.25,2.53,2.88,5,6,8.43,8,5.57,7.17,12.39,13.16,18.76,19.56,3.22,3.25,5.31,6.55,5.84,11.22.81,7.08,2.33,14.09,3.48,21.14a16.26,16.26,0,0,1,.19,4.35c-.35,3.09-1.8,4.25-4.66,2.15a53.5,53.5,0,0,1-9.09-8.83Q461.69,461.45,447.89,445a44.78,44.78,0,0,0-8.1-8c-.89-.64-1.92-1.68-3.11-.68-.89.75-.66,2-.32,2.89,1.4,3.82,2.7,7.71,4.45,11.37,7.82,16.3,17.14,31.78,26.29,47.35a9,9,0,0,1,1.5,4.2q-4.16-4-8.3-7.9c-14.14-13.34-28.24-26.7-42.45-40-2-1.84-2.34-2.86-.25-5.05C426.76,439.59,435.69,429.75,444.7,420Z"/><path class="cls-10" d="M453.71,514.91c4.94,9.65,11.5,18.26,17.51,27.21h0a7.81,7.81,0,0,0-4.47,2.54c-2.61,2.46-4.06,2.24-4.94-1.33-2.38-9.55-6.44-18.63-8.16-28.38Z"/><path class="cls-10" d="M415.12,415.81c-4.28,7.07-6.37,14.66-5.32,22.94a63.81,63.81,0,0,1,1,10.5c-2.35-6-4.74-11.9-7-17.88-2.39-6.19-2.43-6.31,2.94-10.18,2.69-1.94,5-4.52,8.34-5.5Z"/><path class="cls-9" d="M503.62,472.8c3.09,1.37,5.13,4.05,7.05,6.52,1.64,2.11-2,2.42-2.09,5.33-3-4.41-3.66-8.34-5-12Z"/><path class="cls-10" d="M453.66,515c-.21-.31-.42-.62-.62-.94a2.18,2.18,0,0,1,.31-.22l.36,1.12Z"/><path class="cls-10" d="M452.39,511.12c.06.12.17.23.16.34s-.14.2-.22.3Z"/><path class="cls-10" d="M412,451.41c.06.12.17.23.16.34s-.14.2-.22.29Z"/><path class="cls-10" d="M415.9,414.86l.43-.35-.38.39Z"/><path class="cls-9" d="M503.54,472.68h.17l-.08.1Z"/><path class="cls-10" d="M415,415.69l.9-.83H416l-.84.91Z"/><circle class="cls-11" cx="530.54" cy="70.3" r="19.66" transform="translate(372.84 581.72) rotate(-80.41)"/><path class="cls-11" d="M436.78,177.87c-6.83-6.93-6.83-6.93-2.29-15.64,5.38-10.34,5.35-10.32-1.79-19.73a3.66,3.66,0,0,0-4-1.51c-5.11.7-10.26,1.07-15.36,1.78-2.27.32-3.61-.27-4.15-2.53a9.83,9.83,0,0,0-.58-1.28c-5.42-13.27-4-16.62,9.43-22.76,2.38-1.08,4.75-2,2.86-5.81-.93-1.84-.26-4.59,0-6.9.28-2.5-1.13-3.67-3-4.54-3.06-1.4-6.17-2.71-9.25-4C401,91.2,401,91.2,403,81.34a1.74,1.74,0,0,0,1.65-1.83.22.22,0,0,1,0-.08c-.08-4.62,2.63-5.77,6.66-5.63,3.75.14,7.5-.13,11.24,0,3.35.17,5.1-1,4.76-4.51,6.05-7.9,2.62-14-3-20.5s-5.22-6.8.46-13.26c7.93-9,4.81-7.9,15-3.15a1.66,1.66,0,0,1,.43.19c7.08,6.21,13.44,4.44,19.77-1.42,1.48-1.37,2-2.29,1.77-4.24C461,22,460.6,17,459.93,12.08c-.31-2.31.21-3.54,2.55-4.62,13.93-6.46,13.93-6.48,22,6.47,1.35,2.18,2,5.76,4.7,6,4.29.39,8.71-.35,13-.85,1.45-.16,1.41-1.93,1.89-3,2.05-4.56,4-9.15,6-13.74.51-1.17,1.05-2.52,2.57-2.31,5.48.76,11.11.92,16.2,3.53,0,6.08,0,12.17.13,18.25,0,.53.63,1,1,1.56,3.7,3,8.5,3.83,12.4,6.43,1.51,1,2.3-.46,3.2-1.11,4.07-2.92,8.13-5.86,12.06-9,2.1-1.67,3.85-1.71,5.69.2a2.57,2.57,0,0,0,.37.28c11.59,8.63,11.58,8.62,4.84,21.32-1.24,2.32-3.89,5.32-3.24,6.94,1.66,4.11,4.76,7.64,7.41,11.32.76,1,2,.33,3.1.21,5-.56,10-1,14.93-1.76,2.49-.39,3.83.32,4.59,2.67,1.47,4.57,4.71,9.34,4.13,13.61s-7.28,5.07-10.47,8.45a3.66,3.66,0,0,0-3.09,2.5v.12c-1.21.21-2.68-.16-3.3,1.42v1.91c0,.63-.25,1.48.48,2l.33,1.7c0,1.86.15,3.73,0,5.56-.26,2.77.91,4,3.62,4.08v-.1l1.1.72c3.43.34,6.34,2.08,9.38,3.45,3.8,1.71,6.35,4,4.86,8.77a66.69,66.69,0,0,0-1.91,9.61c-.32,2.09-1.37,2.91-3.4,3-5.14.19-10.27.58-15.41.67-2.16,0-3,1-4.18,2.72-5.2,7.46-4.9,14,2.14,20a23.52,23.52,0,0,1,2.88,3.64c2.22,2.88,2.14,5.44-.6,8.11a70.15,70.15,0,0,0-6.41,7.47c-1.56,2-3.19,2-5.26.93-4.27-2.28-8.67-4.34-12.87-6.76-2.24-1.29-3.63-.63-5.83.42-7.8,3.74-10.55,9.24-7.62,17.46a7.76,7.76,0,0,1,.16,1.86c.72,8.44.79,8.64-7.41,11.28-10.62,3.43-8.65,5.14-14-4.89-4.37-8.2-9.56-11.22-18.39-9-1.87.48-3,.82-3.73,2.73-1.81,4.66-4,9.16-5.85,13.82-1.15,3-3.33,3.19-5.68,2.44-4.66-1.48-10.48.45-13.9-4.6a4.87,4.87,0,0,1-.29-2.3c-.19-4.54-.33-9.07-.55-13.61-.06-1.19.54-2.78-.78-3.46-3.89-2-7.74-4.4-11.9-5.45-2.7-.69-4.58,2.79-6.89,4.3-4,2.61-7.3,6.29-12.25,7.24h0c-.95-2-2.76-3-4.59-4v.14Zm65.6-132.52A55,55,0,0,0,447,99.84c-.25,30.68,24.23,55.73,54.59,55.87,31.05.15,55.77-24.22,55.84-55.05A54.82,54.82,0,0,0,503.1,45.35Z"/><path class="cls-12" d="M502.38,45.35a54.82,54.82,0,0,1,55,54.64v.67c-.07,30.83-24.79,55.2-55.84,55.05-30.36-.14-54.84-25.19-54.59-55.87A55,55,0,0,1,502.38,45.35Zm.16,39.39c-5.16-4.62-10.36-8.84-16.65-11.46-5.9-2.47-9.05-1.07-11.33,4.94a32.82,32.82,0,0,0-.35,22.08c5.64,18,26.63,30.53,44,26.24,5.76-1.43,8.17-4.78,6.75-10.25-1.66-6.42-5.18-11.91-9.33-17.06-2.76,2.28-3.07,4.34-.93,7a29.8,29.8,0,0,1,3.57,6c.85,1.75,2.46,4,.62,5.57s-3.91,0-5.6-1.06A81.74,81.74,0,0,1,492.7,99.13,64.83,64.83,0,0,1,482.25,82.5c-.6-1.43-1.21-3.2.2-4.37,1.25-1,2.68,0,3.92.66a37.19,37.19,0,0,1,9.2,6.42C498,87.58,500,87.79,502.54,84.74Zm-3.71,57.91c1.44-.25,3.57.7,4.12-1.19.42-1.46-1.09-2.7-2.27-3.75q-5.79-5.11-11.48-10.32c-1.37-1.26-2.48-2.12-4.28-.41-4.52,4.29-9.23,8.38-13.83,12.59-.52.49-1.25,1.34-1.12,1.83.24.91,1.21,1.25,2.25,1.27a14.46,14.46,0,0,0,8.3-2.36c5.12-3.26,8.7-3.15,13.25.59a6.13,6.13,0,0,0,5.06,1.75Zm24.4-60.51c-.29-2.4-1.57-4.07-4-4.42-2.71-.39-5.12,1-5.15,3.53,0,3.79-2.44,5-5,6.54-2.94,1.76-5.75,3.73-8.74,5.39-2.32,1.28-2.25,2.62-.66,4.34.85.91,1.7,1.82,2.56,2.72,2.41,2.53,4.37,3.11,6.18-.78,1.31-2.8,3.3-5.28,4.88-8,1.43-2.46,2.67-4.69,6.24-4.68,2.4,0,3.58-2.12,3.69-4.64Zm17.85-2.79c-.26-9.19-10.24-19.25-19.54-19.7-1.37-.06-2.89-.46-3,1.79-.09,1.9.52,2.67,2.54,3,8.7,1.46,13.82,6.72,15.25,15.39.3,1.83,1,2.32,2.71,2.3C541.09,82.11,541.32,81,541.08,79.35Zm-8.74.69c-.12-4.9-6.33-11.21-11.45-11.62-.94-.07-2.06-.29-2.2,1s-.84,3.2,1,3.64c4.46,1.08,6.93,3.77,8.06,8.13.39,1.52,2.13.94,3.3.89s1.45-1,1.29-2.08Z"/><path class="cls-11" d="M502.54,84.74c-2.56,3.05-4.54,2.84-7,.47a37.19,37.19,0,0,0-9.2-6.42c-1.24-.63-2.67-1.69-3.92-.66-1.41,1.17-.8,2.94-.2,4.37a64.71,64.71,0,0,0,10.43,16.62,81.74,81.74,0,0,0,20.59,17.61c1.69,1,3.88,2.57,5.6,1.06s.23-3.82-.62-5.57a29.8,29.8,0,0,0-3.57-6c-2.14-2.61-1.83-4.67.93-7,4.15,5.15,7.67,10.64,9.33,17.06,1.42,5.47-1,8.82-6.75,10.25-17.35,4.29-38.34-8.29-44-26.24a32.82,32.82,0,0,1,.35-22.08c2.28-6,5.43-7.41,11.33-4.94C492.18,75.9,497.38,80.12,502.54,84.74Z"/><path class="cls-11" d="M498.83,142.65a6.13,6.13,0,0,1-5.06-1.75c-4.55-3.74-8.13-3.85-13.25-.59a14.46,14.46,0,0,1-8.3,2.36A2.13,2.13,0,0,1,470,141.4c-.13-.49.6-1.34,1.12-1.83,4.6-4.21,9.31-8.3,13.83-12.59,1.8-1.71,2.91-.85,4.28.41q5.69,5.21,11.48,10.32c1.18,1,2.69,2.29,2.27,3.75C502.4,143.35,500.27,142.4,498.83,142.65Z"/><path class="cls-11" d="M523.23,82.14c-.11,2.52-1.29,4.69-3.7,4.68-3.57,0-4.81,2.22-6.24,4.68-1.58,2.68-3.57,5.16-4.88,8-1.81,3.89-3.77,3.31-6.18.78-.86-.9-1.71-1.81-2.56-2.72-1.59-1.72-1.66-3.06.66-4.34,3-1.66,5.8-3.63,8.74-5.39,2.54-1.52,4.95-2.75,5-6.54,0-2.54,2.44-3.92,5.15-3.53C521.66,78.07,522.94,79.74,523.23,82.14Z"/><path class="cls-13" d="M600.29,429.44c3.18-1.37,5.45.91,7.75,2.24s3.48.88,5.34-.46,3.12-2.58,2.65-5.29-2.56-6.06,2.07-7.84c3.6-1.38,6.17-1.38,8,2.55,1.1,2.43,2.48,4.2,6,4.05,3.73-.16,4.15-2.65,5.14-5,1.14-2.66,1.92-4.91,6-4.11s5.26,2.57,4.91,6.23c-.29,3,.46,5,3.68,6.58s4.61-.61,6.46-1.94c2.3-1.66,4-3.46,7.08-.65,2.85,2.61,3.53,4.58,1.22,7.81-1.43,2-2.82,4.07-.52,7,2.09,2.67,4,2.79,6.8,2.17s5.18-.87,6.63,2.94.43,5.88-2.87,7.43c-2.77,1.31-4.17,3-3.89,6.49.27,3.31,2.43,3.61,4.46,4.51,5.68,2.52,5.76,2.77,3.07,10.61l-2.92.5c-3.72-.34-7.16-.63-8.65,4.21-.66,2.13-.14,3.08,1.26,4.18,4.17,5.16,4,8.23-.39,11-1.26.79-2.31.53-3.5.39-2.78-.86-4.7-5.35-8.47-2h0a2,2,0,0,0-1.72,1.1c-3.41,1.34-1.47,3.92-1.31,6,.21,2.66.92,5-2.83,6.26-3.55,1.19-5.91,1.14-7.57-2.54-1.21-2.66-2.68-4.39-6.38-4.14s-4.33,2.93-4.91,5.2c-1.3,5.05-4.58,3.74-8,3.37-3.88-.43-2.58-3.36-2.62-5.21,0-2.95-.5-5.19-3.48-6.53s-5.2-.37-7.15,1.64c-2.76,2.84-5.55,2.07-8.25.22-2.15-1.48-3.16-3.22-1-5.8a14.6,14.6,0,0,0,3.23-6.12c.49-2.52-4.26-5.74-7.21-4.51-4.12,1.73-6.22-.19-7.93-3.17-1.8-3.14-1.4-6.07,1.88-8.21.25-.15.38-.48.57-.72,2-.13,4.54.45,4.58-2.55,0-2.61.72-5.66-3.23-6.78-3.27-.93-7.19-1.83-6.19-6.86.66-4,2.89-5.77,7-5.56,1.93.1,4.18.86,5.47-2.17,1.11-2.62.83-4.24-1.1-6C595.26,436.13,596.81,432.68,600.29,429.44Zm60.44,32.66a25.28,25.28,0,0,0-25.06-25.5h-.62c-14.65,0-25.74,11.24-25.68,26,.06,14.26,11.39,25.31,25.91,25.27a25.32,25.32,0,0,0,25.45-25.21Z"/><path class="cls-14" d="M660.73,462.1a25.33,25.33,0,0,1-24.92,25.74h-.53c-14.52,0-25.85-11-25.91-25.27-.06-14.73,11-25.95,25.68-26a25.29,25.29,0,0,1,25.68,24.88Zm-42.47,6a30.53,30.53,0,0,0-.11,5.06c.56,4.09,3.72,4.26,6.89,4.18,1.1,0,3.22.44,2.81-1.24-.71-2.92-3.82-.63-5.54-1.77a3.17,3.17,0,0,0-.41-.21c-.12-1.88-.1-3.56,2.46-1.82,3.56,0,7.12-.06,10.69-.07,10.58,0,10.58,0,10.27-10.84l-.05-1.39.09-9c-6.48-2.21-13.16-.49-19.74-1a1.74,1.74,0,0,0-1.77,1.23v1.52c-2.2-.09-1.8-2-2.22-3.26.57-2.34,2.49-1.2,3.85-1.45,1-.18,2.51.33,2.54-1.25,0-1.88-1.64-1.44-2.8-1.5-5.81-.29-7,1.5-6.13,9.31a50,50,0,0,0-.83,13.54Zm26.86,9.3c4.67-.06,6-1.6,5.73-6.45-.06-1.15.43-2.84-1.52-2.73-1.54.1-1.19,1.6-1.18,2.6,0,2.21,0,4.07-3.11,3.89-1.17-.07-3.32-.86-3.35,1.27,0,2.75,2.38.88,3.43,1.46Zm5.75-26.35c-.08-4.58-2.23-6.27-7.06-5.7-.93.1-2-.07-2.15,1.19-.19,1.74,1.22,1.48,2.23,1.48,2.26,0,4.51-.22,4.3,3.21-.07,1.19-.73,3.35,1.46,3.18,2-.12.92-2.21,1.22-3.32Z"/><path class="cls-13" d="M645.32,461.43c.31,10.84.31,10.83-10.27,10.84-3.57,0-7.13.05-10.7.07-1-8.28-1-8.28,5.9-10.95a4.27,4.27,0,0,0,1.89,3.33c1.86-1.59,1.46-4.29,3.49-5.62,1.13,2.85,2.23,5.62,3.31,8.36C641.86,465.82,640.44,460.46,645.32,461.43Z"/><path class="cls-13" d="M645.36,451l-.09,9c-3-.4-4.82,1.13-6.06,4.17l-3.74-9.63c-1.18,2.55-2,4.24-2.74,5.92-.63,1.34-1.27,1-1.88,0-.62-1.41-.84-4.26-2.85-.85-.7,1.19-1.56,2.07-3,1.57s-.89-2.11-1-3.26c-.14-1.7-.16-3.41-.23-5.12v-1.52C631,450.37,638.19,450.92,645.36,451Z"/><path class="cls-15" d="M623.82,452.81c.07,1.71.09,3.42.23,5.12.09,1.15-.61,2.68,1,3.26,1.41.5,2.27-.38,3-1.57,2-3.41,2.23-.56,2.85.85l-.6.92c-6.88,2.67-6.88,2.67-5.9,10.95-2.55-1.74-2.57-.06-2.45,1.82-1.3-1.05-.75-2.52-.73-3.78,0-2.22-1.22-2.43-2.91-2.24a50,50,0,0,1,.81-13.48c3.9-.19,1-3.72,2.53-5.11C622,450.85,621.62,452.72,623.82,452.81Z"/><path class="cls-12" d="M630.25,461.39l.6-.92c.61,1,1.25,1.37,1.88,0,.79-1.68,1.56-3.37,2.74-5.92l3.74,9.63c1.24-3,3.08-4.57,6.06-4.17a12.82,12.82,0,0,0,.05,1.39c-4.88-1-3.46,4.39-6.38,6-1.08-2.74-2.18-5.51-3.31-8.36-2,1.33-1.63,4-3.49,5.62A4.3,4.3,0,0,1,630.25,461.39Z"/><path class="cls-13" d="M618.26,468.14c1.69-.19,3,0,2.91,2.24,0,1.26-.57,2.73.73,3.78a3.17,3.17,0,0,1,.41.21c1.72,1.14,4.83-1.15,5.54,1.77.41,1.68-1.71,1.21-2.81,1.24-3.17.08-6.33-.09-6.89-4.18A30.53,30.53,0,0,1,618.26,468.14Z"/><path class="cls-13" d="M645.12,477.44c-1-.58-3.47,1.29-3.43-1.42,0-2.13,2.18-1.34,3.35-1.27,3.08.18,3.15-1.68,3.11-3.89,0-1-.36-2.5,1.18-2.6,1.95-.11,1.46,1.58,1.52,2.73C651.14,475.84,649.79,477.38,645.12,477.44Z"/><path class="cls-13" d="M650.87,451.09c-.3,1.11.77,3.2-1.22,3.36-2.19.17-1.53-2-1.46-3.18.21-3.43-2-3.21-4.3-3.21-1,0-2.42.26-2.23-1.48.13-1.26,1.22-1.09,2.15-1.19C648.64,444.82,650.79,446.51,650.87,451.09Z"/><path class="cls-13" d="M621.6,449.55c-1.48,1.39,1.37,4.92-2.53,5.11-.86-7.81.31-9.6,6.12-9.31,1.16.06,2.83-.38,2.8,1.5,0,1.58-1.55,1.07-2.54,1.25C624.09,448.35,622.17,447.21,621.6,449.55Z"/><path class="cls-15" d="M645.36,451c-7.17-.1-14.35-.65-21.51.27a1.74,1.74,0,0,1,1.77-1.23C632.2,450.53,638.88,448.81,645.36,451Z"/><path class="cls-13" d="M891.64,448.7a3.51,3.51,0,0,0,.91.13c8.3-.81,7.89-.62,11.45,6.75,2.48,5.13-2,5.88-3.91,8.36-7.21,3.74-8.05,5.9-5.65,13.58.8,2.54,3.33,2.58,4.82,2.77,3.76.48,6.46,2.64,9.48,4.36-.15,1.24-.27,2.47-.45,3.7-1.22,8.07-1.22,8.07-9,9.56l-1.91.08c-3.76-.75-6.38.49-6.85,4.49-.26,2.24-4.14,4.11-.76,6.72h0a25.84,25.84,0,0,0,5.63,6.61v0l.92,1.09h-.09a3.77,3.77,0,0,1-.36,5.29c-2.16,2.38-4,5-6,7.53h.06L885.14,528a.9.9,0,0,0-.74-.21c-2-1.08-4-2.14-6-3.25s-3.52-.57-4.61,1.37h0c-3,2.09-7.66,3.27-4.61,8.6a20.65,20.65,0,0,0,.47,4.64c1.47,4.32-.08,6.45-4.3,8-6.94,2.51-6.88,2.79-11.36-3.51-2.42-3.41-4.2-7-9.85-5.41-3.4.93-5.71,1.77-6.35,5.37a16,16,0,0,1-.71,2.23c-2.39,7-7.17,8.88-14.16,5.79a3,3,0,0,1-1.9-2.87c-.24-2.64-.75-5.28-.73-7.92,0-3-1.1-4.32-3.92-5.86-5-2.76-8.23-1.26-11.76,2.3-1.77,1.78-3.77,4.87-6.4,4-3.49-1.12-6.31-3.94-9-6.55-.87-.84-.37-1.72,0-2.57.83-1.85,1.69-3.69,2.52-5.55,2.76-6.19,2.33-8.22-2.44-12.89a3,3,0,0,0-2.92-.94c-2,.34-4,.69-6,1-7.78,1.2-6.17,2.36-9.89-5.25-2.12-4.35-1.65-7.26,2.78-9.38a17.63,17.63,0,0,0,2.28-1.65c4.86-3.44,5.78-6.68,3.78-12.43-.5-1.45-1.53-1.79-2.72-2.21-2.65-.93-5.25-2.05-7.94-2.84-3-.87-3.57-2.48-3.22-5.55,1.23-10.72,1-8.75,9.81-9.73,7.24-.8,8.55-2.21,9.31-10.12-.76-1.92-1.65-3.75-3.52-4.87h0l-1-1.05.07.07-.94-1h.08a3.35,3.35,0,0,0-2-2.73h0c-.1-1.06-1.13-2-.56-3.14l.63-1.12.77-1.08.82-1.05,4.75-5.64c4.09.66,7.51,3,11.23,4.56,3.9,1.66,10.86-3.46,10.4-7.71-.21-2-.71-4-1-6s-2-4.85-.12-6.2a24.52,24.52,0,0,1,10.75-4.37c1.07-.15,1.52.93,2.07,1.68,1.4,1.89,2.85,3.73,4.16,5.67,1.58,2.33,2.73,4.83,6.51,3.88s8.08-.39,8.45-5.93a6.87,6.87,0,0,1,.69-1.74c3-8,3-7.83,11.71-6.47,3.35.53,4.61,2,4.59,5.15a34.66,34.66,0,0,0,.37,4.2c.73,6.36,2.67,8.37,8.81,9.69,2.18.47,3-1.11,4.4-2.05,3.22-2.23,5.37-6.16,9.91-6.35a2.81,2.81,0,0,0,2,1.57.33.33,0,0,0,.38.27l.06,0c2.46,2.95,8.13,4.31,5,10h.08c-5.43,7.9-5.29,8.23-.21,15,2.08,2.77,3.8,2.47,6,.58v-.07C890.38,449.05,891,448.87,891.64,448.7Zm-55,71.72a39.17,39.17,0,1,0-39-39.34v.13a39.08,39.08,0,0,0,39,39.21h0Z"/><path class="cls-12" d="M836.63,520.42a39.26,39.26,0,1,1,.35,0Zm15.87-12.54a55.64,55.64,0,0,1-10.88-21.07c-1.24-4.86-3.36-9.72.54-14.71,1.82-2.33.44-5.23-1.94-7a5.72,5.72,0,0,0-7.38,0c-2.4,1.87-3.51,4.8-1.75,7,3.39,4.32,1.82,8.47.86,12.84-1.85,8.49-6.05,15.87-11.33,23,5.38.36,5.38.36,9.31-2.65s9.83-3.15,13.43.26c2.64,2.55,5.19,3.26,9.14,2.33Zm10.19-38.28a24.64,24.64,0,0,0-5.27-15.17c-.79-1-1.63-2.65-3.27-1-1.12,1.16-2.65,2-1,4.16,6.09,8.1,6,16.47,0,24.55-1.71,2.32,0,3,1.06,4.11,1.66,1.69,2.49-.11,3.23-1.07a24,24,0,0,0,5.25-15.58Zm-52.34-.4c.1,6.17,1.64,11.6,5.5,16.24,1,1.15,1.83,2.28,3.32.71,1-1.08,2.38-1.85.91-3.82-6.2-8.24-6.09-16.67,0-24.94,1.46-2-.07-2.64-1-3.75-1.59-1.85-2.37-.31-3.22.73a24.43,24.43,0,0,0-5.51,14.83Zm42.65,1a16.1,16.1,0,0,0-2.53-8.52c-.78-1.1-1.46-2.88-3.13-1.3-1,1-3.14,1.64-1.39,4.05a9,9,0,0,1,0,10.95c-1.62,2.37.36,3.08,1.48,4.05,1.76,1.53,2.39-.4,3.15-1.41,1.75-2.38,2.16-5.17,2.42-7.86Zm-32.75-.57a13,13,0,0,0,2.38,8.49c.6.88,1.11,3.2,3,1.46,1.09-1,3.14-1.82,1.58-4.13a9.43,9.43,0,0,1-.05-11c1.47-2.31-.38-3.18-1.52-4.15-1.73-1.49-2.42.42-3.1,1.46a12.39,12.39,0,0,0-2.29,7.83Z"/><path class="cls-13" d="M852.5,507.88c-4,.93-6.54.22-9.14-2.25-3.6-3.41-9.55-3.22-13.43-.26s-3.93,3-9.31,2.65c5.28-7.1,9.48-14.48,11.33-23,1-4.37,2.53-8.52-.86-12.84-1.76-2.24-.65-5.17,1.75-7a5.72,5.72,0,0,1,7.38,0c2.38,1.74,3.76,4.64,1.94,7-3.9,5-1.78,9.85-.54,14.71A55.59,55.59,0,0,0,852.5,507.88Zm-16-18.43c-.89,3.24-3,5.42-2.23,7.95.27.87,3.11.47,5,.1-.19-2.72-1.76-4.82-2.75-8.05Z"/><path class="cls-13" d="M862.68,469.6a24,24,0,0,1-5.22,15.62c-.74,1-1.57,2.76-3.23,1.07-1.08-1.1-2.77-1.79-1.06-4.11,6-8.08,6.07-16.45,0-24.55-1.65-2.2-.12-3,1-4.16,1.64-1.69,2.48-.08,3.27,1A24.56,24.56,0,0,1,862.68,469.6Z"/><path class="cls-13" d="M810.35,469.2a24.46,24.46,0,0,1,5.45-14.83c.85-1,1.63-2.58,3.22-.73,1,1.11,2.48,1.76,1,3.75-6,8.27-6.16,16.7,0,24.94,1.47,2,.12,2.74-.91,3.82-1.49,1.57-2.36.44-3.32-.71C812,480.8,810.45,475.37,810.35,469.2Z"/><path class="cls-13" d="M853,470.16c-.26,2.69-.67,5.48-2.42,7.82-.76,1-1.39,2.94-3.15,1.41-1.12-1-3.1-1.68-1.48-4.05a9,9,0,0,0,0-10.95c-1.75-2.41.37-3.08,1.39-4.05,1.67-1.58,2.35.2,3.13,1.3A16.1,16.1,0,0,1,853,470.16Z"/><path class="cls-13" d="M820.25,469.59a12.4,12.4,0,0,1,2.27-7.84c.68-1,1.37-2.95,3.1-1.46,1.14,1,3,1.84,1.52,4.15a9.43,9.43,0,0,0,.05,11c1.56,2.31-.49,3.12-1.58,4.13-1.87,1.74-2.38-.58-3-1.46A13,13,0,0,1,820.25,469.59Z"/><path class="cls-12" d="M836.52,489.45c1,3.23,2.56,5.33,2.72,8.05-1.84.37-4.68.77-5-.1C833.51,494.87,835.63,492.69,836.52,489.45Z"/><path class="cls-13" d="M712.55,272.94l-2.95-3.58c-1.71-3.08-5.9-5.26-1.78-9.93,4.91-5.57,4.74-6.32,11.29-2.65,5,2.81,8.55,2,12.3-1.78,1.17-1.17,1.63-2,1.23-3.58s-.48-3.09-.75-4.63c-1.19-6.67,1.82-10.49,8.7-11.23a3,3,0,0,1,3.08,1.6c1,1.41,2.33,2.65,3,4.18,2.23,5.16,6.07,5.25,10.75,4.15,2-.47,3-1.23,3.49-3.1a29.76,29.76,0,0,1,1.28-3.53c3.4-8.61,1.52-7,10.06-6.12,3.68.4,5.81,1.65,5.3,5.78a14.92,14.92,0,0,0,.5,3.7c.34,2.62-.49,5.29,3.4,6.72s7.28,2.55,10.26-1.4a6.22,6.22,0,0,1,1.08-.9c5.17-4.23,10.32-3.4,14.15,2.2a2.89,2.89,0,0,1,.13,3.07c-.76,1.72-1.55,3.42-2.34,5.12-2.52,5.41-1.9,8.17,2.5,12.05a3.15,3.15,0,0,0,3,.67c1.38-.27,2.79-.38,4.18-.62,7.63-1.34,10,.38,11.72,8.13a3,3,0,0,1-1.54,3.5c-2.07,1.4-4,3.06-6.11,4.34a5.17,5.17,0,0,0-2.73,5.73c.94,6.71,1,6.91,9.4,8.93,1.28,1.5,4.61.86,4.51,3.47A64.39,64.39,0,0,1,828,313.37c-.23,1.09-1.48.95-2.39,1.05-1.86.21-3.74.36-5.6.59-5.63.69-8.11,3.07-9.08,8.4a2.71,2.71,0,0,0,.81,2.5c1,1.18,2,2.36,3,3.57,4.89,5.95,4.7,5.81.33,12-2.17,3.06-4.2,3.76-7.31,1.77a30.75,30.75,0,0,0-3.42-1.53c-4.66-2.2-9-1.12-12,2.9a3,3,0,0,0-.41,2.62c.26,1.38.45,2.78.7,4.16,1.41,7.9,0,9.87-8,11.76a3,3,0,0,1-3.6-1.31c-1-1.56-2.51-2.89-3.27-4.56-1.94-4.29-4.85-5.24-9.34-4.14-2.74.67-4.57,1.44-5.08,4.34a16.7,16.7,0,0,1-.94,2.65c-2.6,7.18-2.58,7-10.28,6-3.66-.46-5.34-1.88-5-5.59.08-.91-.33-1.88-.25-2.79.48-5.25-2.31-7.71-7-9.14-2.12-.65-3.46-.56-5,1-1.18,1.23-2.81,2.05-3.93,3.33-3.11,3.56-5.81,3.15-9.5.38-3.93-3-5.09-5.51-2.5-10,1.2-2.1,4-4.27,2-7.42-4.69-8-5.54-8.46-14.57-5.23-3.1,1.11-4,.27-5.2-2.26-4.23-8.76-4.32-8.72,4.73-15.29,1.34-1,4.17-1.18,2.9-3.68-1.54-3.05.82-8.42-5.11-8.94a5.38,5.38,0,0,1-.9-.22c-8.1-2.29-10.18-6.33-7.23-14,.54-1.43,1.75-1.65,3-1.76,1.86-.16,3.74-.15,5.58-.44,7-1.12,8.21-2.44,9.21-10Zm49.91,63.27a36.77,36.77,0,1,0-37-36.54v.12a36.74,36.74,0,0,0,37,36.42Z"/><path class="cls-12" d="M762.46,336.21a36.51,36.51,0,1,1,.48,0Zm-13.69-41.84,1.08,1c-2.74,3.18-6,6-7.71,9.94-.92,2.05-1.59,4.21-.09,6.23s3.72,2.14,6,1.81a33.53,33.53,0,0,0,12.21-4.6c8.65-5.14,16.89-10.85,21.72-20,2.6-4.93,0-8.36-5.52-7.92a10.22,10.22,0,0,0-4.07.94c-6.82,3.79-13.12,4.21-20.7.7-8.22-3.82-10.71-1.15-9.31,7.6V291C742.88,295.66,744.17,296.35,748.77,294.37Zm26.9,18.5c5.91.37,8-2.19,6.67-6.86a9.33,9.33,0,0,1-.59-2.7c.08-2.32-.66-4.07-3.09-4.49A3.21,3.21,0,0,0,775,301c-.93,2.43.3,3.9,2.42,4.77,1.31.53,2.31,1.31,1.89,2.74-.47,1.61-2,1.33-3.17,1-2.55-.7-5-1.66-7.54-2.47a2.3,2.3,0,0,0-2.87,1c-.8,1.57.86,1.74,1.7,2.1,3,1.31,6,2.71,8.24,2.73Zm-7.8,1.26c.18-1.26-.58-1.52-1.3-1.84a1.32,1.32,0,0,0-1.79.53,1.6,1.6,0,0,0-.1.23c-1.6,3.23-3.26,4.28-5.18.24-.52-1.12-1.36-1.09-2.32-.65-.62.28-1.22.8-1,1.39,1.13,2.64,2.48,5.25,5.88,5.19s4.62-2.77,5.81-5.09Zm-9.86-32c.29-.14.89-.24,1-.54,1.83-4,3.73-4.16,6-.31.45.76,1.42.33,2.1,0a1.15,1.15,0,0,0,.59-1.53s0,0,0-.05c-1.4-2.44-2.71-5.13-6.22-4.72-3.11.35-4.33,2.83-5.29,5.31-.41,1.08.83,1.41,1.83,1.84Z"/><path class="cls-13" d="M748.77,294.37c-4.6,2-5.89,1.29-6.43-3.44V290c-1.4-8.75,1.09-11.42,9.31-7.6,7.58,3.51,13.88,3.09,20.7-.7a10.22,10.22,0,0,1,4.07-.94c5.57-.44,8.12,3,5.52,7.92-4.83,9.18-13.07,14.89-21.72,20a33.53,33.53,0,0,1-12.21,4.6c-2.24.33-4.48.17-6-1.81s-.83-4.18.09-6.23c1.76-3.93,5-6.76,7.71-9.94l8.45-6.68a28,28,0,0,0-10.63-4.16c-1-.19-2.38-.39-2.85.91a2.12,2.12,0,0,0,1.13,2.79,1.87,1.87,0,0,0,.4.13C749.4,289.43,749.78,291.63,748.77,294.37Zm16.84-5.9c.26.47.32.61.41.74,1.32,1.92,6.11,2.36,4.28,5.06s-3.9-1.36-5.91-2.26c-2.3-1-10.62,2.5-10.69,4.87,0,.46.59,1,1,1.39.92.84,2,1.54,2.86,2.4.65.63,2.51.82,1.38,2.28a2.23,2.23,0,0,1-3.12.43l-.21-.18a16,16,0,0,1-2.2-1.73c-2.27-2.56-3.95-1.42-5.47.79-.88,1.28-1.79,2.55-2.54,3.91-.51.93-1.29,2.05-.62,3.07.81,1.22,2.26.85,3.45.65,5-.83,9.39-3.34,13.61-6,6.36-4,12.17-8.71,16.37-15.11.8-1.22,1.69-2.63.87-3.88s-2.59-.76-3.92-.49a25.62,25.62,0,0,0-9.55,4.06Z"/><path class="cls-13" d="M775.67,312.87c-2.28,0-5.28-1.42-8.29-2.68-.84-.36-2.5-.53-1.7-2.1a2.3,2.3,0,0,1,2.87-1c2.52.81,5,1.77,7.54,2.47,1.14.31,2.7.59,3.17-1,.42-1.43-.58-2.21-1.89-2.74-2.12-.87-3.35-2.34-2.42-4.77a3.21,3.21,0,0,1,3.71-2.21c2.43.42,3.17,2.17,3.09,4.49a9.33,9.33,0,0,0,.59,2.7C783.64,310.68,781.58,313.24,775.67,312.87Z"/><path class="cls-13" d="M767.87,314.13c-1.19,2.32-2.4,5-5.77,5.09s-4.75-2.55-5.88-5.19c-.26-.59.34-1.11,1-1.39,1-.44,1.8-.47,2.32.65,1.92,4,3.58,3,5.18-.24a1.33,1.33,0,0,1,1.66-.86l.23.1C767.29,312.61,768.05,312.87,767.87,314.13Z"/><path class="cls-13" d="M758,282.13c-1-.43-2.25-.76-1.81-1.89,1-2.48,2.18-5,5.29-5.31,3.51-.41,4.82,2.28,6.22,4.72a1.17,1.17,0,0,1-.52,1.56l0,0c-.68.38-1.65.81-2.1,0-2.27-3.85-4.17-3.7-6,.31C758.9,281.89,758.3,282,758,282.13Z"/><path class="cls-12" d="M765.61,288.47a25.57,25.57,0,0,1,9.57-4.07c1.33-.27,3.06-.84,3.92.49s-.07,2.66-.87,3.88c-4.2,6.4-10,11.07-16.37,15.11-4.22,2.67-8.56,5.18-13.61,6-1.19.2-2.64.57-3.45-.65-.67-1,.11-2.14.62-3.07.75-1.36,1.66-2.63,2.54-3.91,1.52-2.21,3.2-3.35,5.47-.79a16,16,0,0,0,2.2,1.73,2.22,2.22,0,0,0,3.15.05A1.7,1.7,0,0,0,759,303c1.13-1.46-.73-1.65-1.38-2.28-.89-.86-1.94-1.56-2.86-2.4-.43-.38-1-.93-1-1.39.07-2.37,8.39-5.9,10.69-4.87,2,.9,4,5.09,5.91,2.26s-3-3.14-4.28-5.06A4.93,4.93,0,0,1,765.61,288.47Z"/><path class="cls-12" d="M748.77,294.37c1-2.74.63-4.94-2.42-6.05a2.14,2.14,0,0,1-1.66-2.52,2.07,2.07,0,0,1,.13-.4c.47-1.3,1.82-1.1,2.85-.91a28,28,0,0,1,10.63,4.16l-8.45,6.68Z"/><path class="cls-16" d="M183.67,384.08c7.68-9,7.66-8.95,18.27-4,2.22,1,4.36,3.58,7.09.73,3.05-3.19,9.21-4.56,6.41-11.12a5.87,5.87,0,0,1-.35-1.37c-1.89-12.38-4.05-9.59,9.35-15.21,2.21-.93,3.79-.59,5.15,1.5,2,3.14,4.44,6.07,6.43,9.24,1.16,1.84,2.39,2.17,4.57,2.15,7.15,0,11-3.35,12.44-10.31.53-2.57.86-6.44,3.75-7,4.24-.84,8.69.37,13,1.37,1.24.29,1.33,1.59,1.47,2.7.25,2,1,4.08.72,6-.81,6.63,1.76,10.17,8.36,12,2.89.78,4.53.76,6.53-1.13,1.81-1.72,4-3,5.69-4.88,3.55-4,6.66-2.93,10.33,0,6.73,5.33,6.84,5.2,3.36,13-.13.29-.21.59-.34.88-3.81,8.23-3.64,9,2.44,15.56a3.64,3.64,0,0,0,3.78,1.12c2.45-.48,4.9-1,7.38-1.31s5.78-2.34,7.54-.15c2.8,3.49,4.27,8,5.25,12.4.31,1.41-1.35,2-2.28,2.72-3,2.29-6,4.45-9.06,6.67-1.54.65-2.68,1.37-2.13,3.49a28.86,28.86,0,0,1,.72,6c.15,3.38,1.59,5.29,5.19,5.09h0a7.83,7.83,0,0,0,4.71,1.84h0c1.88,1.67,5.63,1.18,6.31,3.5,1.29,4.39.14,9-1.34,13.27-1,2.89-4.29,1.87-6.61,2.05-11.06.83-11.07.78-14.36,10.52a1.77,1.77,0,0,0,0,.46c-.4.42-1,.83,0,1.28l-.1.12c2.87,3.66,5.67,7.37,8.64,10.95,1.42,1.72,1.4,3,.17,4.94-6.55,10.27-6.51,10.35-17.74,5.13-3.42-1.59-6.71-3.93-9.66.61-7.29,4.82-6.05,3.1-4,11.12.08.6.17,1.2.25,1.8-.81,3.08,2.07,6.24-.2,9.3-4,.91-7,4-11.3,4.56-1.38.18-2.2.42-2.89-.66a78,78,0,0,0-5.7-7.81c-1.8-2.18-1.61-5.95-6.45-5-5.28,1-10.42,1.66-11,8.28-.26,3-2.59,4.86-3.21,7.58a2.25,2.25,0,0,1-2.55,1.59c-3-.08-5.94.12-8.88-.12-3.19-.26-5.16-1.31-5.22-5.46-.05-3.63-.91-7.32-.78-11,.07-1.81-.94-2.79-2.63-3.37a66.57,66.57,0,0,1-6.39-2.57c-2.92-1.35-4.66-.53-5.34,2.59a6.18,6.18,0,0,0-5,3.28.48.48,0,0,0-.38.31c-2,1.09-4,4.19-5.84,3-4.16-2.79-9.52-4.54-11.33-10.05L198,487.8c5.8-8.39,5.67-8.71.14-16.43-1.78-2.5-3.49-3-6.28-2.28-3.48.85-7.07,1.24-10.62,1.78-1,.16-2.27.62-3-.59-2.24-3.78-4.47-7.77-4.84-12.07-.26-3,3.56-3.92,5.69-5.61,1.82-1.46,3.79-2.75,5.73-4.06A3.49,3.49,0,0,0,186.6,445c-.45-9.5-.71-9.91-9.7-13-1.91-.65-3.8-1.4-5.68-2.17-1-.42-2.21-.86-2.21-2.16,0-4.39.25-8.94,1.93-12.88,1.22-2.86,5.09-1.24,7.74-1.79a22.12,22.12,0,0,1,5.12-.61c3.22.09,4.48-1.34,6.07-4.28,3.14-5.77,2-9.8-2.6-13.73-1.28-1.11-2.07-2.78-3.34-3.92C181.58,388.36,181.93,386.29,183.67,384.08Zm23.27,47.72a45.78,45.78,0,0,0,45.29,46.05c24.94.25,46-20.06,46.25-44.66.29-25.94-19.85-46.82-45.33-47a45.69,45.69,0,0,0-46.21,45.17Z"/><path class="cls-14" d="M206.94,431.8a45.69,45.69,0,0,1,45.8-45.58h.41c25.48.15,45.62,21,45.33,47-.28,24.6-21.31,44.91-46.25,44.66A45.78,45.78,0,0,1,206.94,431.8Zm44.42,13.28c8,0,16-.08,23.94,0,2.65,0,3.52-.85,3.47-3.51-.14-9.22-.18-18.45,0-27.68.08-4-1.79-5.19-5.42-5.17q-22,.11-44.12,0c-3.52,0-5.17,1.34-5.12,5,.11,9.23.15,18.46,0,27.68-.06,3,1,3.74,3.8,3.69C235.71,445,243.53,445.08,251.36,445.08Zm.24,7.58h28.63c2.46,0,4-1.05,4-3.5,0-2.89-2.4-2-3.83-1.91-8.46.65-17-1.4-25.44,1.45-3.67,1.23-7.83-.75-11.74-1.23-7.24-.9-14.67-.27-22-.26-1.27,0-2.62,0-2.64,1.81a3.17,3.17,0,0,0,2.09,3.33,12.19,12.19,0,0,0,3.71.3q13.62,0,27.22,0Z"/><path class="cls-16" d="M251.36,445.08c-7.83,0-15.65-.09-23.48.05-2.78.05-3.86-.72-3.8-3.69.16-9.22.12-18.45,0-27.68-.05-3.65,1.6-5,5.12-5q22.07.09,44.12,0c3.63,0,5.5,1.18,5.42,5.17-.16,9.23-.12,18.46,0,27.68.05,2.66-.82,3.55-3.47,3.51C267.32,445,259.34,445.08,251.36,445.08Zm.08-31.87c-6.43,0-12.86.09-19.28,0-2.5,0-3.68.54-3.61,3.35q.25,10.33,0,20.68c-.06,2.76,1,3.44,3.58,3.42q19.27-.12,38.55,0c2.57,0,3.65-.7,3.59-3.42-.14-6.89-.16-13.79,0-20.67.07-2.78-1-3.44-3.57-3.38C264.29,413.3,257.86,413.21,251.44,413.21Zm24.19,1h-.34v25h.34Zm-47.75.15h-.7V439.5a2.42,2.42,0,0,0,.68-1.73q0-11.68,0-23.38Z"/><path class="cls-16" d="M251.6,452.67H224.38a12.19,12.19,0,0,1-3.71-.3,3.17,3.17,0,0,1-2.09-3.33c0-1.83,1.37-1.81,2.64-1.81,7.36,0,14.79-.64,22,.26,3.91.48,8.07,2.46,11.74,1.23,8.46-2.85,17-.8,25.44-1.45,1.43-.11,3.87-1,3.83,1.91,0,2.45-1.57,3.51-4,3.5C270.69,452.64,261.14,452.66,251.6,452.67Z"/><path class="cls-14" d="M251.44,413.21c6.42,0,12.85.09,19.27,0,2.55-.06,3.64.6,3.57,3.38-.16,6.88-.14,13.78,0,20.67.06,2.72-1,3.44-3.59,3.42q-19.28-.17-38.55,0c-2.55,0-3.64-.66-3.58-3.42q.24-10.33,0-20.68c-.07-2.81,1.11-3.4,3.61-3.35C238.58,413.3,245,413.21,251.44,413.21Z"/><path class="cls-13" d="M227.88,414.39v23.38a2.42,2.42,0,0,1-.68,1.73V414.36Z"/><path class="cls-17" d="M226.77,800.51v1.71c-.8,9.13-.8,9.13-9.77,11.14a10.14,10.14,0,0,0-8,10,2.74,2.74,0,0,0,2,2.84c2.85.27,3.6,2.66,5.1,4.28,3.66,4,2.09,12.13-2.79,14.76-1.08.58-2.15.17-3.2-.1-2-.51-3.91-1-5.86-1.58-3.68-2.5-6.84-2.54-9,1.91-4.05,2.83-3.41,6.24-1.11,9.73a5.6,5.6,0,0,1,.82,2.57c-.1.08-.28.17-.27.24a4.48,4.48,0,0,0,.2.62h0c.85,3.45-.28,5.61-3.57,7.4-6.9,3.76-6.79,4-12.26-1.91a12.2,12.2,0,0,1-1.55-1.74c-2.31-3.79-5.28-4.3-8.89-1.89l-1,.14c-2.26-.18-3.77.45-4.06,3.07a57,57,0,0,1-1.33,6.2l-.15,1c-1.17,1.72-.28,5-3.79,5-4.15,0-8.35.67-12.3-1.23v-1.94c1-3.64-1.34-6.82-1.45-10.32,0-.77-.75-1.24-1.5-1.61-6-2.87-8.67-2.39-13.18,2.41a40.67,40.67,0,0,0-3.21,3.35c-1.64,2.22-3.58,2.65-6,1.5a49.38,49.38,0,0,0-5-3.21,4.12,4.12,0,0,1-2.54-5.14c1.1-3.07,2.18-6.14,3.32-9.18.91-2.43-.08-3.53-2.46-3.77l-.27-.25c-1.39-4.21-3.59-6-8.38-4.16-9.18,3.47-9.27,3.24-14.8-4.36h0c-1.61-3-1.06-5.37,1.8-7.38a31,31,0,0,0,3.85-3.84h0a2.78,2.78,0,0,0,2-1.82h0c1.78-2.19.74-8.08-2-11.25l-1-.11c-1.93-.56-3.84-1.19-5.8-1.67-6.79-1.66-6.46-1.66-6.84-8.48-.26-4.81,1.27-7.27,6.12-7.68,1.84-.16,3.64-.79,5.48-1.09s3.93-.53,3.91-3.08c0-3.24,4-6.33,0-9.78-3.32-2.84-6.86-5.57-9.23-9.4q2.84-4.26,5.65-8.52c4-2.87,7.38.72,11,1.29,2.46.38,4.54,2.39,7-.63s6.34-5.32,3.49-10.17c-.53-.92-.48-2.17-1-3.11-2.7-5.15,0-7.5,4.26-10s7.08-2.24,9.71,1.84a13.27,13.27,0,0,0,2.54,2.75c1.72,1.46,2.41,4.65,5.9,3.14s8.66-.8,8.65-6.94c0-2.13,1-4.24,1.39-6.39A4.18,4.18,0,0,1,151,732h7a1.75,1.75,0,0,0,2,.31l1.93.87c0,.58,0,1.09.74,1.2a.47.47,0,0,0,.05.66l.07,0c-.88.63-.44,1.22.07,1.8a5.31,5.31,0,0,0,.8,3.58l.33,1.75c.28,2.24-.28,5.16,3,5.51,3.58.39,7.23,4.17,10.86-.9,2.12-3,4.29-6.65,8.62-7.39h0c10.1,6.3,10.13,6.31,6.4,17.76-.56,1.74-1.18,3.26.86,4.41,2.74,1.54,3.43,6.44,8.05,4.94,1.78-.58,3.54-1.2,5.35-1.69,6.81-1.85,6.55-1.66,10.36,4.26,2.66,4.15,2.32,7-1.82,9.57a18.62,18.62,0,0,0-2.42,2.19,10,10,0,0,0-1.64,12.91c1.41,2,4,1.23,5.93,2.12,3.15,1.46,7.82,0,9.27,4.73Zm-111.72,3.18a39.64,39.64,0,0,0,39,39.84c21.65.18,39.7-17.48,39.86-39A39.44,39.44,0,0,0,115,803.7Z"/><path class="cls-14" d="M115.05,803.69a39.44,39.44,0,0,1,78.87.83c-.16,21.53-18.21,39.19-39.86,39A39.64,39.64,0,0,1,115.05,803.69Zm60.4-.54a20.45,20.45,0,0,0-20.13-20.77h-.15a20.75,20.75,0,0,0-.55,41.5,20.51,20.51,0,0,0,20.83-20.19v-.54Zm-40.24,17.07c-1.64,1.36-3.65,2.66-4.4,4.86-.3.87,1.26,2.26,2.08,2a8.12,8.12,0,0,0,4.74-4.64c.37-.82-1.08-1.73-2.42-2.22Zm-3.47-6.3c-.62-1.42-1.11-3-2.65-2.18S124.68,812,125,815c.1.93.59,2.4,2.08,1.72,1.65-.8,3.92-.72,4.66-2.8Zm.08-21.85c-.44-1.59-2.57-1.59-4-2.43s-2.41-.21-2.73,1.25c-.71,3.22,2.46,2.45,3.83,3.43s2.19-.32,2.9-2.25Zm50.54-2.65c-1,1.33-3.81.56-4.24,3-.14.82.38,2.62,1.62,2.27,1.84-.52,4.45-.48,4.87-3.12.13-.83-.38-2.13-2.25-2.15ZM143.59,773c-1.07.8-3.06.67-2.22,2.49.71,1.53.43,4,2.68,4.3.86.13,2.88-.12,2.32-2S145.6,774,143.59,773Zm13.08,1.65c-.16-1.33,1.11-3.54-2-3.5-2.17,0-2,1.53-1.91,2.93s-.83,3.63,2.12,3.64c2.46,0,1.73-1.61,1.79-3.05ZM168.36,776c.58-1.9-.67-2.46-1.63-2.53-3-.22-2.36,2.72-3.23,4.28s.67,1.89,1.67,2C168.45,780.23,167,776.75,168.36,776Zm15.38,29.08c1.38-.11,3.06.44,3.11-1.82.06-2.57-1.8-2.07-3.28-2s-3.44-.54-3.31,2,2.16,1.57,3.48,1.81Zm-50-25.48c-1.19.25-2.4,1-2.29,2,.24,2.13,2.09,3.36,3.82,4.22,1,.51,2.31-.84,2.22-1.76-.24-2.18-2.21-3.17-3.79-4.47Zm44.8,44.73c-1.19-1.54-2.33-3.29-4.24-3.9-1-.31-2.42,1.17-2.24,1.82a6,6,0,0,0,4.23,4.23c.9.24,1.6-1.16,2.21-2.16Zm6.19-9.69c-.76-2.1-2.93-2.33-4.71-2.86-1.39-.42-2,1.18-1.88,2,.32,2.55,2.9,2.36,4.59,3,1.37.64,1.49-1,2-2.15Zm-6.43-32.72c-.55-1.2-1.21-2.57-2.3-2.11a6.7,6.7,0,0,0-4,4.17c-.2.71,1.24,2.17,2.22,1.87,1.93-.59,3.14-2.25,4-3.94ZM126,801.2c-1.48.14-3.41-.42-3.22,2.1s2.16,1.64,3.52,1.72,2.93.27,3-1.85c-.07-2.54-2-1.81-3.34-2Z"/><path class="cls-17" d="M175.45,803.15a20.51,20.51,0,0,1-20.29,20.73h-.54a20.75,20.75,0,0,1,.55-41.5A20.45,20.45,0,0,1,175.45,803ZM146.6,791.07c-1.59.89-3.53,2-3.32,3.23.48,2.83,3,4.73,5.36,5.81,1.44.66,3.75-2.29,3.4-2.88C150.64,794.93,148.48,793.08,146.6,791.07Z"/><path class="cls-17" d="M135.21,820.22c1.34.49,2.75,1.4,2.42,2.19a8.12,8.12,0,0,1-4.74,4.64c-.82.29-2.38-1.1-2.08-2C131.56,822.88,133.57,821.58,135.21,820.22Z"/><path class="cls-17" d="M131.74,813.92c-.72,2.07-3,2-4.66,2.76-1.49.68-2-.79-2.08-1.72-.32-3,2.55-2.45,4.09-3.22S131.12,812.5,131.74,813.92Z"/><path class="cls-17" d="M131.82,792.07c-.71,1.94-1.45,3.27-2.87,2.25s-4.54-.21-3.83-3.43c.32-1.46,1.27-2.14,2.73-1.25S131.38,790.48,131.82,792.07Z"/><path class="cls-17" d="M182.36,789.42c1.87,0,2.38,1.32,2.25,2.18-.42,2.64-3,2.6-4.87,3.12-1.24.35-1.76-1.45-1.62-2.27C178.55,790,181.39,790.75,182.36,789.42Z"/><path class="cls-17" d="M143.59,773c2,1,2.25,3.08,2.78,4.83s-1.46,2.09-2.32,2c-2.25-.35-2-2.77-2.68-4.3C140.53,773.69,142.52,773.82,143.59,773Z"/><path class="cls-17" d="M156.67,774.67c-.06,1.44.67,3.07-1.76,3.07-2.95,0-2-2.12-2.12-3.64s-.26-2.91,1.91-2.93C157.78,771.13,156.51,773.34,156.67,774.67Z"/><path class="cls-17" d="M168.36,776c-1.36.76.09,4.24-3.19,3.78-1-.14-2.52-.52-1.67-2s.2-4.5,3.23-4.28C167.69,773.53,168.94,774.09,168.36,776Z"/><path class="cls-17" d="M183.74,805.07c-1.32-.24-3.36.7-3.48-1.83s1.86-2,3.31-2,3.34-.54,3.28,2C186.8,805.51,185.12,805,183.74,805.07Z"/><path class="cls-17" d="M133.7,779.59c1.58,1.3,3.55,2.29,3.75,4.44.09.92-1.19,2.27-2.22,1.76-1.73-.86-3.58-2.09-3.82-4.22C131.3,780.59,132.51,779.84,133.7,779.59Z"/><path class="cls-17" d="M178.5,824.32c-.61,1-1.31,2.4-2.25,2.15a6,6,0,0,1-4.23-4.23c-.18-.65,1.25-2.13,2.24-1.82C176.17,821,177.31,822.78,178.5,824.32Z"/><path class="cls-17" d="M184.69,814.63c-.47,1.17-.59,2.79-2,2.22-1.69-.68-4.27-.49-4.59-3-.11-.86.49-2.46,1.88-2C181.76,812.3,183.93,812.53,184.69,814.63Z"/><path class="cls-17" d="M178.26,781.91c-.9,1.69-2.11,3.35-4,3.93-1,.3-2.42-1.16-2.22-1.87a6.67,6.67,0,0,1,4-4.17C177.05,779.34,177.71,780.71,178.26,781.91Z"/><path class="cls-17" d="M125.94,801.19c1.34.17,3.27-.56,3.25,2,0,2.12-1.61,1.93-3,1.85s-3.33.74-3.52-1.72S124.46,801.33,125.94,801.19Z"/><path class="cls-14" d="M146.6,791.07c1.88,2,4,3.86,5.44,6.16.35.59-2,3.54-3.4,2.88-2.39-1.08-4.88-3-5.36-5.81C143.07,793.08,145,792,146.6,791.07Z"/><path class="cls-18" d="M760.83,367c2.57-2.79,5.08-2.86,7.88-.15,2.52,2.44,6.19,4.22,3.18,8.66-.87,1.28-1.4,2.79-2.2,4.13-1.15,1.93-2.24,3.62-.22,5.85s2.82,5.81,7,4.61c1.19-.34,2.54-.11,3.71-.47,4.27-1.27,6.24.28,7.92,4.46,1.9,4.72.81,7.38-3.5,9.11-4.76,1.91-6.41,5.14-5.31,10.16.36,1.65.5,2.82,2.4,3.39,2.23.68,4.26,2,6.48,2.7,2.79.92,3.26,2.5,2.8,5.32-1.17,7.28-1,7.18-8.41,8-2.8.3-6-.82-7.84,3.31-1.75,3.86-1.55,6.35,1.14,9.52,5,5.91,4.5,8.26-1.54,13.19a2.73,2.73,0,0,1-3.35.5c-1.55-.75-3.13-1.43-4.69-2.13-3.29-2.1-6.19-2.74-9.82.09a5.56,5.56,0,0,0-2.37,5.83c1.14,9.11,1.16,9.11-6.63,12.66l-3.62-.29c-2.8-2.68-3.48-6.87-6.63-9.3h0c-.7-1.3-1.39-1.11-2.07,0-2.16.66-4.52-.94-6.59.63l-.74,1.28-1.15,2.75c-1.72,1.5-1,3.77-1.81,5.58-3.71,2.83-7.48-.32-11.21.13-4.43-1.48-1-5.11-2.06-7.5.25-6.12-1.22-8-7-9.47a3.23,3.23,0,0,0-3,.77c-1.11.85-2.22,1.72-3.34,2.57-5.16,3.89-10.06,2.85-13.21-2.71a2.44,2.44,0,0,1,.07-2.6c.92-1.81,1.8-3.64,2.66-5.48,1-2.13,3-3.9.85-6.72s-4.15-5.86-8.53-4.58a10.86,10.86,0,0,1-1.4.11c-8,1.2-8.52.81-10.07-7.07-.46-2.37,0-4.16,2.45-5.19a21.76,21.76,0,0,0,3.51-2.08c3.41-2.27,5.28-7.76,3.29-11.1-1.3-2.16-4.2-2.6-6.53-3.24-3.68-1-5.62-2.81-4.63-6.81a4.24,4.24,0,0,0,.7-3.11l1-2.89c2-.64,4.72,1.23,6.14-1.65,2.41,0,5,1.1,7.13-.86,3.9-6.74,3.83-6.69-.64-12.76-1.22-1.66-3.82-3.31-2.73-5.5a15.62,15.62,0,0,1,6.47-7.19c2.12-1.07,4.32.95,5.89,2.14,4.28,3.23,7.83,2.54,11.56-.75,1.15-1,2.07-1.72,1.56-3.43a20.9,20.9,0,0,1-.54-3.7c-.8-7.56.46-9.06,8.16-10.5a2.59,2.59,0,0,1,3.09,1.31,23.94,23.94,0,0,1,2.52,3.94c1.86,4.87,5.26,5.78,10,4.66a4,4,0,0,0,3.34-2.7c.6-1.61,1.33-3.16,2-4.73,1.87-4.3,9.68-6.11,12.56-2.54,1.84,2.28,1.3,5.66,1.3,8.6,0,2.59.51,4.21,3.2,5.9C754.74,372.91,757.57,369.91,760.83,367Zm-66,48.07a34.24,34.24,0,1,0,34.72-33.75h0c-19.28-.16-34.6,14.75-34.67,33.74Z"/><path class="cls-14" d="M694.83,415.06c.07-19,15.39-33.9,34.67-33.75a34.13,34.13,0,1,1-34.67,33.75Zm56.41-8.3c-2.13-.41-4.27-.95-6.34.26-.75,7.8-.43,15.61-.16,23.41,2,1.87,4.36.63,6.56.72,1-.19,1.08-1,1.08-1.75v-21C752.41,407.56,752.27,406.85,751.24,406.76Zm-45.11-7.13c-1,.13-1.1.91-1.1,1.68V424c0,.79.11,1.55,1.11,1.69H740c1.56-.43,1-1.74,1-2.71q.07-10.29,0-20.57c0-1,.52-2.28-1-2.72Zm24.23,31.52a9.36,9.36,0,0,0-13.13-1.69,9.65,9.65,0,0,0-1.69,1.69Z"/><path class="cls-16" d="M740,425.62H706.15v-26H740Zm-17-22.53v.37c-4.68,0-10.93-1.83-13.63.48-3.15,2.69-.7,9.12-1,13.91v1.41c-.25,2.3.9,3,3,2.95,7.83-.08,15.67,0,23.5,0,1.81,0,3.08-.36,3-2.56-.27-5.29,2-11.69-.91-15.54-2.34-3.11-8.81-.63-13.44-1Z"/><path class="cls-16" d="M744.9,407c2.07-1.21,4.21-.67,6.34-.26l.06,24.39c-2.2-.09-4.56,1.15-6.56-.72C746.34,422.64,746,414.83,744.9,407Zm3.59,11c.85-2.63,1.56-5.27-.37-8.54-.76,3.45-.84,6,.37,8.54Z"/><path class="cls-13" d="M740,425.62v-26c1.55.44,1,1.75,1,2.72q.07,10.28,0,20.57C741,423.88,741.55,425.19,740,425.62Z"/><path class="cls-13" d="M706.13,399.63v26c-1-.14-1.11-.9-1.11-1.69V401.3C705,400.54,705.11,399.76,706.13,399.63Z"/><path class="cls-13" d="M751.3,431.15l-.06-24.39c1,.09,1.17.8,1.17,1.63v21C752.38,430.19,752.3,431,751.3,431.15Z"/><path class="cls-13" d="M744.9,407c1.11,7.81,1.44,15.62-.16,23.41C744.47,422.63,744.15,414.82,744.9,407Z"/><path class="cls-19" d="M723,403.09h.47c4.63.37,11.1-2.11,13.44,1,2.89,3.85.64,10.25.91,15.54.12,2.2-1.15,2.57-3,2.56-7.83,0-15.67-.06-23.5,0-2.15,0-3.3-.65-3-2.95v-1.41c.35-4.79-2.1-11.22,1-13.91,2.7-2.31,9-.48,13.63-.48Z"/><path class="cls-12" d="M748.49,418c-1.21-2.55-1.13-5.12-.37-8.54C750.05,412.76,749.34,415.4,748.49,418Z"/><path class="cls-20" d="M115.88,590.76a5.73,5.73,0,0,0-.32-1.36c-4.19-7.82-4.16-8.72,2.91-13.39,3.82-2.52,6.23-4.81,4.9-10.09-.77-3-1.51-4.68-4.58-5.27-1.82-.35-3.49-1.39-5.29-1.87-3.43-.92-4.59-2.63-4-6.43,1.29-7.82,1-7.86,9.13-8.69,6.57-.67,8.55-2.46,9.92-8.72a3,3,0,0,0-1-2.9,41.83,41.83,0,0,1-2.73-3.22c-5.41-6.57-5.18-9.05,1.24-14.79,1-.93,1.93-1.4,3.31-.72,1.82.9,3.9,1.36,5.57,2.46,4,2.62,7.09,2.3,10.68-1.08,2.12-2,3.22-3.49,2.2-6.26a13.07,13.07,0,0,1-.42-2.78c-1.13-8-1-7.77,6.65-11.27,3.3-1.5,4.84-.52,6.42,2,.74,1.2,1.6,2.32,2.43,3.46,3.61,5,5.71,5.63,11.78,3.89a2.93,2.93,0,0,0,2.25-2.07c.45-1.33.94-2.65,1.44-4,3.2-8.38,3.17-8.21,12.1-6.84,3,.46,4.05,1.56,4,4.42,0,2,.77,4.09.52,6.06-.51,4,2,5.18,5,6.59,3.45,1.6,6.15,1.52,8.57-1.53a7.1,7.1,0,0,1,1.08-.89c6.37-5.31,9.15-5,14.8,1.32a3,3,0,0,1,.5,3.8c-1.07,2.25-1.78,4.71-3.08,6.82-1.78,2.86-1,4.78.72,7.52,2.65,4.19,5.67,4.41,9.87,3.33,2.6-.67,6.09-2.63,8-.48,2.27,2.55,3.15,6.35,4.51,9.67.54,1.3-.61,2-1.49,2.6a42,42,0,0,1-5.73,4c-3.53,1.77-4,4.29-3.65,8,.41,3.88,2,5.88,5.64,6.74,1.82.43,3.49,1.42,5.31,1.85,2.65.62,3.65,2.14,3.21,4.75a7.5,7.5,0,0,1-.09.93c-1.45,10.16,0,8-9.2,9.23-6.42.84-8.44,2.32-9.8,8.46a3.06,3.06,0,0,0,.87,3c1.76,2,3.54,3.91,5.32,5.86,3.9,3.25.78,6.18-.76,8.75-3,4.94-4.37,5.13-9.8,2.68a19.29,19.29,0,0,1-3-1.36c-3.33-2.25-5.91-1.62-9.11.88-3,2.3-3.87,4.37-2.89,7.79a62.41,62.41,0,0,1,1.26,6.9c.21,1.24.33,2.3-.94,3.3-6,4.77-10.76,4.15-15.16-2.15-.8-1.15-1.61-2.29-2.38-3.47a3.47,3.47,0,0,0-2.07-1.74,9.74,9.74,0,0,0-11,6.21c-.34,1-.6,2.08-.89,3.13-3.15,6.26-3.76,6.51-11,4.6a4.83,4.83,0,0,0-1.37,0c-2.64.18-3.87-1.67-3.51-3.65.63-3.46-.85-6.47-1.1-9.69-.21-2.75-1.67-2.88-3.68-2.7-.89-1.61-2.44-.75-3.7-1-2.12-2.12-3.5-.32-5,.94l-1.92,1.83c-3.81,4.25-7.94,4.24-12.23.79a43.51,43.51,0,0,1-3.59-3.48c-1-2.37,2.2-3.42,1.75-5.6,1.59-1.47.21-4.27,1.46-5.15,4.13-2.88.89-4.5-.41-7-2.62-5-6.4-3.23-10.27-2.62C121.42,591.62,118.46,593.82,115.88,590.76Zm62.71,6.84A38.1,38.1,0,0,0,217,560.08c.2-21-17-38.58-37.87-38.67s-38.21,16.9-38.33,37.64a37.91,37.91,0,0,0,37.28,38.54Z"/><path class="cls-21" d="M178.59,597.6a37.93,37.93,0,0,1-37.8-38c0-.17,0-.34,0-.51.12-20.74,17.42-37.72,38.33-37.64S217.2,539,217,560.08A38.1,38.1,0,0,1,178.59,597.6ZM158.8,573h0l1.36.86.27-.08.22.17c.25.5.55.62.94.13l3.77-.08c-1.08,2.92-4.45,1-6.37,2.74,1.38,1.52,2.28,3.17,4.5,2.85,4.49-.18,8.3-2.32,12.15-4.29,1.79-.91,3.36-1.73,4.8.41a2.1,2.1,0,0,1-1,2c-3.88-.33-6.61,2.53-10,3.59-1.14.35-2.89.5-2.28,2.23.72,2,2.48,1.07,3.51.35,5.88-4.14,11.14-2.07,16.33,1.36.25.48.44,1.32.77,1.37,1,.17,1-.76,1.07-1.46h0c4.93-3.68,8.64-8,7.56-14.74,3.91-1,6.34-3.43,6.48-7.51.16-4.39-2.52-6.79-6.48-8,1.13-1.76,3.64-3.44.26-5.41-1.42-5.19-3.82-9.55-9.41-11.26-1.81,0-2.52-1.55-3.67-2.47-3.32-2.65-6.91-2.49-9.8.52l-1.84,1H170c-3.82-.28-5.64,2.88-8.19,4.78q-5.26-.74-2.26,3.64l1.12,1.16c.65,1.9,2.67.79,3.76,1.72a7,7,0,0,1-2.92,3.42c-1,.8-3.71.9-2.25,3,1.08,1.55,2.79.09,4.12-.55a17.4,17.4,0,0,0,1.92-1.23,2,2,0,0,1,1,1.92h0c-3.8,1.23.19,2.51,0,3.76-3.87-.56-7.45-.44-9.8,3.46-2.22,3.69-1,6.81,1.38,9.82Zm19.27,14.2a8,8,0,0,0,1.32.48c1.31.25,3.08,2.32,3.8-.22.59-2.09-1.93-2-3.14-2.72a3.71,3.71,0,0,0-4,0c-1.21.71-3.69.72-2.9,2.85.72,1.9,2.35.46,3.58,0a8,8,0,0,1,1.34-.38Z"/><path class="cls-12" d="M170,537.32h1.94l.1.13c-.4,1.16-.81,2.32-1.2,3.48a7.18,7.18,0,0,0,2.24,8,7.28,7.28,0,0,0,8.66,1.16c3.74-1.89,5.09-5.76,3.42-9.83-1.81-4.38-5.61-5.66-11.25-3.79l-.13-.13c2.89-3,6.48-3.17,9.8-.52,1.15.92,1.86,2.52,3.67,2.47.75,4.73,6.13,7,6.38,12,.06,1.14.43,2.26,1.87,2.12,2.12-.19.8-1.91,1.16-2.89,3.38,2,.87,3.65-.26,5.41-5.86.49-9,3.21-9,7.77s3.2,7.27,9,7.74c1.08,6.76-2.63,11.06-7.56,14.74,1-2-.28-2.74-1.81-3.41-2.63-1.15-5.38-2.08-7.59-4a2.1,2.1,0,0,0,1-2c3.34,1.44,5.93,4.38,9.77,4.8.89.1,2,.46,2.32-.8.3-1.08-.3-1.6-1.35-2a42.57,42.57,0,0,1-10.54-5.93,3.59,3.59,0,0,0-4.37-.2c-3.33,2.1-7,3.32-10.68,4.68-1.6.59-3,1.23-2.1,3.33-2.22.32-3.12-1.33-4.5-2.85,1.92-1.78,5.29.18,6.37-2.74,7.23-4.55,7.55-9.72.94-15.07.21-1.25-3.78-2.53,0-3.76.27,2.71,2,2.53,3.41,1.3s3.22-2.71,2.31-5c-.41-1-1.53-1.48-2.41,0s-1.46,3.11-3.3,3.64a2,2,0,0,0-1-1.92c.58-2.74,4.83-4.52,2.26-8.59l-3.13,3.93c-1.09-.93-3.11.18-3.76-1.72C164.8,544.7,167.61,541.22,170,537.32Zm3.49,32c5.57-3.64,9.63-7.94,11.46-14,.33-1.07.81-2.81-.57-3.29s-2,.87-2.34,2.23c-.87,4-3.32,7-6.25,9.62-1.41,1.23-2.79,2.42-2.3,5.43Zm21.9,5.28c-.26-.33-.54-1-1-1.17a19.53,19.53,0,0,1-10.12-7,1.29,1.29,0,0,0-1.79-.33,1.24,1.24,0,0,0-.21.18c-.74.68-.39,1.34-.07,2.08,1.25,2.84,8.4,7.64,11.33,7.54.71-.08,1.55,0,1.86-1.31Zm-22.3-12.86c1.35,0,5.93-6.26,5.51-7.51a1.27,1.27,0,0,0-1.55-.88,1.36,1.36,0,0,0-.3.13,21.68,21.68,0,0,0-5.05,6.8c-.24.45.4,1.44,1.39,1.45Zm15.43-15.35c-.85,1.55-.89,6.88,0,7.51a1.11,1.11,0,0,0,1.55-.16l.06-.09c1.89-2.49.34-4.58-.88-6.68a2.82,2.82,0,0,0-.73-.59Z"/><path class="cls-11" d="M166.31,559c6.61,5.35,6.29,10.52-.94,15.07l-3.77.08-.94-.13-.22-.17-.27.07-1.36-.85h0l-.91-.77c-2.38-3-3.6-6.13-1.38-9.82C158.86,558.52,162.44,558.4,166.31,559ZM163,570.21c2.45-.17,3.86-1.56,3.89-3.84s-1.35-3.72-3.82-3.74-3.45,1.44-3.59,3.48C159.34,568.46,160.73,569.81,163,570.21Z"/><path class="cls-11" d="M196.4,570.46c-5.84-.47-9.06-3.22-9-7.74s3.18-7.28,9-7.77c4,1.21,6.64,3.61,6.48,8C202.74,567,200.31,569.46,196.4,570.46Zm2.6-7.66c-.31-2.24-1.33-3.83-3.83-3.85a3.39,3.39,0,0,0-3.68,3.06c0,.12,0,.24,0,.36-.15,2.31.93,4,3.45,4.09S198.61,565.1,199,562.8Z"/><path class="cls-13" d="M163.5,579.62c-.86-2.1.5-2.74,2.1-3.33,3.65-1.36,7.35-2.58,10.68-4.68a3.59,3.59,0,0,1,4.37.2,42.57,42.57,0,0,0,10.54,5.93c1.05.4,1.65.92,1.35,2-.36,1.26-1.43.9-2.32.8-3.84-.42-6.43-3.36-9.77-4.8-1.44-2.14-3-1.32-4.8-.41C171.8,577.3,168,579.44,163.5,579.62Z"/><path class="cls-13" d="M179.44,577.76c2.21,2,5,2.88,7.59,4,1.53.67,2.79,1.43,1.81,3.41h0l-1.84.09c-5.19-3.43-10.45-5.5-16.33-1.36-1,.72-2.79,1.68-3.51-.35-.61-1.73,1.14-1.88,2.28-2.23C172.83,580.29,175.56,577.43,179.44,577.76Z"/><path class="cls-13" d="M196.66,549.54c-.36,1,1,2.7-1.16,2.89-1.44.14-1.81-1-1.87-2.12-.25-5-5.63-7.3-6.38-12C192.84,540,195.24,544.35,196.66,549.54Z"/><path class="cls-13" d="M164.43,548.62l3.13-3.93c2.57,4.07-1.68,5.85-2.26,8.59a17.4,17.4,0,0,1-1.92,1.23c-1.33.64-3,2.1-4.12.55-1.46-2.12,1.22-2.22,2.25-3A7.07,7.07,0,0,0,164.43,548.62Z"/><path class="cls-13" d="M170,537.32c-2.39,3.9-5.2,7.38-9.33,9.58l-1.12-1.16c.75-1.21,1.5-2.43,2.26-3.64C164.36,540.2,166.18,537,170,537.32Z"/><path class="cls-13" d="M178.07,587.21c-.46.12-.93.19-1.36.35-1.23.46-2.86,1.9-3.58,0-.79-2.13,1.69-2.14,2.9-2.85a3.71,3.71,0,0,1,4,0c1.21.75,3.73.63,3.14,2.72-.72,2.54-2.49.47-3.8.22A8.65,8.65,0,0,1,178.07,587.21Z"/><path class="cls-12" d="M187,585.29l1.84-.09c-.09.7,0,1.63-1.07,1.46C187.44,586.61,187.25,585.77,187,585.29Z"/><path class="cls-12" d="M171.94,537.28c.61-.32,1.22-.64,1.84-.95l.13.13c-.36.84-1.15.83-1.87.95Z"/><path class="cls-11" d="M172,537.41c.72-.12,1.51-.11,1.87-.95,5.64-1.87,9.44-.59,11.25,3.79,1.67,4.07.32,7.94-3.42,9.83a7.28,7.28,0,0,1-8.66-1.16,7.18,7.18,0,0,1-2.24-8C171.23,539.73,171.64,538.57,172,537.41Zm6.23,2c-2.31.29-3.74,1.53-3.72,3.91a3.38,3.38,0,0,0,3.14,3.62H178a3.51,3.51,0,0,0,4-3,3.12,3.12,0,0,0,0-.61c.11-2.36-1.35-3.68-3.69-4Z"/><path class="cls-13" d="M173.49,569.31c-.51-3,.89-4.2,2.3-5.48,2.93-2.64,5.38-5.64,6.25-9.62.29-1.36.94-2.71,2.34-2.23s.9,2.22.57,3.29C183.12,561.37,179.06,565.67,173.49,569.31Z"/><path class="cls-13" d="M195.39,574.59c-.31,1.29-1.15,1.23-1.9,1.26-2.93.1-10.08-4.7-11.33-7.54-.32-.74-.67-1.4.07-2.08a1.29,1.29,0,0,1,1.82-.06,1.68,1.68,0,0,1,.18.21,19.53,19.53,0,0,0,10.12,7C194.85,573.57,195.13,574.26,195.39,574.59Z"/><path class="cls-13" d="M173.09,561.73c-1,0-1.63-1-1.39-1.46a21.68,21.68,0,0,1,5.05-6.8,1.26,1.26,0,0,1,1.72.45,1.3,1.3,0,0,1,.13.3C179,555.47,174.44,561.71,173.09,561.73Z"/><path class="cls-13" d="M166.34,555.2c1.84-.53,2.46-2.21,3.3-3.64s2-1,2.41,0c.91,2.25-1,3.75-2.31,5s-3.14,1.41-3.41-1.3Z"/><path class="cls-13" d="M188.53,546.38c.24.19.55.33.69.58,1.22,2.1,2.77,4.19.88,6.68a1.09,1.09,0,0,1-1.52.31l-.09-.06C187.63,553.26,187.67,547.93,188.53,546.38Z"/><path class="cls-12" d="M163,570.21c-2.28-.4-3.67-1.75-3.52-4.1a3.37,3.37,0,0,1,3.59-3.48,3.5,3.5,0,0,1,3.82,3.74C166.85,568.69,165.46,570,163,570.21Z"/><path class="cls-12" d="M199,562.8c-.42,2.3-1.59,3.8-4.07,3.66s-3.6-1.78-3.45-4.09a3.39,3.39,0,0,1,3.37-3.39l.35,0C197.7,559,198.72,560.56,199,562.8Z"/><path class="cls-12" d="M178.27,539.38c2.34.3,3.8,1.63,3.72,4A3.51,3.51,0,0,1,178.6,547a3.08,3.08,0,0,1-.61,0,3.39,3.39,0,0,1-3.46-3.32c0-.1,0-.21,0-.31C174.53,540.91,176,539.67,178.27,539.38Z"/><path class="cls-13" d="M396.61,159.17c2.43,2.28,5.83,2.65,8.6,4.3,1.61,1,3.17-.4,4.07-1.36a33.13,33.13,0,0,1,5.06-3.93c6-4.4,6-4.4,11.67.67s5.54,5,2,11.75c-.29.56-.62,1.09-.91,1.64-3.28,6.17-2.6,10,2.44,14.92,1.29,1.25,2.56.58,3.91.58,4.73,0,9.38-2.41,14.17-.45a4.76,4.76,0,0,0,.14.92c5.2,14.27,6.33,10.39-6.17,18.43-2.67,1.72-3.52,3.35-3.64,6.6-.2,5.74,1.79,8.94,7.42,10.26,2.68.64,5.16,2.1,7.74,3.19,2,4.92-.63,9.37-1.44,14-.25,1.38-1.68,1.14-2.74,1.23-2.18.18-4.4.69-6.53.43-5.78-.7-9.08,1.52-11,7.12-.89,2.63-1.66,4.52.62,6.58a14.21,14.21,0,0,1,1.7,2.24c7.07,9.31,6.95,10.09-1.93,18-1.3,1.15-2.23,1.3-3.68.49-2-1.14-4.42-1.78-6.23-3.18-4.46-3.45-8.1-3.21-12.56.51-2.71,2.25-3.55,4-3.07,7.31.62,4.23,2.11,8.48.66,12.84-1.35.16-2.78.12-3.66,1.47a8.9,8.9,0,0,0-4.72,1.62l-1.88.32-1.89.65a2,2,0,0,0-.87-.11c-1.57-2.33-3.45-4.52-4.64-7-2.45-5.17-5.56-7.9-11.89-6.39-2.89.68-4.58,1.18-5.71,4.12-1.64,4.25-3.16,8.64-6,12.31L355.57,299c-2.73-.53-3.77-2.32-3.78-4.95a35.42,35.42,0,0,1-.16-5.15c.82-5.75-1.15-9.2-7-11-2.82-.87-4.73-1.56-7.05.73-1.75,1.74-4.09,2.89-5.94,4.56-2.88,2.62-5.16,2.69-8.33,0-7.4-6.31-7.56-6.12-2.87-15,3.3-6.28,2.63-10.06-2.46-14.92a3.14,3.14,0,0,0-3-.73c-2.33.31-4.66.64-7,.81-2.56.2-5.78,2-7.55-.23-2.59-3.3-3.48-7.63-4.42-11.75-.3-1.31.93-1.89,1.8-2.48a48,48,0,0,1,6.71-4.29c4-1.87,5.24-4.35,4.86-9s-2.12-6.49-6.17-8.28c-12.73-5.61-10.18-1.44-8-15.65.34-2.19,1.37-3.21,3.73-3.19,2.65,0,5.33-.71,7.95-.48,4.31.38,6.34-1.23,8.44-5.21,2.41-4.54,1.52-7.37-1.51-10.57-1.58-1.67-3-3.49-4.5-5.24-2.41-3.55.35-5.7,2.23-8,5.25-6.52,5.27-6.5,12.68-2.77l1.27.61c6.84,3.55,9.69,3.09,15.18-2.22a2.84,2.84,0,0,0,.83-2.92c-.25-1.37-.39-2.77-.54-4.17-1.34-12.51-3.32-9.62,9.59-14.61,2.24-.87,3.5-.12,4.61,1.67.9,1.46,1.89,2.85,2.78,4.31,5,8.06,5,8,14.14,6.64,1.2-.18,2-.44,2.49-1.64,1.26-3.13,3.19-6,3.31-9.56,1.8-4.42,5.37-4.39,9.2-3.62,2.73.55,5.44,1.19,8.16,1.78C396.35,147.93,395.21,153.65,396.61,159.17Zm-66.85,61.36a44.08,44.08,0,1,0,43.69-44.46h-.34c-24,.24-43.59,20.33-43.35,44.46Z"/><path class="cls-19" d="M329.76,220.53c-.24-24.13,19.35-44.22,43.35-44.46A44.12,44.12,0,1,1,329.77,221C329.76,220.81,329.76,220.67,329.76,220.53Zm13.46-17a5.29,5.29,0,0,0-.79-.17c-.08,0-.24.2-.24.31V231.8c0,3,2.21,2.49,4,2.49H393.8c-3.87-.92-7.75-.86-11.62-.93-12.33-.23-24.67.54-37-.39,1.87-.11,3.74-.3,5.6-.3h40.85c2.18,0,4,.11,3.91-3-.17-7.82-.11-15.64,0-23.46,0-2.24-.77-3-3-3-16.46.13-32.89.2-49.32.3Zm55.22,14.54v3.27c0,1.64-.48,3.6,2.35,3.46,2.25-.12,3.52-1,3.46-3.38s0-4.68,0-7-1.29-2.83-3.29-2.94c-2.22-.13-2.64,1-2.53,2.86.07,1.21,0,2.46,0,3.71Z"/><path class="cls-13" d="M343.22,203.51c16.43-.1,32.86-.17,49.28-.33,2.23,0,3,.74,3,3-.09,7.82-.15,15.64,0,23.46.06,3.16-1.73,3-3.91,3q-20.41-.06-40.85,0c-1.86,0-3.73.19-5.6.3-2.45-.54-1.91-2.53-1.92-4.15C343.2,220.38,343.22,212,343.22,203.51Zm38.64,18.14L382,221l-14.89-10.51c-.57,6.93-.57,6.91-6.41,5.25-1.18-.34-2.41-.53-3.61-.79l-.21.61c4.91,3.26,9.81,6.53,15.06,10,.32-6.32.32-6.31,5.83-4.82C379.14,221.09,380.5,221.35,381.86,221.65Z"/><path class="cls-13" d="M398.44,218.05c0-1.25.06-2.5,0-3.74-.11-1.85.31-3,2.53-2.86,2,.11,3.33.65,3.29,2.94s-.05,4.67,0,7-1.21,3.26-3.46,3.38c-2.83.14-2.31-1.82-2.35-3.46C398.42,220.23,398.44,219.14,398.44,218.05Z"/><path class="cls-12" d="M381.86,221.65c-1.36-.3-2.72-.56-4.06-.92-5.51-1.49-5.51-1.5-5.83,4.82-5.25-3.5-10.15-6.77-15.06-10l.21-.61c1.2.26,2.43.45,3.61.79,5.84,1.66,5.84,1.68,6.41-5.25L382,221Z"/><path class="cls-11" d="M200.71,650.89c.15.28.32.54.46.82,4.3,8.76,4.39,8.9-3.48,14.23-2.56,1.73-2.95,3.56-2.48,6.27s.6,5.34,4.15,5.72a7.84,7.84,0,0,1,1.76.62c7,2.63,7.39,3.47,5.52,11-.46,1.84-1.13,2.7-3,2.77s-3.79.72-5.59.46c-4.67-.66-5,3.08-6.54,5.8s.37,4.31,1.87,6c.4.48.85.92,1.25,1.4,3.78,4.49,3,9.24-2,12.58a2.85,2.85,0,0,1-3,0A60.3,60.3,0,0,1,184,716.1c-2.2-1.18-4-1.92-6.26.3-2,2-5.27,3-3.57,7,.6,1.4.43,3.11.85,4.6.88,3.16-.43,4.49-3.27,6-4.73,2.57-7.78,1.81-10.12-2.87-1.82-3.64-4-5.61-8.81-4.44-3.13.77-3.73,2.47-4.85,4.74-1.23,2.51-.38,6.46-4.87,7-7.66.89-8.5.26-9.61-7.25-.39-2.59.65-5.47-3.3-7.36-4.64-2.23-7.36-.75-10.09,2.3-3.24,3.6-5.84,3.26-9.76.38-4.28-3.14-2.68-5.8-1.19-9.13,1.18-2.65,3.4-4.85.68-8.41s-5.24-4-9.13-3c-6.14,1.48-9.85-1.59-10.37-7.83-.13-1.45.72-2,1.53-2.61,1.6-1.25,3.26-2.43,4.94-3.58,2-1.34,3.8-2.39,2.9-5.53-.84-2.92-.36-6.38-4.69-6.8a7.88,7.88,0,0,1-1.79-.54c-6-2.18-7.44-5.7-5-11.72.93-2.26,2.5-1.26,3.91-1.34,8.07-.46,9.35-1.51,11.06-6.71.67-2,.85-3.54-.79-5a2.59,2.59,0,0,1-.31-.35c-5.68-7-5.68-7-.85-14.13,4.11-2.86,7,1,10.14,2.19a5.36,5.36,0,0,0,5.8-.68c3.37-2.25,4.28-4.67,3.23-8.61-.87-3.26-2.66-7,2.82-9.12,4.58-1.82,7.59-1.91,9.76,2.85,2,4.29,4.94,5.56,9.74,4.4s3.86-5.22,5.1-8,2.4-4.17,5.73-3.85c7.09.68,7.44.56,7.53,7.69.06,4.34,1.46,6.79,5.76,8.16,2.31.73,3.65.56,5.3-.93,2.2-2,4.56-3.8,6.84-5.69l2.89,1.15.92.72c1.56,1.89,4.44,2.56,5,5.36a54.52,54.52,0,0,1-3.12,6.66c-1.92,3-1.5,5.4,1.36,7.44,2.11,5.4,5.85,2.17,9.06,1.7l1.76-.24,2.84-.21A3.12,3.12,0,0,0,200.71,650.89Zm-20.5,27.73A32.54,32.54,0,0,0,147.75,646h-.46a32.89,32.89,0,1,0,32.92,32.86v-.24Z"/><path class="cls-12" d="M180.21,678.62a32.38,32.38,0,1,1,0-.43Zm-32.43,12.86a18,18,0,1,0-.16,0Zm11.6,10c1.94.1,3.06-.76,3.38-2.26.49-2.29-4.9-6.9-7.07-6.06a21.38,21.38,0,0,1-16.38-.07c-3.75-1.53-4,2.49-5.9,3.83a2.23,2.23,0,0,0-.68,3.08l.18.24c1.68,2.24,3.64,1.1,5.47.33a22.78,22.78,0,0,1,18.61.06,19.72,19.72,0,0,0,2.39.9Z"/><path class="cls-11" d="M147.78,691.48a17.83,17.83,0,1,1,17.63-18.15A17.83,17.83,0,0,1,147.78,691.48Zm-.24-9.51a8.32,8.32,0,1,0-8.15-8.45,8.12,8.12,0,0,0,7.75,8.47h.4Z"/><path class="cls-11" d="M159.38,701.53c-.63-.22-1.54-.48-2.39-.85a22.78,22.78,0,0,0-18.61-.06c-1.83.77-3.79,1.91-5.47-.33a2.22,2.22,0,0,1,.26-3.14l.24-.18c1.91-1.34,2.15-5.36,5.9-3.83a21.38,21.38,0,0,0,16.38.07c2.17-.84,7.56,3.77,7.07,6.06C162.44,700.77,161.32,701.63,159.38,701.53Z"/><path class="cls-12" d="M147.54,682a8.13,8.13,0,0,1-8.17-8.07c0-.13,0-.25,0-.38a8.2,8.2,0,0,1,16.39-.51,5.42,5.42,0,0,1,0,.57,8.18,8.18,0,0,1-8,8.39Zm.17-12.18c-2.4.2-3.87,1.49-3.89,3.79a3.42,3.42,0,0,0,3,3.79,3.28,3.28,0,0,0,.7,0,3.47,3.47,0,0,0,3.84-3.07,3,3,0,0,0,0-.6c.07-2.28-1.38-3.66-3.67-4Z"/><path class="cls-11" d="M147.71,669.79c2.28.29,3.74,1.67,3.67,3.92a3.48,3.48,0,0,1-3.26,3.69,4,4,0,0,1-.6,0,3.42,3.42,0,0,1-3.71-3.1,3.27,3.27,0,0,1,0-.7C143.84,671.28,145.31,670,147.71,669.79Z"/><path class="cls-22" d="M872.77,579.3l1.8-1.27c2-2.21,6.33-2.18,6.3-6.47s-1.79-6.92-6.3-7.24l-.28-.21H874c-3.6-1.08-4.7-3.4-3.64-7A28.67,28.67,0,0,0,871,553l-.06.07c2.94-.38,5.88-.74,8.81-1.14,3.35-.46,5.37-5.61,3.43-8.72-.64-.88-1.24-1.79-1.92-2.64-3.29-4.1-2.87-7.71,1.52-10.65,2.83-1.89,5,.73,7.21,1.79,2.6,1.27,4.21,1,6.62-.59,3.08-2.07,2.7-4.4,2.12-7.24-1.22-6,.32-8.17,6.35-9.1,3.37-.51,4,2.72,5,4.58,1.91,3.44,4.27,3.56,7.73,3.11,4.1-.53,3.78-3.87,4.49-6.18,1.16-3.8,3-4.51,6.83-4.08s4.74,2.06,5.1,5.55c.25,2.4-1,5.48,2.73,7.21s6.12,1.06,8.93-1.65c3.69-3.54,8.4-2.71,10.89,1.63,1.33,2.32-.57,4.27-1.57,6-1.93,3.31-1.44,5.63.9,8.67s5,1.36,7.12.82c4.16-1,5.91.13,7.66,4.06,1.94,4.34-.73,5.45-3.16,7.35-1.79,1.42-4.34,1.89-4.15,5.45.22,4.23,2,6,5.84,7,2.54.64,5.32,1,5,5.3-.37,4.89-2.2,7.2-7.08,6.7-3.74-.38-5.32,1.39-6.73,4.77-1.69,4.07,1.57,5.37,3.23,7.39,2.06,2.53,2.56,4.34.39,7.22-2.37,3.15-4.42,4.16-8.06,2.07-2.57-1.48-5.63-4.21-8.33.11-3.36,1.28-3.4,3.5-1.75,6.2a.55.55,0,0,0,.45.63.49.49,0,0,1,0,.17l-.42.71c1.22,4.21-.81,6.33-4.67,7.36a24.08,24.08,0,0,0-2.93,1.21c-.31-.07-.61-.13-.92-.18l-.87-1h0c-1.32-1.82-2.63-3.65-4-5.48h0a2.55,2.55,0,0,0-2.68-2c-4.4,0-7.36,1.55-8,6.26-.67,5-4.1,4.54-7.89,4.28-4.34-.31-3.88-3.28-4-6-.11-3.22-.39-6.13-4.48-6.56h0c-1.69-1.08-3.4-3.1-5,.1h0a8.14,8.14,0,0,0-1.91,1.32c-3.22,4-6.38,3.51-9.59,0a5.61,5.61,0,0,0-1.18-.75h0c-1.59-1.3-.6-2.8-.34-4.24a.28.28,0,0,0,.22-.34.16.16,0,0,0,0-.09c2.81-3.92,4.19-7.79-.51-11.39-3-2.5-5.79.37-8.72.21-1.35-.08-2.83.73-3.53-1.15C874.25,584.6,872.26,582.33,872.77,579.3Zm25.31-30.09-.58.84c-6.57,11.52-4.83,25.13,4.33,33.93l1.95,1.84a27.56,27.56,0,0,0,36.74.09,6.59,6.59,0,0,0,2.9-2.82,14.08,14.08,0,0,0,4.46-6.65q6.86-14.19-1.71-27.41h.06a5.21,5.21,0,0,0-2-2.83l-.76-.89a13.89,13.89,0,0,0-6.46-5.24h0l-1-.69h0c-2.53-2.09-5.57-2.79-8.71-3.24a23.23,23.23,0,0,0-10.36,0,20.14,20.14,0,0,0-10.44,4.41h0a13,13,0,0,0-5.55,4.79h0a8.26,8.26,0,0,0-2.81,3.76Z"/><path class="cls-21" d="M901.83,584c-9.16-8.8-10.9-22.41-4.33-33.93l.58-.84h0c3,.28,2.88-1.75,2.81-3.76h0c2.61.46,1.82,2.55,1.85,4.11.07,5.63,0,11.26.06,16.89,0,1.78-.8,3.8,1,5.27l36.2-.14c2-.88,1.26-2.66,1.28-4.1.07-6.06,0-12.13,0-18.2,0-1.65-.44-3.6,2.09-3.95l.76.89c0,1.45-.14,3,2,2.83h-.06a10.85,10.85,0,0,0,.49,3.15,26.22,26.22,0,0,1,2.23,17.58c-.49,2.17-1.79,4.29-1,6.68a14.08,14.08,0,0,1-4.46,6.65c-3.31-.11-1.08-3.85-3.14-4.78v-1.82c.72-.35.7-.69,0-1a2.91,2.91,0,0,0-2.55-.84h-30.9c-1.09,0-2.2-.12-3,.85C901.51,578,903.89,581.48,901.83,584Z"/><path class="cls-21" d="M940.52,585.91a27.56,27.56,0,0,1-36.74-.09,8,8,0,0,1,4.06-.92H936A8.84,8.84,0,0,1,940.52,585.91Z"/><path class="cls-12" d="M903.82,571.71c-1.81-1.47-1-3.49-1-5.27-.1-5.63,0-11.26-.06-16.89,0-1.56.76-3.65-1.85-4.11a13,13,0,0,1,5.55-4.79,2.05,2.05,0,0,0,2.17,1.94h27.66c3,0,0-1.8.7-2.49a13.89,13.89,0,0,1,6.46,5.24c-2.53.35-2.08,2.3-2.09,3.95v18.2c0,1.44.67,3.22-1.28,4.1,0-7.94-.12-15.87.07-23.8.07-2.95-.91-3.66-3.72-3.6-9.18.18-18.38.36-27.55,0-4.58-.21-5.73,1.24-4.54,5.32a17.52,17.52,0,0,0,0,6.92v2.49a17.19,17.19,0,0,0,0,7C904.15,567.8,904,569.75,903.82,571.71Z"/><path class="cls-21" d="M937,540.11c-.74.69,2.26,2.48-.7,2.49H908.68a2.07,2.07,0,0,1-2.21-1.9v0h0c3.64-1.09,7.83-.9,10.44-4.41a23.23,23.23,0,0,1,10.36,0c2.2,3,5.4,3.27,8.71,3.24h0c0,.68.29,1,1,.69Z"/><path class="cls-12" d="M916.88,536.26c-2.61,3.51-6.8,3.32-10.44,4.41A20.14,20.14,0,0,1,916.88,536.26Z"/><path class="cls-12" d="M936,539.46c-3.31,0-6.51-.26-8.71-3.24C930.38,536.67,933.42,537.37,936,539.46Z"/><path class="cls-12" d="M900.9,545.44c.07,2,.18,4-2.81,3.76A8.26,8.26,0,0,1,900.9,545.44Z"/><path class="cls-12" d="M937,540.11c-.73.35-1,0-1-.69Z"/><path class="cls-12" d="M898.08,549.21l-.58.84Z"/><path class="cls-22" d="M940.28,578.31c.63,4.78-1.66,5.79-6.1,5.59-8.23-.38-16.51-.4-24.74,0-4.6.24-6.23-1.18-5.49-5.62a12.32,12.32,0,0,0-.14-2.78c.81-1,1.92-.86,3-.85h30.9a2.91,2.91,0,0,1,2.55.84v1C940.28,577.09,940.28,577.7,940.28,578.31Z"/><path class="cls-23" d="M904.29,549.48c-1.19-4.08,0-5.53,4.54-5.32,9.17.4,18.37.22,27.55,0,2.81-.06,3.79.65,3.72,3.6-.19,7.93-.07,15.86-.07,23.8l-36.21.11c.16-2,.33-3.91.49-5.86a17.55,17.55,0,0,0,0-7v-2.49A16.94,16.94,0,0,0,904.29,549.48Zm3.29-1c.09,5.45.24,10.9.24,16.36,0,1.89.1,3.47,2.53,3.48a1,1,0,0,0,1.78,0h17a5.66,5.66,0,0,0,5.5,0l1.88-.52c.29.51.55,1.43.88,1.46,1.07.07,1-.91,1-1.65V547.88c0-1.82-1-2.44-2.68-2.44H908.92c-2.61,0-2.14,1.41-1.34,3ZM905.81,565l.47-.14V550.23h-.47Z"/><path class="cls-17" d="M904.3,558.89a17.55,17.55,0,0,1,0,7A17.19,17.19,0,0,1,904.3,558.89Z"/><path class="cls-17" d="M904.29,549.48a17.16,17.16,0,0,1,0,6.92A17.52,17.52,0,0,1,904.29,549.48Z"/><path class="cls-21" d="M910.35,568.31c-2.43,0-2.53-1.59-2.53-3.48,0-5.46-.15-10.91-.24-16.36,2.61-1.18,5.46,0,8.09-.84h2.38c5.75.32,11.49.78,17.22-.25l.24.3h.39c1.26,6.68,0,13.45.66,20.15l-1.88.52H910.35ZM920.72,558c-1.57-1.36-3-2.52-4.31-3.73-.74-.66-1.44-1.23-2.37-.31s-.33,1.66.47,2.23c1.86,1.34,1.87,2.6,0,3.94-.59.42-1.41,1-.72,1.85.33.42,1.3.92,1.49.77C917,561.37,918.53,559.9,920.72,558Zm5.46,5.24c1.3-.53,3.86.92,3.78-1.3-.09-2.45-2.72-1.16-4.17-1.2-1.24,0-3.76-1.19-3.54,1.34.18,2.09,2.59.6,3.93,1.11Z"/><path class="cls-22" d="M915.67,547.63c-2.63.85-5.48-.34-8.09.84-.8-1.62-1.27-3,1.44-3h26.79c1.69,0,2.68.62,2.68,2.44v19.73c0,.74,0,1.72-1,1.65-.33,0-.59-1-.88-1.46-.63-6.7.6-13.47-.67-20.15a2.58,2.58,0,0,0-2.35-1.25H909.46v.62Z"/><path class="cls-22" d="M905.81,565V550.24h.47v14.65Z"/><path class="cls-22" d="M929.18,568.31h5.5A5.66,5.66,0,0,1,929.18,568.31Z"/><path class="cls-22" d="M910.35,568.31h1.78a1,1,0,0,1-1.78,0Z"/><path class="cls-22" d="M920.72,558c-2.19,2-3.77,3.42-5.45,4.75-.19.15-1.16-.35-1.49-.77-.69-.87.13-1.43.72-1.85,1.88-1.34,1.87-2.6,0-3.94-.8-.57-1.47-1.24-.47-2.23s1.63-.35,2.37.31C917.76,555.43,919.15,556.59,920.72,558Z"/><path class="cls-23" d="M915.67,547.63l-6.25-.61v-.62H933.5a2.58,2.58,0,0,1,2.35,1.25h-.38l-.25-.3c-5.74,0-11.48-.47-17.21.25Z"/><path class="cls-22" d="M926.18,563.19c-1.34-.51-3.75,1-3.93-1.16-.22-2.53,2.3-1.38,3.54-1.34,1.45,0,4.08-1.25,4.17,1.2C930,564.11,927.48,562.66,926.18,563.19Z"/><path class="cls-22" d="M918.05,547.64c5.73-.72,11.47-.21,17.21-.25C929.54,548.42,923.8,548,918.05,547.64Z"/><path class="cls-22" d="M184.77,269c-3.59,4.29-6.66,8.19-10,11.89-4.17,4.6-4.56,9.18-.8,14.11a64.18,64.18,0,0,1,4,6.2c1.22,2.06,3.4,2.26,5.3,1.64,2.41-.78.72-2.68.23-3.72-2.14-4.57-.09-7.68,4.32-9.48,5.29-2.15,5.42-4.74,2.7-8.84C188.24,277.34,186.89,273.43,184.77,269Z"/><path class="cls-23" d="M131.65,231.38c3.14-3.73,3.08-7.14-1-10.21a10,10,0,0,1-1.53-1.78c-2.65-3.28-7.65-6.59-7.22-10,.63-5,5.54-8.79,8.88-12.92,1.35-1.68,2.67-1.12,4.13-.46,4.56,2.06,9.17,4,13.67,6.24,1.89.93,3.06.58,5-.36,9.16-4.44,9.24-11.28,7.16-20-2.22-9.28-3.07-7.63,6.12-11.41,11.42-4.71,8.77-5.77,14.83,4.31,5,8.3,10.71,9.68,19,7.63a3.82,3.82,0,0,0,3.06-2.92c1.77-4.85,3.63-9.66,5.34-14.53.67-1.93,1.72-2.88,3.8-2.4a3.69,3.69,0,0,0,.47,0c14.71.42,14.72.42,16.36,15a23.56,23.56,0,0,1,.38,4.67c-.25,2.74,1.42,3.39,3.47,4.62,7.3,4.36,12.8,3.33,18.92-2.92,7.18-7.33,7.88-6.87,15.83-.35,7.7,6.32,6.67,3.37,3.21,12.29a7.52,7.52,0,0,1-.79,1.7c-5.09,6.84-4.62,12.93,1.74,18.93,1.91,1.81,3.15,2.78,5.85,2.26,5.82-1.11,11.58-2.82,17.61-2.47l6,14c1.38,4-3.16,4.08-4.29,6.43-2.2,1.47-4.24,3.26-6.62,4.34-5.12,2.33-6.21,5.91-4.17,10.84-.73,5.43,1.23,8.65,7,9.7,3.3.6,6.35,2.45,9.59,3.46,2.82.88,4,2.27,3.44,5.39-.65,3.48-.82,7.06-1.19,10.6-.08.61-.17,1.23-.25,1.85l-.87,1.88c-6.05.62-12.09,1.33-18.15,1.82-1.78.14-3,.56-3.38,2.42a7.44,7.44,0,0,1-.95,2.62c-4.9,6.9-2.47,12.17,3.58,16.69l1,1.17,1.39,1.77,3.26,4.13c0,.73.07,1.46.1,2.19L288,322.37l-.51.79L284.57,327h.1l-1,1.12-.74.85-.93,1a3.07,3.07,0,0,1-2.65.68l-2-.76H277l-1.55-.75-.17-.22L275,329l-1.42-.69-.32-.24h-.4a16.47,16.47,0,0,0-5.88-2.73,2.84,2.84,0,0,0-2.32-1.06l-1.43-.76-.2-.23h-.31c-.64-.88-1.29-1-1.94,0a.31.31,0,0,0-.41.19.3.3,0,0,0,0,.13l-.84.76h-.05c-.33.29-.66.58-1,.86h0l-1.11.93-5.46,4c-1.47.46-2.31,1.23-1.33,2.85l.53,2.65c.12.68.25,1.37.37,2l.54,2.65.49,3,.33,1.73c-.81,2.71,2.44,6.08-1.36,8.3h-.31l-.21.24-1.44.76a2.72,2.72,0,0,0-2.3,1L237.75,359l-1.55-.37-5.79-7.56a.3.3,0,0,0-.14-.4.27.27,0,0,0-.12,0l-.77-1.05a4.77,4.77,0,0,0-1.9-2.69c-1.51-2.57-2.33-6.31-6.75-4.06l-1.74.32c-3.65,1-9.12-2-10.13,4.69-.16.59-.33,1.17-.49,1.76l-.72,2-.05.37-5,11.71h-2.36l-14.81-2.1v.16l-1.15-1a.64.64,0,0,0-.12-.71,10.48,10.48,0,0,0-.53-4.84c-.17-1.52-.33-3-.5-4.55a10.51,10.51,0,0,0-.46-4.85c-.12-1.52-.25-3-.38-4.55.09-.71-.24-1.06-.93-1.1h-.3A23.05,23.05,0,0,0,174,337.4v.05c-2.07-.61-3.67-4.29-6.36-1h-.27l-.09.26-5.12,4.43-1.49,1.19-.94.8-1,.78-1.17,1L156,346.17l-1,.76-1,.7c-1.41.84-2.4-.37-3.57-.71-2.92-2.3-5.71-4.81-8.8-6.84s-3.11-4.05-1.61-7c2.1-4.15,3.83-8.49,5.85-12.68.74-1.55,1-2.73-.27-4.18-2.27-2.53-4.33-5.25-6.48-7.9h0c-.32-1.64-1.38-1.87-2.81-1.55-3.8.84-7.61,1.64-11.41,2.46l-1.85.19-5.57.62-.8-.81c-1.87-5.65-5.5-10.67-6-16.8,5-3.44,9.91-6.91,14.91-10.3A3,3,0,0,0,127,278.6a82.31,82.31,0,0,1-1.2-9.76c-.11-2-1.14-2.58-2.77-3.13-4.14-1.39-8.18-3.11-12.35-4.41-3.6-1.12-5.68-2.87-4.63-7a14.22,14.22,0,0,0,.11-3.26c.19-7.32,3.12-11.9,11.25-11.31l9.16-.63c1.94-.13,3.2-.92,3.07-3.1.61-1,1.6-1.91,1-3.3C131,232.3,131.33,231.84,131.65,231.38ZM206.41,318a55,55,0,1,0-55-55v.12A54.77,54.77,0,0,0,206.07,318Z"/><path class="cls-14" d="M206.41,318a54.87,54.87,0,1,1,.27,0Zm.25-100.06c-2.24,4.91-5.82,7.35-9.73,9.43-6.78,3.63-10.14,9.48-11,17-1.29,11.29,2.13,21.65,6.34,31.83,4.09,9.88,4.14,9.86,14.6,9.85,2.35,0,4.71-.13,7,0a3.61,3.61,0,0,0,4-2.36c4-8.36,7.69-16.85,9.23-26,2.23-13.31.24-25.07-13.41-31.88-3-1.54-4.94-4.26-7.08-7.91Zm-22.74,53.85c-2.2,2.93-4.06,5.43-5.94,7.92-5.6,7.43-5.25,13.05,1.09,20,1.2,1.31,2.52,1.15,3.84.9,1-.2.79-1.18.44-1.91-2.5-5.23.11-8.27,4.54-10.43,2.15-1,2.47-2.24,1.37-4.41-1.9-3.81-3.43-7.73-5.34-12.11Zm45.7-.05c-1.61,3.8-2.64,7.13-4.36,10.06-2.06,3.5-2,5.71,2.05,7.55,3.35,1.53,4.91,4.18,3.28,8.08-.37.89-1.66,2.51.18,3.17a3,3,0,0,0,4-1.4,52.76,52.76,0,0,1,3-5.28c2.85-4.21,2.56-8.12-.61-12-2.48-3.24-4.81-6.57-7.54-10.22Zm-14.9,18.54H199.41c.84,5.27,4.19,5.68,8.46,5.86,4.48.14,5.3-2.71,6.85-5.9Z"/><path class="cls-22" d="M206.66,217.9c2.14,3.65,4.1,6.37,7.1,7.87,13.65,6.81,15.64,18.57,13.41,31.88-1.54,9.15-5.25,17.64-9.23,26a3.61,3.61,0,0,1-4,2.36c-2.34-.17-4.7-.05-7.05,0-10.46,0-10.51,0-14.6-9.85-4.21-10.18-7.63-20.54-6.34-31.83.85-7.48,4.21-13.33,11-17C200.84,225.25,204.42,222.81,206.66,217.9Zm.34,45.42a11.51,11.51,0,1,0-.1,0Z"/><path class="cls-22" d="M229.62,271.7c2.73,3.65,5.06,7,7.6,10.14,3.17,3.92,3.46,7.83.61,12a52.76,52.76,0,0,0-3,5.28,3,3,0,0,1-4,1.4c-1.84-.66-.55-2.28-.18-3.17,1.63-3.9.07-6.55-3.28-8.08-4-1.84-4.11-4-2.05-7.55C227,278.83,228,275.5,229.62,271.7Z"/><path class="cls-22" d="M214.72,290.24c-1.55,3.19-2.37,6-6.85,5.86-4.27-.18-7.62-.59-8.46-5.86Z"/><path class="cls-19" d="M207,263.32a11.11,11.11,0,1,1,.06,0Zm0-3.94a7.37,7.37,0,1,0-7.56-7.32A7.54,7.54,0,0,0,207,259.38Z"/><path class="cls-22" d="M207,259.38a7.59,7.59,0,0,1-7.56-7.32,7.37,7.37,0,1,1,7.56,7.32Z"/><path class="cls-22" d="M538,341.32a.31.31,0,0,0,.1-.41.32.32,0,0,0-.1-.1c.27-.45.54-.9.82-1.35l5.82-14.26c.41-1,1.15-1.88.18-3-2.68-3-5.31-6.13-7.93-9.23-1.21-1.44-2.56-.61-3.87-.32-4.56,1-9.13,2-13.66,3.2-3,.77-4.71,0-6.28-2.92-6.75-12.65-7.05-12.83,4.42-21.3,4.65-3.44,6.38-6.35,5-12.49-1.22-5.33-2.83-8.28-8.28-9a62.88,62.88,0,0,1-8.1-2.19c-4.55-1.08-6.19-3.87-5.15-8.41a17.79,17.79,0,0,0,.09-3.72c.07-1.24.15-2.49.22-3.74.14-4,2.48-5.6,6.27-5.68a14.11,14.11,0,0,0,3.14-.76l1.83-.21c10.72-.6,10.72-.6,13.08-9.34a.52.52,0,0,0,.19-.62c.58-2,3.36-3.74,1-6.25L521.08,223c-8.43-9.17-8.45-9.65-.76-19.46.57-.72,1.64-1.19,1.93-2,1-2.6,2.57-1.93,4.41-1.2,4.88,1.93,9.78,3.79,14.69,5.65,1,.36,1.89,1.53,3,.65a124.87,124.87,0,0,0,9.62-9.21c1.65-1.67-.45-5.62-1.47-8.37a15.9,15.9,0,0,1-1.12-4.75c0-3.49-3.55-8.2,2.55-10.21.71-.15,1.59.06,1.87-.94.83-.16,1.79,0,2.33-.9,9-3.79,9-3.79,15.26,4a4.06,4.06,0,0,1,.57.74c3.51,6.77,8.36,9.34,16.14,6.6,3.21-1.13,5.43-1.68,6.19-5.46.89-4.41,2.67-8.64,4-13,.63-2.11,1.73-3.24,4-2.8h.47c15,.1,15.82.8,17.56,18.36.32,3.22,1.65,4.16,4.23,5.52,7.75,4.11,13.61,2.62,18.24-4.71a18.51,18.51,0,0,1,3-3c2.8-2.73,5.72-3.35,9-.73a43.26,43.26,0,0,0,7.2,5.11c3.46,1.75,3.8,3.85,2.15,7.06-1.13,2.18-1.7,4.64-2.62,6.93-3.78,9.45-3.8,9.44,3.82,16.6.73,2.69,2.2,3.17,4.93,2.39,4.93-1.39,10.06-2.07,15-3.4,2.57-.7,3.84.13,4.71,2.32a8.29,8.29,0,0,0,.43.84c7,12.58,6.92,12.53-4.34,21.49-2.14,1.7-5.94,2.71-5.94,5.5,0,4.29,1.42,8.6,2.34,12.87.34,1.56,2,1.38,3.08,1.74,4.91,1.59,9.87,3,14.81,4.53,1.41.68,2.69,1.32,2.4,3.36s-.18,4.06-.29,6.09c-.55,10.07-.51,10.86-10.62,11.39-8.74.46-14,3.35-15,12.3a1.09,1.09,0,0,1-.18.43c-1.48,2.14-.52,3.61,1.09,5.24,3.52,3.57,6.77,7.39,10.24,11,1.58,1.64,1.79,3.08.39,4.91-1,1.36-1.83,2.91-2.78,4.34-5.74,8.63-5.74,8.64-15.25,4.95a49.82,49.82,0,0,1-6.93-2.87c-2.8-1.59-4.37-.42-6.9,1.12-7.48,4.55-8.81,10.34-5.4,17.88a8.76,8.76,0,0,1,.43,1.82c1.63,7.75,1.63,7.75-4.67,11.68l-.92.35-4.82,2.39h0c-2.15.17-4.32,2.48-6.44-.06l-1.4-1.75a.43.43,0,0,0-.39-.48.24.24,0,0,0-.12,0l-.95-.51c-.66-2.89-3.38-4.42-4.63-6.89-2.64-5.26-6.5-5.92-11.39-3.4-4.9-.38-8.11,1-8.89,6.65-.61,4.35-3.07,8.34-3.36,12.85-.08,1.23-1.2,1.24-1.85,1.8l-9.42-.41-3.74-.23c-4.15.35-4.9-3.19-6.54-5.72a1.87,1.87,0,0,0-.21-.8c.12-.74.33-1.49-.48-2v-1.65c-.07-2.45,0-4.93-.26-7.35-.45-3.5-2.81-4.84-6-6.37-6.38-3.05-10.59-1.83-15.16,3.36-3,3.35-5.81,8.12-11.69,7.38-.38-1.57-1.69-2.08-3-2.58-2.19.06-2.64-2.67-4.65-2.89a2.06,2.06,0,0,0-.81-.17c-.7-1-1.35-2.16-2.88-2.05-.3-1.05-2.35-.73-1.88-2.39C537.59,342.29,538.1,342.06,538,341.32ZM547.13,264a55.66,55.66,0,1,0,56-55.32h-.26a55.44,55.44,0,0,0-55.74,55.14Z"/><path class="cls-19" d="M547.13,264a55.63,55.63,0,1,1,0,.74Zm85.79-35.57c-.67-2.47-2.71-1.69-4.29-1.69q-25.38-.08-50.76,0c-1.43,0-3.22-.78-4.18,1.16-1.55,1.17-1,2.87-1,4.35v63.82c0,1.67-1.23,4.77,2.38,4.15,2.4-.41,6.89,2.62,6.68-3.33,0-1,0-2.44,1.58-2.31,1.07.09,1.22,1.15,1.42,2.13.27,1.27-1.09,3.6,1.61,3.5,2.24-.09,1.09-2.15,1.3-3.34s.13-2.38,1.65-2.29c1.17.07,1.17,1.2,1.35,2.14.25,1.31-.93,3.63,1.7,3.48,2.19-.13,1-2.19,1.29-3.4s.27-2.38,1.76-2.21a1.72,1.72,0,0,1,1.36,2c0,.05,0,.1,0,.15-.59,3.53,1.47,3.65,4.13,3.62,9.23-.09,18.47-.22,27.7.06,3.59.11,4.37-1,4.35-4.42-.09-22.56,0-45.08,0-67.6Z"/><path class="cls-23" d="M632.92,228.4c0,22.52-.1,45,.06,67.57,0,3.45-.76,4.53-4.35,4.42-9.23-.28-18.47-.15-27.7-.06-2.66,0-4.72-.09-4.13-3.62a1.71,1.71,0,0,0-1.17-2.11l-.15,0c-1.49-.17-1.54,1.11-1.76,2.21s.9,3.27-1.29,3.4c-2.63.15-1.45-2.17-1.7-3.48-.18-.94-.18-2.07-1.35-2.14-1.52-.09-1.45,1.2-1.65,2.29s.94,3.25-1.3,3.34c-2.7.1-1.34-2.23-1.61-3.5-.2-1-.35-2-1.42-2.13-1.57-.13-1.62,1.27-1.58,2.31.21,5.95-4.28,2.92-6.68,3.33-3.61.62-2.38-2.48-2.38-4.15q-.12-31.91,0-63.82c0-1.48-.58-3.18,1-4.35l2.81.09h.85c1.87.08,3.73.21,5.59.22ZM603,282.26c6.41,0,6.45-.09,4.71-6.16-.74-2.6-.82-5.07,1.95-6.53s4.7,0,6.51,2c3.83,4.35,4,4.3,7.16-.82A24.12,24.12,0,1,0,603,282.26ZM612,272c-1.87.47-2,1.67-1.51,2.94,1.76,4.66,3.44,9.36,5.48,13.9,1.09,2.4,3.26,3.43,5.81,1.78a3.92,3.92,0,0,0,1.65-5.28,3.71,3.71,0,0,0-.56-.8c-3-4-6.31-7.72-9.53-11.53A6.64,6.64,0,0,0,612,272Z"/><path class="cls-19" d="M603,282.26a24,24,0,1,1,20.33-11.5c-3.14,5.12-3.33,5.17-7.16.82-1.81-2.05-3.75-3.46-6.51-2s-2.69,3.93-1.95,6.53C609.46,282.17,609.42,282.22,603,282.26Zm-.44-17.94c3.59-.3,5.84-2,6.13-5.73a5.73,5.73,0,0,0-5.14-6.28,4.91,4.91,0,0,0-.77,0c-3.59.2-5.81,2.19-5.87,5.89s2.14,5.59,5.66,6.15Zm.18-24.37c0-1.8-1.3-1.36-2.31-1.22a20,20,0,0,0-13.61,8.09c-.55.73-1.91,1.55-.28,2.6,1.21.77,2,.19,2.71-.79a17.32,17.32,0,0,1,11.67-6.95c1.08-.17,1.7-.63,1.83-1.68Zm-3.57,5.12a25.13,25.13,0,0,0-4.06,2.09c-1.39,1-4,2.31-3,3.89,1.55,2.33,3-.49,4.5-1.29s2.8-1.34,4.19-2a1.94,1.94,0,0,0,.9-2.42c-.16-.74-.89-.72-2.52-.27Z"/><path class="cls-19" d="M612,272a6.59,6.59,0,0,1,1.34,1c3.22,3.81,6.55,7.54,9.53,11.53a3.9,3.9,0,0,1-.29,5.52,3.71,3.71,0,0,1-.8.56c-2.55,1.65-4.72.62-5.81-1.78-2-4.54-3.72-9.24-5.48-13.9C610,273.66,610.16,272.46,612,272Z"/><path class="cls-23" d="M602.57,264.32c-3.52-.56-5.72-2.45-5.65-6.15s2.28-5.69,5.87-5.89a5.74,5.74,0,0,1,5.94,5.54,6.61,6.61,0,0,1,0,.77C608.41,262.28,606.16,264,602.57,264.32Zm3.15-6.27a2.79,2.79,0,0,0-2.87-2.71l-.24,0a2.71,2.71,0,0,0-2.74,2.68,3,3,0,0,0,0,.42,2.74,2.74,0,0,0,2.71,2.77,2.3,2.3,0,0,0,.37,0,2.85,2.85,0,0,0,2.76-2.92c0-.08,0-.16,0-.24Z"/><path class="cls-23" d="M602.74,240c-.12,1.1-.73,1.56-1.81,1.73a17.32,17.32,0,0,0-11.67,7c-.74,1-1.5,1.56-2.71.79-1.63-1-.27-1.87.28-2.6a20,20,0,0,1,13.61-8.09C601.45,238.59,602.73,238.15,602.74,240Z"/><path class="cls-23" d="M599.18,245.07c1.63-.45,2.36-.47,2.55.22a1.94,1.94,0,0,1-.9,2.42c-1.39.71-2.83,1.31-4.19,2s-2.95,3.62-4.5,1.29c-1-1.58,1.59-2.92,3-3.89A24.29,24.29,0,0,1,599.18,245.07Z"/><path class="cls-12" d="M605.72,258.05a2.83,2.83,0,0,1-2.5,3.14l-.24,0a2.74,2.74,0,0,1-3.06-2.38c0-.12,0-.25,0-.37a2.7,2.7,0,0,1,2.29-3.07l.42,0a2.78,2.78,0,0,1,3.09,2.45A1.94,1.94,0,0,1,605.72,258.05Z"/><path class="cls-23" d="M88.19,634.28l1.69,1.06c2,5-.86,7.75-4.51,10.19-3.36.61-1.66,3-1.65,4.76,0,2.4,1.34,3.49,3.7,3.92,4,.73,7.11,1.92,6,7.52-.89,4.33-3.78,3.34-6.24,3.74-4.79.8-6.61,3.92-4.56,8.27h0c3.28,3.34,6.55,6.68,1.76,11.28l-.85,1.08c-2.17.46-4-.66-5.8-1.48-2.4-1.1-4.16-1.47-6.62.56s-1.94,4.08-1.48,6.5,2.32,4.84-1.38,6.78c-3.37,1.75-6,2.31-8.24-1.27l-.75-1c-.9-2.36-2.4-3.22-5-2.71s-4.25,1-4.8,4c-.42,2.19-.83,4.59-2.61,6.31H44c-4.33-.15-6-2.48-5.9-6.68.08-2.49-.92-4.06-3.72-4.94s-4.4-.59-5.86,1.71l-.21.19c-1.78,1-2.76,3.11-5,3.42a.62.62,0,0,0-.64-.31l-3-2,0,.07-1.14-.85-1.06-.85c-.44-2.77,1.19-5,2.11-7.35.7-1.79,1-3.15-1-4.15l-.76-.86c-.75-1.7-1.68-2.72-3.86-2a61.52,61.52,0,0,1-6.68,1.54l-1.8-1.4c-.5-2.8-4.13-5.55-.17-8.44,1.78-1.55,4.86-2,4.82-5.12,0-3.29-.76-6.07-5-6.55-3.81-.45-5.95-2-5.09-6.85.63-3.56,2.44-3.76,5-4,2.75-.29,5.22-.32,6.42-4,1.07-3.28-.49-4.68-2.26-6.35-2.49-2.36-3.69-4.3-1.13-7.83,2.37-3.27,4.43-2.52,7.14-1.34,2.33,1,4.29,2.33,7-.2s2.23-4.47,1.36-7c-1.1-3.23-.66-5.35,2.86-7.06s5.09-.4,6.87,2.19c1.47,2.14,2.76,4.15,6.33,3.5s4-2.87,4.72-5.42c.75-2.78,1.28-5.14,5.43-4.71s5.42,2,5.43,5.78c0,2.5.45,4.49,3.61,5.68,3.38,1.27,5-.23,6.79-2.18,2.18-2.34,4-3.63,7.42-1.23s2.88,4.43,1.69,7.46c-.71,1.82-3.47,4-.08,6,1.22,3.17,3.6,3.68,6.43,2.57a13,13,0,0,1,5.92-.7h0C87.36,633.91,87.49,634.43,88.19,634.28ZM72.32,657.15a25.44,25.44,0,1,0,0,.53C72.32,657.5,72.32,657.33,72.32,657.15Z"/><path class="cls-14" d="M72.32,657.15a25.46,25.46,0,1,1,0-.59Zm-7.43-.35A18.28,18.28,0,0,0,47,638.24a18.52,18.52,0,0,0-18.7,18.34h0a18.32,18.32,0,0,0,18.25,18.23A18.07,18.07,0,0,0,64.89,657v-.24Z"/><path class="cls-22" d="M64.89,656.8a18.06,18.06,0,0,1-18.12,18h-.22A18.32,18.32,0,0,1,28.3,656.59,18.52,18.52,0,0,1,47,638.24h0A18.28,18.28,0,0,1,64.89,656.8ZM46.8,671.23A14.51,14.51,0,0,0,61.39,656.8v-.15a14.69,14.69,0,0,0-14.55-14.83h-.33a14.89,14.89,0,0,0-14.67,15.11V657A14.73,14.73,0,0,0,46.8,671.23Z"/><path class="cls-14" d="M46.8,671.23A14.74,14.74,0,0,1,31.8,657a14.89,14.89,0,0,1,14.65-15.13h0a14.7,14.7,0,0,1,14.88,14.5v.33a14.51,14.51,0,0,1-14.44,14.58ZM35.07,656.48c7.44.44,10.92,4.33,11.56,11.72.65-7.41,4.41-11.2,11.73-11.9-8.3.5-10.58-4.69-11.79-11.46C45.82,652,42.91,656.46,35.07,656.48Z"/><path class="cls-22" d="M35.07,656.48c7.84,0,10.75-4.44,11.5-11.64,1.21,6.77,3.49,12,11.79,11.46-7.32.7-11.08,4.49-11.73,11.9C46,660.81,42.51,656.92,35.07,656.48Zm11.35-1.9c-.64.27-1.5.56-1.61,1.72a1.83,1.83,0,0,0,1.38,2.18,2,2,0,0,0,.43,0,1.86,1.86,0,0,0,2-1.65c.18-1.36-.73-1.94-2.2-2.29Z"/><path class="cls-12" d="M46.42,654.58c1.47.35,2.38.93,2.16,2.29a1.86,1.86,0,0,1-2,1.65,1.81,1.81,0,0,1-1.85-1.79,1.57,1.57,0,0,1,0-.43C44.92,655.14,45.78,654.85,46.42,654.58Z"/></svg>