<?xml version="1.0" encoding="UTF-8"?>
<svg width="336.77mm" height="338.06mm" version="1.1" viewBox="0 0 336.77423 338.06076" xmlns="http://www.w3.org/2000/svg">
 <defs>
  <clipPath id="e">
   <circle cx="-19372" cy="3462.9" r="2207.3" fill="#b20604" fill-opacity=".98824"/>
  </clipPath>
  <pattern id="h" width="945.98046" height="981.07139" patternTransform="translate(-1741.6 -219.77)" patternUnits="userSpaceOnUse">
   <path d="m489.64 165.03c22.475 9.1514 45.782-21.535 70-20 32.574 2.0645 88.032 5.9918 90 38.571 1.66 27.474-44.194 37.444-71.429 41.429-34.399 5.0331-68.763-12.387-101.43-24.286-20.01-7.2889-42.562-13.05-57.143-28.571-11.688-12.441-21.163-30.113-20-47.143 1.964-28.761 22.346-55.585 44.286-74.286 34.321-29.255 80.721-46.94 125.71-50 51.391-3.4951 109.98 4.707 150 37.143 39.873 32.321 64.884 87.294 67.143 138.57 1.121 25.446-12.333 50.706-27.143 71.429-19.073 26.687-44.645 52.338-75.714 62.857-22.57 7.6414-47.842 0.52644-71.429-2.8572-15.548-2.2304-30.203-8.955-45.714-11.429-26.401-4.2103-53.282-4.7613-80-5.7143-31.409-1.1203-62.857 0-94.286 0-22.857 0-47.192 8.0838-68.571 0-20.196-7.6364-32.835-28.073-48.571-42.857-14.724-13.833-30.14-27.159-42.857-42.857-28.601-35.304-87.898-70.937-74.286-114.29 9.8552-31.384 59.571-45.339 91.429-37.143 43.935 11.303 51.946 75.42 85.714 105.71 26.153 23.463 57.641 40.476 88.571 57.143 31.157 16.788 62.937 33.771 97.143 42.857 44.421 11.8 92.522 25.305 137.14 14.286 16.669-4.1163 32.967-14.537 42.857-28.571 11.31-16.049 20.103-38.39 14.286-57.143-9.7947-31.576-43.75-53.043-74.286-65.714-28.204-11.703-61.255-10.405-91.429-5.7143-18.175 2.8257-34.402 13.043-51.429 20-6.7143 2.7434-17.695 1.6943-20 8.5714-2.44 7.2804 4.3172 17.104 11.429 20z" fill="#ea412a"/>
   <path d="m503.93 352.17c-15.577 0.95406-30.998 7.7609-46.469 5.7136-13.81-1.8273-31.65-3.7126-38.724-15.713-4.3842-7.4363-3.4337-20.067 3.098-25.711 14.069-12.157 37.217 0.0974 55.763 1.4284 20.225 1.4515 41.224 0.57972 60.41 7.142 13.112 4.4848 38.45 7.8593 35.626 21.426-2.9718 14.276-28.82 4.7593-43.371 5.7136-8.7587 0.57444-17.571-0.53659-26.332 0z" fill="#ea412a"/>
   <path d="m742.47 299.31c14.819 16.001 44.215-12.408 58.861-28.568 16.019-17.675 32.848-44.685 24.784-67.135-3.8382-10.684-18.685-20.805-29.43-17.141-15.568 5.3079-12.022 30.629-18.588 45.709-4.4015 10.109-8.8318 20.226-13.941 29.997-6.6424 12.704-31.426 26.621-21.686 37.139z" fill="#ea412a"/>
   <path d="m123.75 98.429c43.575-24.277 55.981 82.637 86.2 122.32 24.638 32.357 43.583 71.755 77.448 94.275 33.208 22.083 75.837 25.006 114.62 34.282 52.051 12.448 104.49 29.844 158 28.568 29.664-0.7076 58.334-11.428 86.742-19.998 28.515-8.602 55.712-21.087 83.644-31.425 34.374-12.722 71.445-19.547 103.31-37.66 27.905-15.862 53.281-84.839 74.621-60.861 25.079 28.18-51.735 55.279-81.221 78.807-27.17 21.679-62.731 32.38-87.415 56.852-14.603 14.478-15.961 41.695-34.077 51.423-20.925 11.236-47.913-4.4029-71.253 0-35.958 6.7835-66.064 34.442-102.23 39.995-55.245 8.4828-114.53 7.0353-167.29-11.427-23.702-8.2948-39.279-32.072-61.959-42.852-17.089-8.123-40.07-3.5968-54.518-15.815-27.988-23.669-39.229-63.406-47.749-99.058-4.1758-17.473 4.5695-36.83-1.0776-53.885-8.4703-25.581-33.758-42.314-46.939-65.817-12.004-21.403-50.291-55.784-28.855-67.727z" fill="#f11212"/>
   <path d="m935.36 360.75c-21.37-36.4-76.485 35.849-115.71 51.429-52.069 20.679-108.26 31.072-158.57 55.714-15.777 7.7269-27.585 23.121-44.286 28.571-31.288 10.21-67.533-5.2329-98.572 5.7143-15.452 5.4501-42.682 12.407-40 28.571 3.2545 19.618 37.29 15.982 57.143 17.143 24.619 1.4392 51.198-1.0656 72.857-12.857 7.9903-4.35 22.551-11.819 18.572-20-10.034-20.625-63.844 28.158-68.572 5.7143-3.0108-14.294 27.071-11.595 41.429-14.286 12.178-2.2822 27.021-8.5745 37.143-1.4286 6.521 4.6038 9.8844 15.36 7.1428 22.857-4.2649 11.662-19.885 15.423-31.429 20-18.926 7.504-39.698 9.8979-60 11.429-25.185 1.8988-51.45 4.153-75.714-2.8571-10.044-2.9018-20.746-7.4455-27.143-15.714-5.4435-7.0361-10.468-17.463-7.1429-25.714 4.5482-11.287 20.484-13.253 31.429-18.571 8.272-4.0193 27.756-1.0326 25.714-10-2.7563-12.108-24.976 5.3408-37.143 2.8571-13.147-2.6838-22.418-16.768-35.714-18.571-29.431-3.9907-57.606 15.459-87.143 18.571-14.207 1.497-29.543 5.1789-42.857 0-21.674-8.4306-36.401-29.395-51.429-47.143-14.681-17.337-23.198-39.208-37.143-57.143-5.1713-6.6508-13.016-11.227-17.143-18.571-15.282-27.202-9.4142-63.396-25.714-90-9.8573-16.089-22.601-37.328-41.429-38.571-22.15-1.4634-54.684 16.377-54.286 38.571 0.3882 21.657 39.241 20.132 54.286 35.714 8.9058 9.2242 16.349 20.566 20 32.857 8.8187 29.685-9.8744 64.628 2.8572 92.857 8.8642 19.654 29.981 31.235 47.143 44.286 22.622 17.203 52.123 24.849 72.857 44.286 12.722 11.926 15.006 33.953 30 42.857 44.085 26.179 101.65 14.52 152.86 17.143 50.888 2.6061 101.92-0.12967 152.86-1.4286 22.87-0.58316 46.856 4.3399 68.572-2.8571 24.072-7.9779 42.617-27.579 62.857-42.857 41.558-31.369 82.242-64.146 120-100 18.816-17.867 33.59-39.764 52.857-57.143 8.8399-7.9736 34.599-11.162 28.571-21.429z" fill="#ea412a"/>
   <path d="m258.21 428.6c11.574-10.051 20.082 24.148 33.572 31.429 13.365 7.2134 46.302-4.339 44.286 10.714-2.1823 16.29-34.815 6.3634-49.286-1.4286-14.598-7.8604-41.089-29.843-28.572-40.714z" fill="#ea412a"/>
   <path d="m398.12 628.67c40.428-0.4948 78.149-21.656 118.19-27.274 32.055-4.4982 76.171-29.849 96.975-5.0508 2.8872 3.4417 0.075 9.886-3.0304 13.132-13.046 13.635-36.651 9.1688-54.548 15.152-28.821 9.6354-55.353 26.038-84.853 33.335-29.599 7.3217-60.456 8.6691-90.914 10.102-20.184 0.94925-40.626 1.979-60.609-1.0102-22.872-3.4212-45.408-10.098-66.67-19.193-30.106-12.878-61.84-26.203-84.853-49.497-18.228-18.451-25.665-45.078-38.386-67.68-14.565-25.879-26.142-53.641-43.436-77.782-24.298-33.916-99.557-54.285-83.843-92.934 7.8795-19.379 43.743-13.038 62.63-4.0406 23.111 11.01 32.35 40.069 44.447 62.629 11.081 20.666 11.612 46.587 25.254 65.66 17.105 23.915 43.48 39.869 67.68 56.569 28.291 19.523 59.148 35.158 89.904 50.508 21.719 10.84 43.54 21.932 66.67 29.294 12.774 4.0659 25.992 8.2453 39.396 8.0812z" fill="#f11212"/>
   <path d="m19.311 489.26c-1.3197-8.9382 3.3029-22.279 12.122-24.244 25.973-5.7853 43.476 31.026 62.63 49.497 14.959 14.425 31.696 28.61 40.406 47.477 4.4318 9.5995 13.982 25.655 5.0508 31.315-12.07 7.6487-25.562-13.838-35.355-24.244-9.4191-10.008-11.37-25.764-21.213-35.355-12.743-12.416-32.458-15.296-46.467-26.264-6.5644-5.139-15.955-9.9354-17.173-18.183z" fill="#f11212"/>
   <path d="m102.14 592.3c25.203-13.118 47.157 32.069 72.731 44.447 42.959 20.792 87.841 38.788 134.35 49.497 32.977 7.5937 67.192 11.145 101.02 10.102 14.662-0.45253 29.26-3.2988 43.437-7.0711 38.922-10.357 75.327-28.547 113.14-42.426 34.594-12.699 67.919-30.1 104.05-37.376 12.561-2.5295 26.421 2.564 38.386-2.0203 88.096-33.754 134.49-217.17 220.21-177.79 10.102 4.6408 5.932 23.367 1.0102 33.335-11.75 23.796-44.142 29.622-64.65 46.467-44.182 36.29-78.1 84.851-125.26 117.18-17.887 12.261-43.408 12.797-58.589 28.284-6.2227 6.3484-13.741 15.752-11.112 24.244 2.3232 7.5021 12.432 10.985 20.203 12.122 16.162 2.3636 32.122-6.5553 47.477-12.122 23.504-8.5206 45.218-21.347 67.68-32.325 6.088-2.9756 13.044-13.509 18.183-9.0914 9.1249 7.8435-3.8503 24.751-11.112 34.345-14.653 19.361-37.695 32.375-60.609 40.406-25.835 9.0547-54.453 7.6556-81.822 7.0711-36.661-0.78293-72.608-10.496-109.1-14.142-23.847-2.3833-47.767-5.8116-71.721-5.0508-17.658 0.56088-35.468 2.4767-52.528 7.0711-20.408 5.4963-37.997 19.479-58.589 24.244-21.036 4.8674-43.072 4.8297-64.65 4.0406-14.943-0.54646-30.267-1.3146-44.447-6.0609-54.894-18.375-112.03-42.526-151.52-84.853-9.1449-9.8018-14.649-23.2-17.173-36.365-1.0162-5.3015-3.7781-13.67 1.0101-16.162z" fill="#ea412a"/>
   <path d="m741.57 654.93c-4.9234-9.3508 8.6588-19.833 16.162-27.274 23.784-23.587 62.255-27.793 86.873-50.508 10.846-10.008 15.371-25.405 25.254-36.365 14.87-16.491 28.603-39.792 50.508-43.437 8.9434-1.4881 23.379 1.2312 25.254 10.102 4.186 19.802-29.256 28.069-42.426 43.437-9.8603 11.505-22.196 22.089-27.274 36.365-2.8233 7.9375 0.0247 16.893-1.0102 25.254-1.8171 14.681-3.9086 29.582-9.0914 43.437-4.5949 12.283-9.0906 25.982-19.193 34.345-7.382 6.1109-18.786 13.539-27.274 9.0914-7.4564-3.9068-6.7075-15.834-7.0711-24.244-0.44488-10.292 4.2862-20.157 6.0609-30.305 1.1732-6.7079 8.7614-16.525 3.0304-20.203-16.584-10.644-30.434 27.336-49.497 32.325-9.7941 2.5633-25.588 6.9378-30.305-2.0203z" fill="#f11212"/>
   <path d="m471.86 759.98c-14.819-6.2453-44.932-0.0894-45.457-16.162-0.6948-21.255 37.373-23.781 58.589-25.254 27.87-1.9346 53.442 16.62 80.812 22.223 36.622 7.4979 109.68-22.202 111.12 15.152 1.3507 35.109-68.525 15.63-103.04 22.223-16.094 3.0751-32.275 10.456-48.487 8.0812-19.668-2.8813-35.22-18.544-53.538-26.264z" fill="#ea412a"/>
   <path d="m310.23 775.14c7.791-28.638 59.435-8.6614 88.894-5.0508 45.139 5.5326 85.105 35.435 130.31 40.406 36.94 4.0619 74.197-4.8508 111.12-9.0914 18.261-2.0974 47.716-25.145 54.548-8.0812 5.2091 13.009-21.02 19.908-34.345 24.244-22.096 7.1895-46.467 0.69837-69.7 1.0102-27.274 0.36599-54.677 3.677-81.822 1.0102-24.318-2.3891-47.628-11.076-71.721-15.152-15.731-2.6612-31.709-3.6343-47.477-6.0609-20.628-3.1745-42.262-3.3081-61.619-11.112-6.756-2.7236-20.095-5.093-18.183-12.122z" fill="#f11212"/>
   <path d="m31.432 625.63c30.843-25.598 70.002 39.534 102.03 63.64 28.954 21.795 51.384 51.579 80.812 72.731 24.486 17.6 50.772 33.304 78.792 44.447 48.036 19.103 99.387 29.729 150.51 37.376 37.351 5.5862 76.128 13.589 113.14 6.0609 50.321-10.235 93.069-43.537 138.39-67.68 37.414-19.93 74.842-40.114 110.11-63.64 43.363-28.928 79.84-122.25 124.25-94.954 25.094 15.423 1.7928 63.524-16.162 86.873-22.953 29.849-68.757 30.852-102.03 48.487-27.604 14.632-51.952 35.512-80.812 47.477-38.25 15.858-81.445 16.758-120.21 31.315-40.882 15.353-73.75 54.004-117.18 58.589-29.401 3.1042-57.717-13.177-85.863-22.223-60.484-19.44-123.31-35.998-177.79-68.69-33.57-20.147-55.949-55.616-88.893-76.772-25.864-16.609-62.736-16.041-83.843-38.386-15.887-16.819-43.057-49.874-25.254-64.65z" fill="#ea412a"/>
   <path d="m478.93 910.5c-1.958-24.89 49.772-6.1426 73.741-13.132 27.974-8.1573 55.591-18.741 80.812-33.335 16.206-9.3773 26.571-28.775 44.447-34.345 29.94-9.33 62.854 9.1561 93.944 5.0508 19.318-2.5509 41.424-31.596 55.558-18.183 9.3612 8.8838-0.56694 28.678-10.102 37.376-23.23 21.19-62.319 8.9957-92.934 16.162-33.507 7.8436-65.324 22.188-98.995 29.294-30.894 6.5207-62.417 10.4-93.944 12.122-17.486 0.95479-51.155 16.448-52.528-1.0102z" fill="#d60707"/>
   <path d="m95.072 774.13c25.416-27.995 67.228 34.687 100.01 53.538 29.486 16.958 53.408 47.444 86.873 53.538 12.149 2.2124 24.018-6.9294 36.366-7.0711 14.004-0.16068 28.403 1.8951 41.416 7.0711 15.793 6.2816 27.498 20.159 42.426 28.284 9.6696 5.2632 19.697 10.185 30.305 13.132 41.57 11.549 86.086 26.137 128.29 17.173 15.083-3.2037 24.56-20.044 39.396-24.244 20.735-5.869 43.528 4.2762 64.65 0 32.241-6.5274 58.059-36.752 90.914-38.386 29.572-1.4701 88.345-3.1376 84.853 26.264-3.7405 31.495-64.35-2.2609-94.954 6.0609-40.396 10.984-72.027 44.549-112.13 56.569-39.288 11.776-81.22 13.445-122.23 14.142-58.099 0.98701-118.64 4.3008-173.75-14.142-49.518-16.574-90.767-52.231-132.33-83.843-34.344-26.121-67.788-54.194-95.964-86.873-5.5495-6.4363-19.855-14.921-14.142-21.213z" fill="#d70707"/>
   <path d="m638.43 261.36c9.4375 10.19 28.158-7.9022 37.485-18.193 10.202-11.256 20.919-28.458 15.783-42.755-2.4443-6.8042-11.899-13.249-18.742-10.916-9.9144 3.3803-7.656 19.506-11.838 29.11-2.803 6.438-5.6244 12.881-8.878 19.103-4.2302 8.0903-20.014 16.953-13.81 23.652z" fill="#f11313"/>
  </pattern>
  <clipPath id="f">
   <circle transform="matrix(.80699 0 0 .80699 160.48 431.7)" cx="-1754.3" cy="-176.21" r="545.71" fill="#840000" stroke="#2b0000" stroke-width="4"/>
  </clipPath>
  <filter id="g" x="-.4752" y="-.4752" width="1.9504" height="1.9504" color-interpolation-filters="sRGB">
   <feGaussianBlur stdDeviation="337.959"/>
  </filter>
 </defs>
 <g transform="translate(51.215 48.923)">
  <g transform="matrix(.076943 0 0 .076943 1609.1 -145.53)" clip-path="url(#e)">
   <circle cx="-19406" cy="3418.1" r="2164.9" fill="#b20604" fill-opacity=".98824"/>
   <circle cx="-19406" cy="3418.1" r="2121.3" fill="#8b0000" fill-opacity=".98824"/>
   <circle cx="-19406" cy="3418.1" r="2110.1" fill="#e40000"/>
   <rect transform="matrix(4.7915 0 0 4.7915 -13391 2030.9)" x="-1741.6" y="-219.77" width="945.98" height="981.07" clip-path="url(#f)" fill="url(#h)"/>
   <g transform="matrix(2.8075 -1.0827 1.4904 3.3534 -18902 2269.9)" stroke="#b50000">
    <circle transform="matrix(1.2895 0 0 1.2895 531.33 9.0409)" cx="-1045.7" cy="235.22" r="102.86" fill="#d00c0c" stroke-width="3.3566"/>
    <circle transform="matrix(1.0833 0 0 1.0833 315.71 57.541)" cx="-1045.7" cy="235.22" r="102.86" fill="#d50d0d" stroke-width="3.9955"/>
    <path d="m-817.16 200.94c-61.54 0-111.41 49.897-111.41 111.44 0 5.4882 0.38983 10.881 1.1562 16.156 8.0086-42.516 54.312-75.125 110.25-75.125 55.925 0 102.26 32.592 110.28 75.094 0.7634-5.2656 1.1562-10.648 1.1562-16.125 0-61.54-49.897-111.44-111.44-111.44z" fill="#b40c0c" stroke-width="4.3285"/>
    <path d="m-902.62 383.84c20.44 24.419 51.133 39.938 85.469 39.938s65.06-15.518 85.5-39.938c-22.412 18.5-52.476 29.812-85.5 29.812s-63.056-11.313-85.469-29.812z" fill="#c40707" stroke-width="4.3285"/>
    <path d="m-817.16 180.72c-72.698 0-131.62 58.958-131.62 131.66s58.927 131.62 131.62 131.62c23.394 0 45.368-6.1125 64.406-16.812-16.244 6.7573-34.219 10.531-53.125 10.531-72.586 0-131.44-55.347-131.44-123.59s58.852-123.56 131.44-123.56c27.22 0 52.493 7.7698 73.469 21.094-22.898-19.286-52.468-30.938-84.75-30.938z" fill="#d15b5b" opacity=".6788" stroke-width="4.3285"/>
   </g>
   <g transform="matrix(-.73778 1.521 -2.0719 -.72839 -19883 6708.4)" stroke="#b50000">
    <circle transform="matrix(1.2895 0 0 1.2895 531.33 9.0409)" cx="-1045.7" cy="235.22" r="102.86" fill="#d00c0c" stroke-width="3.3566"/>
    <circle transform="matrix(1.0833 0 0 1.0833 315.71 57.541)" cx="-1045.7" cy="235.22" r="102.86" fill="#d50d0d" stroke-width="3.9955"/>
    <path d="m-817.16 200.94c-61.54 0-111.41 49.897-111.41 111.44 0 5.4882 0.38983 10.881 1.1562 16.156 8.0086-42.516 54.312-75.125 110.25-75.125 55.925 0 102.26 32.592 110.28 75.094 0.7634-5.2656 1.1562-10.648 1.1562-16.125 0-61.54-49.897-111.44-111.44-111.44z" fill="#b40c0c" stroke-width="4.3285"/>
    <path d="m-902.62 383.84c20.44 24.419 51.133 39.938 85.469 39.938s65.06-15.518 85.5-39.938c-22.412 18.5-52.476 29.812-85.5 29.812s-63.056-11.313-85.469-29.812z" fill="#c40707" stroke-width="4.3285"/>
    <path d="m-817.16 180.72c-72.698 0-131.62 58.958-131.62 131.66s58.927 131.62 131.62 131.62c23.394 0 45.368-6.1125 64.406-16.812-16.244 6.7573-34.219 10.531-53.125 10.531-72.586 0-131.44-55.347-131.44-123.59s58.852-123.56 131.44-123.56c27.22 0 52.493 7.7698 73.469 21.094-22.898-19.286-52.468-30.938-84.75-30.938z" fill="#d15b5b" opacity=".6788" stroke-width="4.3285"/>
   </g>
   <g transform="matrix(1.2905 -.032833 .11891 1.5699 -19055 3501)" stroke="#b50000">
    <circle transform="matrix(1.2895 0 0 1.2895 531.33 9.0409)" cx="-1045.7" cy="235.22" r="102.86" fill="#d00c0c" stroke-width="3.3566"/>
    <circle transform="matrix(1.0833 0 0 1.0833 315.71 57.541)" cx="-1045.7" cy="235.22" r="102.86" fill="#d50d0d" stroke-width="3.9955"/>
    <path d="m-817.16 200.94c-61.54 0-111.41 49.897-111.41 111.44 0 5.4882 0.38983 10.881 1.1562 16.156 8.0086-42.516 54.312-75.125 110.25-75.125 55.925 0 102.26 32.592 110.28 75.094 0.7634-5.2656 1.1562-10.648 1.1562-16.125 0-61.54-49.897-111.44-111.44-111.44z" fill="#b40c0c" stroke-width="4.3285"/>
    <path d="m-902.62 383.84c20.44 24.419 51.133 39.938 85.469 39.938s65.06-15.518 85.5-39.938c-22.412 18.5-52.476 29.812-85.5 29.812s-63.056-11.313-85.469-29.812z" fill="#c40707" stroke-width="4.3285"/>
    <path d="m-817.16 180.72c-72.698 0-131.62 58.958-131.62 131.66s58.927 131.62 131.62 131.62c23.394 0 45.368-6.1125 64.406-16.812-16.244 6.7573-34.219 10.531-53.125 10.531-72.586 0-131.44-55.347-131.44-123.59s58.852-123.56 131.44-123.56c27.22 0 52.493 7.7698 73.469 21.094-22.898-19.286-52.468-30.938-84.75-30.938z" fill="#d15b5b" opacity=".6788" stroke-width="4.3285"/>
   </g>
   <g transform="matrix(.96975 .26025 -.25769 1.1971 -19819 3314.9)" stroke="#b50000">
    <circle transform="matrix(1.2895 0 0 1.2895 531.33 9.0409)" cx="-1045.7" cy="235.22" r="102.86" fill="#d00c0c" stroke-width="3.3566"/>
    <circle transform="matrix(1.0833 0 0 1.0833 315.71 57.541)" cx="-1045.7" cy="235.22" r="102.86" fill="#d50d0d" stroke-width="3.9955"/>
    <path d="m-817.16 200.94c-61.54 0-111.41 49.897-111.41 111.44 0 5.4882 0.38983 10.881 1.1562 16.156 8.0086-42.516 54.312-75.125 110.25-75.125 55.925 0 102.26 32.592 110.28 75.094 0.7634-5.2656 1.1562-10.648 1.1562-16.125 0-61.54-49.897-111.44-111.44-111.44z" fill="#b40c0c" stroke-width="4.3285"/>
    <path d="m-902.62 383.84c20.44 24.419 51.133 39.938 85.469 39.938s65.06-15.518 85.5-39.938c-22.412 18.5-52.476 29.812-85.5 29.812s-63.056-11.313-85.469-29.812z" fill="#c40707" stroke-width="4.3285"/>
    <path d="m-817.16 180.72c-72.698 0-131.62 58.958-131.62 131.66s58.927 131.62 131.62 131.62c23.394 0 45.368-6.1125 64.406-16.812-16.244 6.7573-34.219 10.531-53.125 10.531-72.586 0-131.44-55.347-131.44-123.59s58.852-123.56 131.44-123.56c27.22 0 52.493 7.7698 73.469 21.094-22.898-19.286-52.468-30.938-84.75-30.938z" fill="#d15b5b" opacity=".6788" stroke-width="4.3285"/>
   </g>
   <g transform="matrix(1.7034 -1.3628 1.764 1.9914 -17412 569.23)" stroke="#b50000">
    <circle transform="matrix(1.2895 0 0 1.2895 531.33 9.0409)" cx="-1045.7" cy="235.22" r="102.86" fill="#d00c0c" stroke-width="3.3566"/>
    <circle transform="matrix(1.0833 0 0 1.0833 315.71 57.541)" cx="-1045.7" cy="235.22" r="102.86" fill="#d50d0d" stroke-width="3.9955"/>
    <path d="m-817.16 200.94c-61.54 0-111.41 49.897-111.41 111.44 0 5.4882 0.38983 10.881 1.1562 16.156 8.0086-42.516 54.312-75.125 110.25-75.125 55.925 0 102.26 32.592 110.28 75.094 0.7634-5.2656 1.1562-10.648 1.1562-16.125 0-61.54-49.897-111.44-111.44-111.44z" fill="#b40c0c" stroke-width="4.3285"/>
    <path d="m-902.62 383.84c20.44 24.419 51.133 39.938 85.469 39.938s65.06-15.518 85.5-39.938c-22.412 18.5-52.476 29.812-85.5 29.812s-63.056-11.313-85.469-29.812z" fill="#c40707" stroke-width="4.3285"/>
    <path d="m-817.16 180.72c-72.698 0-131.62 58.958-131.62 131.66s58.927 131.62 131.62 131.62c23.394 0 45.368-6.1125 64.406-16.812-16.244 6.7573-34.219 10.531-53.125 10.531-72.586 0-131.44-55.347-131.44-123.59s58.852-123.56 131.44-123.56c27.22 0 52.493 7.7698 73.469 21.094-22.898-19.286-52.468-30.938-84.75-30.938z" fill="#d15b5b" opacity=".6788" stroke-width="4.3285"/>
   </g>
   <g transform="matrix(-2.3496 -1.8798 -2.4333 2.7469 -21726 -98.967)" stroke="#b50000">
    <circle transform="matrix(1.2895 0 0 1.2895 531.33 9.0409)" cx="-1045.7" cy="235.22" r="102.86" fill="#d00c0c" stroke-width="3.3566"/>
    <circle transform="matrix(1.0833 0 0 1.0833 315.71 57.541)" cx="-1045.7" cy="235.22" r="102.86" fill="#d50d0d" stroke-width="3.9955"/>
    <path d="m-817.16 200.94c-61.54 0-111.41 49.897-111.41 111.44 0 5.4882 0.38983 10.881 1.1562 16.156 8.0086-42.516 54.312-75.125 110.25-75.125 55.925 0 102.26 32.592 110.28 75.094 0.7634-5.2656 1.1562-10.648 1.1562-16.125 0-61.54-49.897-111.44-111.44-111.44z" fill="#b40c0c" stroke-width="4.3285"/>
    <path d="m-902.62 383.84c20.44 24.419 51.133 39.938 85.469 39.938s65.06-15.518 85.5-39.938c-22.412 18.5-52.476 29.812-85.5 29.812s-63.056-11.313-85.469-29.812z" fill="#c40707" stroke-width="4.3285"/>
    <path d="m-817.16 180.72c-72.698 0-131.62 58.958-131.62 131.66s58.927 131.62 131.62 131.62c23.394 0 45.368-6.1125 64.406-16.812-16.244 6.7573-34.219 10.531-53.125 10.531-72.586 0-131.44-55.347-131.44-123.59s58.852-123.56 131.44-123.56c27.22 0 52.493 7.7698 73.469 21.094-22.898-19.286-52.468-30.938-84.75-30.938z" fill="#d15b5b" opacity=".6788" stroke-width="4.3285"/>
   </g>
   <g transform="matrix(1.0547 -.8438 1.0922 1.233 -17877 1820.7)" stroke="#b50000">
    <circle transform="matrix(1.2895 0 0 1.2895 531.33 9.0409)" cx="-1045.7" cy="235.22" r="102.86" fill="#d00c0c" stroke-width="3.3566"/>
    <circle transform="matrix(1.0833 0 0 1.0833 315.71 57.541)" cx="-1045.7" cy="235.22" r="102.86" fill="#d50d0d" stroke-width="3.9955"/>
    <path d="m-817.16 200.94c-61.54 0-111.41 49.897-111.41 111.44 0 5.4882 0.38983 10.881 1.1562 16.156 8.0086-42.516 54.312-75.125 110.25-75.125 55.925 0 102.26 32.592 110.28 75.094 0.7634-5.2656 1.1562-10.648 1.1562-16.125 0-61.54-49.897-111.44-111.44-111.44z" fill="#b40c0c" stroke-width="4.3285"/>
    <path d="m-902.62 383.84c20.44 24.419 51.133 39.938 85.469 39.938s65.06-15.518 85.5-39.938c-22.412 18.5-52.476 29.812-85.5 29.812s-63.056-11.313-85.469-29.812z" fill="#c40707" stroke-width="4.3285"/>
    <path d="m-817.16 180.72c-72.698 0-131.62 58.958-131.62 131.66s58.927 131.62 131.62 131.62c23.394 0 45.368-6.1125 64.406-16.812-16.244 6.7573-34.219 10.531-53.125 10.531-72.586 0-131.44-55.347-131.44-123.59s58.852-123.56 131.44-123.56c27.22 0 52.493 7.7698 73.469 21.094-22.898-19.286-52.468-30.938-84.75-30.938z" fill="#d15b5b" opacity=".6788" stroke-width="4.3285"/>
   </g>
   <g transform="matrix(-1.0547 -.8438 -1.0922 1.233 -20554 639.67)" stroke="#b50000">
    <circle transform="matrix(1.2895 0 0 1.2895 531.33 9.0409)" cx="-1045.7" cy="235.22" r="102.86" fill="#d00c0c" stroke-width="3.3566"/>
    <circle transform="matrix(1.0833 0 0 1.0833 315.71 57.541)" cx="-1045.7" cy="235.22" r="102.86" fill="#d50d0d" stroke-width="3.9955"/>
    <path d="m-817.16 200.94c-61.54 0-111.41 49.897-111.41 111.44 0 5.4882 0.38983 10.881 1.1562 16.156 8.0086-42.516 54.312-75.125 110.25-75.125 55.925 0 102.26 32.592 110.28 75.094 0.7634-5.2656 1.1562-10.648 1.1562-16.125 0-61.54-49.897-111.44-111.44-111.44z" fill="#b40c0c" stroke-width="4.3285"/>
    <path d="m-902.62 383.84c20.44 24.419 51.133 39.938 85.469 39.938s65.06-15.518 85.5-39.938c-22.412 18.5-52.476 29.812-85.5 29.812s-63.056-11.313-85.469-29.812z" fill="#c40707" stroke-width="4.3285"/>
    <path d="m-817.16 180.72c-72.698 0-131.62 58.958-131.62 131.66s58.927 131.62 131.62 131.62c23.394 0 45.368-6.1125 64.406-16.812-16.244 6.7573-34.219 10.531-53.125 10.531-72.586 0-131.44-55.347-131.44-123.59s58.852-123.56 131.44-123.56c27.22 0 52.493 7.7698 73.469 21.094-22.898-19.286-52.468-30.938-84.75-30.938z" fill="#d15b5b" opacity=".6788" stroke-width="4.3285"/>
   </g>
   <g transform="matrix(-1.6736 .27667 .080159 1.8495 -22636 2834.1)" stroke="#b50000">
    <circle transform="matrix(1.2895 0 0 1.2895 531.33 9.0409)" cx="-1045.7" cy="235.22" r="102.86" fill="#d00c0c" stroke-width="3.3566"/>
    <circle transform="matrix(1.0833 0 0 1.0833 315.71 57.541)" cx="-1045.7" cy="235.22" r="102.86" fill="#d50d0d" stroke-width="3.9955"/>
    <path d="m-817.16 200.94c-61.54 0-111.41 49.897-111.41 111.44 0 5.4882 0.38983 10.881 1.1562 16.156 8.0086-42.516 54.312-75.125 110.25-75.125 55.925 0 102.26 32.592 110.28 75.094 0.7634-5.2656 1.1562-10.648 1.1562-16.125 0-61.54-49.897-111.44-111.44-111.44z" fill="#b40c0c" stroke-width="4.3285"/>
    <path d="m-902.62 383.84c20.44 24.419 51.133 39.938 85.469 39.938s65.06-15.518 85.5-39.938c-22.412 18.5-52.476 29.812-85.5 29.812s-63.056-11.313-85.469-29.812z" fill="#c40707" stroke-width="4.3285"/>
    <path d="m-817.16 180.72c-72.698 0-131.62 58.958-131.62 131.66s58.927 131.62 131.62 131.62c23.394 0 45.368-6.1125 64.406-16.812-16.244 6.7573-34.219 10.531-53.125 10.531-72.586 0-131.44-55.347-131.44-123.59s58.852-123.56 131.44-123.56c27.22 0 52.493 7.7698 73.469 21.094-22.898-19.286-52.468-30.938-84.75-30.938z" fill="#d15b5b" opacity=".6788" stroke-width="4.3285"/>
   </g>
   <g transform="matrix(1.5015 -1.1903 1.555 1.7394 -17395 3025)" stroke="#b50000">
    <circle transform="matrix(1.2895 0 0 1.2895 531.33 9.0409)" cx="-1045.7" cy="235.22" r="102.86" fill="#d00c0c" stroke-width="3.3566"/>
    <circle transform="matrix(1.0833 0 0 1.0833 315.71 57.541)" cx="-1045.7" cy="235.22" r="102.86" fill="#d50d0d" stroke-width="3.9955"/>
    <path d="m-817.16 200.94c-61.54 0-111.41 49.897-111.41 111.44 0 5.4882 0.38983 10.881 1.1562 16.156 8.0086-42.516 54.312-75.125 110.25-75.125 55.925 0 102.26 32.592 110.28 75.094 0.7634-5.2656 1.1562-10.648 1.1562-16.125 0-61.54-49.897-111.44-111.44-111.44z" fill="#b40c0c" stroke-width="4.3285"/>
    <path d="m-902.62 383.84c20.44 24.419 51.133 39.938 85.469 39.938s65.06-15.518 85.5-39.938c-22.412 18.5-52.476 29.812-85.5 29.812s-63.056-11.313-85.469-29.812z" fill="#c40707" stroke-width="4.3285"/>
    <path d="m-817.16 180.72c-72.698 0-131.62 58.958-131.62 131.66s58.927 131.62 131.62 131.62c23.394 0 45.368-6.1125 64.406-16.812-16.244 6.7573-34.219 10.531-53.125 10.531-72.586 0-131.44-55.347-131.44-123.59s58.852-123.56 131.44-123.56c27.22 0 52.493 7.7698 73.469 21.094-22.898-19.286-52.468-30.938-84.75-30.938z" fill="#d15b5b" opacity=".6788" stroke-width="4.3285"/>
   </g>
   <path d="m-17919 1877.9a2164.9 2164.9 0 0 1 135.06 1000.3 2164.9 2164.9 0 0 1 -2372.3 1935.3 2164.9 2164.9 0 0 1 -1229.1 -547.34 2164.9 2164.9 0 0 0 1800.3 1372 2164.9 2164.9 0 0 0 2372.3 -1935.3 2164.9 2164.9 0 0 0 -706.17 -1825z" fill="#4a0302" fill-opacity=".98824" opacity=".415"/>
   <g transform="matrix(-1.405 -.12049 -.03422 2.1219 -18764 2650.3)" stroke="#b50000">
    <circle transform="matrix(1.2895 0 0 1.2895 531.33 9.0409)" cx="-1045.7" cy="235.22" r="102.86" fill="#d00c0c" stroke-width="3.3566"/>
    <circle transform="matrix(1.0833 0 0 1.0833 315.71 57.541)" cx="-1045.7" cy="235.22" r="102.86" fill="#d50d0d" stroke-width="3.9955"/>
    <path d="m-817.16 200.94c-61.54 0-111.41 49.897-111.41 111.44 0 5.4882 0.38983 10.881 1.1562 16.156 8.0086-42.516 54.312-75.125 110.25-75.125 55.925 0 102.26 32.592 110.28 75.094 0.7634-5.2656 1.1562-10.648 1.1562-16.125 0-61.54-49.897-111.44-111.44-111.44z" fill="#b40c0c" stroke-width="4.3285"/>
    <path d="m-902.62 383.84c20.44 24.419 51.133 39.938 85.469 39.938s65.06-15.518 85.5-39.938c-22.412 18.5-52.476 29.812-85.5 29.812s-63.056-11.313-85.469-29.812z" fill="#c40707" stroke-width="4.3285"/>
    <path d="m-817.16 180.72c-72.698 0-131.62 58.958-131.62 131.66s58.927 131.62 131.62 131.62c23.394 0 45.368-6.1125 64.406-16.812-16.244 6.7573-34.219 10.531-53.125 10.531-72.586 0-131.44-55.347-131.44-123.59s58.852-123.56 131.44-123.56c27.22 0 52.493 7.7698 73.469 21.094-22.898-19.286-52.468-30.938-84.75-30.938z" fill="#d15b5b" opacity=".6788" stroke-width="4.3285"/>
   </g>
   <circle cx="-20323" cy="2483.8" r="853.43" fill="#fff" fill-opacity=".98824" filter="url(#g)" opacity=".329"/>
  </g>
 </g>
</svg>
