<?xml version="1.0" encoding="UTF-8"?>
<!DOCTYPE svg  PUBLIC '-//W3C//DTD SVG 1.1//EN'  'http://www.w3.org/Graphics/SVG/1.1/DTD/svg11.dtd'>
<svg enable-background="new -18.4419 -118.9399 820.4419 1011.5418" version="1.1" viewBox="-18.4419 -118.9399 820.4419 1011.5418" xml:space="preserve" xmlns="http://www.w3.org/2000/svg" xmlns:xlink="http://www.w3.org/1999/xlink">
		<path d="m732.11 565.25c2.3025 9.9774-3.0699 18.727-4.298 16.271 0.307-0.614 2.456-6.2935 0.7675-15.657-1.0745-9.2099-3.991-15.043-3.684-15.81 0.921-1.535 6.2935 5.2189 7.3679 15.043l-0.1534 0.1535z" fill="#2B2A29"/>
		<path d="m591.5 606.7s9.6704 11.819 9.0564 33.156-5.3724 56.641-8.5959 71.838c-3.0699 15.196-6.754 53.878 5.219 58.483 7.9819 3.0699 16.271 2.149 22.871 1.228 3.2235-0.4605 6.2935-0.921 8.5959-0.921 7.2145 0 17.345-2.9165 17.345-2.9165s18.113-11.819 20.262-42.673c1.9955-30.853-4.4515-81.354-5.3724-83.503-0.921-2.3025-7.5215-29.318-7.5215-29.318s-27.783 5.219-39.142 2.763-22.871-8.1354-22.871-8.1354h0.1535z" fill="#ccf"/>
		<path d="m779.84 662.42s5.5259 30.853 10.284 35.612c4.7585 4.605 4.605 17.345 4.7585 27.63 0.1534 10.284-0.4605 17.806-2.763 21.95s-9.3635 9.21-9.3635 9.21l-114.97 14.275s-15.503 2.3025-20.108 2.3025-10.898-2.9164-10.898-2.9164 14.122 1.0745 21.183-23.025c6.9075-24.099 6.2935-65.698 6.2935-65.698l-3.2234-31.928s-1.0745 13.047 11.666 14.889 42.366 1.0745 42.366 1.0745 1.6885 22.411 13.508 25.02c11.819 2.6095 22.257 0.7675 22.257 0.7675s7.8285-7.061 7.368-12.74-1.9955-14.736-1.9955-14.736l16.731 0.614 7.061-1.9955-0.1536-0.3071z" fill="#99f"/>
		<path d="m619.13 551.28s55.874-10.745 70.763-11.512c14.889-0.921 38.835 2.3025 46.51 3.991 7.8284 1.6885 17.806 5.3724 23.485 12.28s15.657 27.476 18.727 35.765c2.9165 8.2889 12.433 38.528 12.74 47.892 0.307 9.3635 2.9165 11.666-4.7585 17.652-7.6749 5.9865-13.354 7.061-17.038 7.2145-3.8375 0.1535-13.354-0.921-13.354-0.921l-2.763-15.503-19.034 0.921s-17.959-3.991-18.573 3.07c-0.614 7.0609-0.614 15.196-0.614 15.196s-16.424 0.921-24.56 2.3025c-8.1354 1.228-23.485-1.0745-26.095-6.754-2.6095-5.6794-5.6794-21.183-5.6794-21.183s-8.1354-33.002-7.5215-37.454c0.614-4.4515-4.605-22.564-4.605-22.564-3.991-6.447-14.429-20.108-18.573-26.555l-8.903-4.1445-0.1535 0.3069z" fill="#f00"/>
		<path d="m672.09 519.2s12.587-4.1445 23.485-1.535 21.183 9.6704 22.104 12.126c0.7675 2.456 1.228 11.052 1.228 11.052l-11.512-1.535s-2.763-9.6705-11.052-10.284c-8.2889-0.614-25.481 3.5305-26.248 4.9119-0.7675 1.3815 0.7675 7.061 0.7675 7.061l-14.122 0.7675s-4.1445-9.21-1.535-13.354c2.456-4.1445 4.1445-5.8329 5.526-6.447 1.3815-0.614 11.512-2.763 11.512-2.763h-0.1536z" fill="#DE971C"/>
		<path d="m736.71 646.76s-21.336 1.9955-21.029 5.6794c0.307 3.684-1.535 16.117 1.3815 22.257 2.9165 6.2935 3.684 14.582 13.201 16.117s22.564 1.3815 24.406-2.9164c1.842-4.1445 2.6094-6.6005 3.5305-9.517 0.921-2.9164-2.9165-31.314-4.4515-32.235s-16.885 0.4605-16.885 0.4605l-0.1535 0.1535z" fill="#EBD46E"/>
		<path d="m601.32 563.87s-7.8284-3.8375-11.205-1.228-10.745 16.885-11.819 20.569c-1.0745 3.684-7.2145 40.063-7.8285 46.357-0.7675 6.2935-6.447 32.849-9.5169 41.905-3.07 9.0565-13.968 34.537-16.424 43.747-2.6095 9.3634-1.6885 29.625 3.0699 39.142 4.7585 9.3635 4.1445 9.6705 10.591 12.126 6.447 2.4559 11.973 3.0699 14.122 2.6094 2.149-0.3069 5.5259-0.3069 7.8284-1.228 2.3025-0.7675 9.21-5.3725 9.21-5.3725l3.991-8.9029-3.2235-17.499s-9.6704 12.74-15.35 11.052c-5.6794-1.6885-12.587-10.745-13.968-15.657-1.228-4.912-2.149-19.187-0.921-27.937 1.228-8.7495 5.3725-27.016 9.21-33.002 3.684-5.9865 10.591-32.081 11.205-37.3 0.614-5.3724 1.0745-21.336 1.842-27.63s4.4515-23.792 7.9819-27.783 7.675-2.763 7.675-2.763l4.298-5.219-0.614-6.14-0.1535 0.1537z" fill="#f9c"/>
		<path d="m638.78 572.31c7.675 11.205 13.047 24.253 14.889 37.607-9.8239 8.1355-42.059 8.289-56.488 0-1.9955-0.921-7.9819-5.3724-6.754-14.275 1.3815-8.903 7.2145-20.415 7.2145-20.415l5.2189-10.131c9.9774-17.959 21.643-17.345 35.765 7.0609l0.1535 0.1535z" fill="#7A5C28"/>
		<path d="m720.59 657.81s1.842 19.955 6.2935 23.792c4.4515 3.8375 17.959 2.9164 17.959 2.9164s-8.903 0-13.968-7.2144c-5.0656-7.2145-10.284-19.494-10.284-19.494z" fill="#FEFEFE"/>
		<path d="m772.48 602.55s-10.438-36.379-36.84-44.515c-17.499-5.3724-52.497-6.2935-74.447-6.2935-11.359 0-19.187 0.307-19.187 0.307s29.932-4.1445 56.334-4.1445c6.754 0 13.354 0.307 19.187 0.921 28.397 3.377 38.068 12.587 45.282 24.867 7.2144 12.126 9.5169 29.011 9.5169 29.011l0.1536-0.1535z" fill="#FFB061"/>
		<path d="m682.83 757.12c-8.7494 0-15.35-0.307-15.35-0.307s4.6049-14.889 7.0609-34.077-3.0699-37.607-3.0699-37.607 10.438 25.327 9.3634 37.607-3.2234 24.253-1.3815 28.09c0.7675 1.535 9.517 1.9955 19.801 1.9955 15.043 0 33.002-0.921 33.002-0.921s-11.512 2.763-27.937 4.4515c-7.0609 0.7675-14.889 0.921-21.49 0.921v-0.1535z" fill="#D5DDFF"/>
		<path d="m654.13 641.85l-0.4605-2.4559c0.307 1.3814 0.4605 2.4559 0.4605 2.4559zm-0.4605-2.456c-0.7675-3.07-2.763-8.1355-8.2889-8.7495-0.614-0.1535-1.3815-0.1535-1.9955-0.1535-3.07 0-5.6794 0.921-7.8284 1.6885-2.149 0.921-3.991 1.6885-5.526 1.6885-0.307 0-0.7675 0-1.0745-0.1535-3.684-1.0745-6.14-11.819-6.14-11.819s3.377 0.921 7.6749 0.921c1.535 0 3.2235-0.1535 4.912-0.4604 6.2935-1.228 14.889-3.5305 14.889-3.5305l3.377 20.569z" fill="#F3F5FF"/>
		<path d="m566.48 763.88c-4.4515 0-9.9774-1.535-13.508-7.8284-7.061-12.28-0.7675-43.44-0.7675-43.44s0.4605 19.801 3.5305 36.226c2.3025 12.28 11.666 13.815 16.117 13.815 1.3815 0 2.3025-0.1535 2.3025-0.1535s-3.3771 1.3814-7.675 1.3814z" fill="#FFD5F1"/>
		<path d="m745.46 585.51s3.684 12.28 0.307 13.968-15.81 0.307-15.81 0.307-35.919 7.5215-37.454 4.298c-1.535-3.2234-1.535-13.815-1.535-13.815s37.147-5.3725 38.375-5.0655c1.0745 0.307 17.806 0 17.806 0l-1.535 0.1535-0.1535 0.1535z" fill="#F0837F"/>
		<path d="m655.51 613.91c3.684 27.476 9.517 47.431 9.3635 47.892-1.228 1.0745-9.0565-20.108-12.587-46.971 0.921-29.165-29.472-63.395-32.849-62.014 3.8374-8.4425 36.686 25.174 36.072 61.093z" fill="#35312F"/>
		<path d="m756.67 550.05c14.736 12.433 19.648 32.542 25.788 48.045 5.0655 16.271 11.205 30.853 10.438 45.129-0.4604 16.271-13.508 19.341-18.266 20.722-5.9865 1.228-9.21 2.149-9.3634 1.842-0.1535-0.307 3.0699-1.6885 9.0564-3.5305 5.0655-1.842 16.271-5.3725 15.964-19.187 0.614-12.587-5.6795-27.169-10.898-43.287-6.2935-15.196-11.359-34.844-24.867-45.896-61.553-28.704-135.69 2.763-135.08-3.5305-0.9209 4.1445 72.144-30.7 137.23-0.307z" fill="#35312F"/>
		<path d="m689.13 669.17c12.587 0.3069 22.718-5.526 23.025-3.2235 0.3069 1.842-10.131 5.5259-23.332 5.219-13.201-0.7675-23.332-4.912-23.025-6.754 0.307-2.149 10.898 4.1445 23.485 4.9119l-0.1536-0.1534z" fill="#35312F"/>
		<path d="m758.81 663.64c0.921 10.591-1.228 19.034-2.149 18.727-1.228-0.307-0.7675-8.2889-1.6885-18.113-1.228-9.6705-3.0699-17.345-1.9955-18.113 0.7675-0.6139 4.6049 6.9075 5.833 17.499z" fill="#35312F"/>
		<path d="m718.6 669.02c2.7629 7.9819 3.684 17.499 9.2099 18.573 5.3725 2.149 11.359 1.9955 15.81 1.535 9.9774-0.614 11.819-7.9819 12.28-7.9819 1.0745-0.4605-0.921 10.131-11.82 11.666-4.9119 0.921-10.745 1.535-17.652-0.614-8.4424-2.763-9.3635-14.122-12.126-21.643-2.763-7.675-2.9165-21.797 6.14-24.713 7.5214-1.6885 12.433 1.3815 17.192 0.1534 9.3634-0.7675 15.657-0.4604 15.503 0.1535-0.1535 0.7675-5.6794 1.842-15.35 3.5305-4.7584 1.535-11.359-0.921-16.271 0.7675-5.2189 1.535-5.5259 10.438-3.0699 18.266l0.1534 0.307z" fill="#35312F"/>
		<path d="m744.69 594.42c0.614-10.591-5.9865-6.447-14.275-6.2935-7.8284 0.921-14.889 1.842-20.876 2.456-11.973 1.3815-19.648 0.614-19.648-0.1535 0-1.0745 7.368-1.9955 19.034-4.4515 5.8329-1.228 13.047-2.6095 20.876-3.8375 3.684-0.614 7.8285-1.9955 12.74-1.842 2.149 0.1535 6.9075 0.7675 7.675 5.6795 0.7675 2.6095 0 10.591-0.614 12.74-1.535 4.9119-1.6885 4.1445-3.991 5.6794-2.149 1.535-5.6795 0.1535-7.8285 0.1535-4.298-0.307-8.2889-0.307-12.433-0.614-8.1354-0.4604-14.736-1.3815-20.722 0-5.6794 0.307-11.819 2.9165-14.429-3.0699-0.4605-3.991-0.307-6.447 0-6.447 0.4605 0 0.921 1.9955 1.9955 5.9865-0.1535 1.228 6.447 0.614 11.666-1.0745 5.833-1.9955 13.661-1.6885 21.336-1.535 5.526-0.921 18.573 7.061 19.034-3.377h0.4605z" fill="#35312F"/>
		<path d="m685.44 520.74c-11.359 1.0745-25.788 1.228-28.244 7.5214-2.456 6.754 0.3069 11.512-0.4605 11.666 0 0.3069-4.1445-4.1445-1.9955-12.434 4.6049-9.3634 18.42-8.5959 30.7-10.131 12.894 0.1535 25.481 3.2235 31.007 10.284 4.9119 7.368 1.535 12.74 1.842 12.587-1.228 0.1535 0.7675-5.2189-3.991-11.052-5.0655-5.526-16.578-8.1355-28.858-8.2889v-0.1535z" fill="#35312F"/>
		<path d="m686.82 531.02c-6.754 0-13.661 1.228-16.424 3.991-1.9955 3.0699 2.3025 5.3724 1.228 5.5259 0.7675 0-4.605-1.0745-2.6095-6.2935 3.377-3.991 10.438-5.0654 17.652-5.2189 16.117-1.9955 23.178 10.898 21.95 10.438-0.4605 0.614-6.754-10.438-22.104-8.5959l0.307 0.1535z" fill="#35312F"/>
		<path d="m667.48 707.24c-1.228 19.341-3.8375 37.147-10.131 48.506-6.9074 10.284-12.587 13.968-12.894 13.661-0.7675-0.7675 4.4514-5.9865 10.131-15.964 4.7584-10.131 7.0609-27.783 8.1354-46.51 0.921-18.88-1.535-35.612-3.8375-48.045-2.3025-12.74 0.307-21.029 0.7675-20.569 0.7675 0.307-0.4604 7.8284 2.456 19.801 3.07 11.819 6.2935 29.625 5.3725 49.273v-0.1535z" fill="#35312F"/>
		<path d="m596.57 713.99c-2.456 15.503-6.6005 29.472-3.684 40.37 3.684 10.438 11.973 16.271 19.801 15.81 15.657-1.0745 27.016-1.9955 26.709 0.1535-0.4605 0.4605-9.21 3.5305-26.709 6.2935-8.7495 1.6885-21.183-4.7585-26.402-19.341-4.298-15.35 0.7675-30.546 2.763-44.822 3.991-30.086 9.9774-58.023 11.512-76.75 0.4605-9.5169-3.377-15.503-5.5259-21.029-2.149-5.3724-1.535-9.2099-1.228-9.0564 0.7675 0 1.0745 2.9164 3.8375 7.2144 2.4559 3.991 8.1354 11.359 8.2889 22.564-0.4605 21.49-5.3725 47.892-9.517 78.438l0.1536 0.1536z" fill="#35312F"/>
		<path d="m716.6 762.19c35.612-6.447 64.623-6.2935 64.316-7.675 0.921 4.912-28.551 7.675-63.702 14.122-17.345 3.5305-34.537 4.9119-46.05 2.6094-11.666-1.3815-18.113 2.456-18.573 1.3815-0.4605-0.614 6.447-6.14 18.573-5.9865 12.126 0.921 27.169-0.921 45.282-4.4515h0.1535z" fill="#35312F"/>
		<path d="m795.65 708.47c2.6095 14.736 2.3025 29.165-1.9955 38.221-4.4515 9.0565-10.438 9.9774-10.284 9.8239-0.4605-0.921 4.7585-2.9164 7.9819-11.205 3.2235-8.1355 3.377-21.797 0.7675-35.612-3.2235-13.508-9.517-25.02-11.82-34.384-2.7629-9.3635-2.149-15.81-1.6885-15.657-0.921 1.0745 7.061 20.876 17.192 48.966l-0.1534-0.1536z" fill="#35312F"/>
		<path d="m617.44 613.45c19.955 3.8375 35.765-3.8375 36.072-2.3025 0.4605 0.307-15.503 9.8239-36.379 5.9865-10.131-1.228-19.648-4.4515-24.867-10.591-5.2189-7.3679-1.0745-13.508-1.3815-12.894 0.921 0-1.842 5.8329 2.7629 11.052 4.7586 4.7584 13.815 7.5214 23.792 8.7494z" fill="#35312F"/>
		<path d="m594.72 584.74c-2.763 6.9075-4.1445 12.894-5.219 12.74-0.7675 0-0.4604-6.9074 2.456-14.429 4.912-15.657 20.722-34.998 28.551-30.546-5.8329-0.307-22.257 13.661-25.941 32.081l0.1535 0.1536z" fill="#35312F"/>
		<path d="m555.89 687.28c-7.0609 17.652-13.354 36.84-10.591 54.646 2.149 18.727 13.047 26.862 20.569 25.941 8.5959-1.0745 15.657-0.7675 19.955-3.991 4.4515-3.07 5.219-7.8284 5.526-7.368 0-0.307-0.4605 5.3725-5.0655 9.21-4.4515 3.991-11.819 3.991-20.415 5.8329-8.903 1.9955-21.336-8.1354-23.332-28.397-3.2235-20.108 3.684-40.831 10.745-58.483 19.341-32.849 14.122-75.982 23.946-101.62 3.8375-12.74 9.3635-22.411 14.889-23.025 5.219-0.614 7.5215 2.9165 7.368 2.763-0.1535 0.7675-2.6095-2.149-7.2145-0.921-4.7585 1.0745-9.6704 10.131-13.047 22.718-8.7495 23.332-3.8375 69.689-23.332 102.84v-0.1534z" fill="#35312F"/>
		<path d="m569.24 674.54c-5.219 13.815-9.5169 28.09-9.3635 41.905 0.307 13.508 4.4515 26.248 10.898 27.937 13.661 6.447 18.113-11.359 18.266-9.6704 0.614-1.535-3.684 18.42-18.573 12.28-7.3679-1.6885-12.28-15.964-12.587-30.393-0.3069-15.043 4.1445-30.086 9.517-44.054 13.815-26.095 10.745-57.562 15.196-78.592 1.9955-10.284 5.5259-18.42 9.6704-20.108 3.8375-1.3815 5.8329 0.921 5.8329 0.7675 0.614-0.307-10.898-3.684-13.815 20.108-3.8375 19.341-0.7675 53.264-14.889 79.666l-0.1534 0.1534z" fill="#35312F"/>
		<path d="m615.45 640.47c2.149 18.42 2.456 32.849 2.456 33.002-1.0745 0.307-2.6095-14.889-4.605-32.388-2.7629-17.652-13.201-27.937-11.819-28.858-0.4605-1e-4 10.745 9.3633 13.968 28.244z" fill="#35312F"/>
		<polygon points="120.57 808.24 128.7 799.49 541.92 772.17 551.59 778.15 499.25 802.56 501.86 849.38 570.32 866.11 579.07 876.24 91.708 886.83 100.3 876.24 135.76 869.64 151.57 817.3" fill="#E9E8DF"/>
		<path d="m152.49 645.07s78.131 47.738 68.768 62.474-43.133 25.941-79.82-32.849-50.041-50.194-62.781-43.44-48.813-14.429-63.242-46.05 54.185-26.248 137.07 59.865z" fill="#ccf"/>
		<path d="m148.2 649.52c-0.307 12.126 11.359 21.95 16.117 32.695 2.763 5.0655 5.526 10.591 6.4469 15.503 0.614 1.6885 6.447 3.2235 9.8239 2.6095 8.4424-0.307 10.438-6.9075 8.4424-11.512-1.535-4.605-3.5305-7.3679-3.991-8.4424-1.228-2.456-0.614-2.9164 1.3815-0.921 0.7675 0.921 4.4515 4.1445 6.447 11.052 1.535 4.298-0.614 8.4424-4.4515 11.359 2.456 0 5.219-0.614 8.1355-2.9165 7.8284-5.6794 3.8375-12.433 3.684-13.354 0-0.614 0.4605-1.228 1.0745-1.228 0.4605 0 3.991 1.9955 4.605 6.754 0.921 4.605-2.3025 9.9774-5.6795 12.28 2.3025 1.228 5.3725 1.535 8.4424-1.6885 7.0609-7.061 2.456-12.894 2.149-13.968 0-0.614 0.307-1.228 1.0745-1.228 0.4605 0 3.2235 1.228 4.912 4.7585 1.535-2.9165 1.6885-6.9075-3.991-11.512-7.5215-11.052-6.754-18.88-6.754-22.564-2.763 1.0745-4.605 1.6885-5.3725 1.9955-1.842 0.4605-2.149-0.307-0.614-1.535 2.9165-1.9955 36.379-20.876 56.027-37.761 16.578-13.201 29.625-27.323 37.761-36.686 0-1.842-0.1535-3.0699-0.307-3.991l-2.3025 0.921c-25.941 8.5959-52.65-10.591-75.522-28.551-1.6885 5.0655-17.499 39.296-24.253 48.199-5.0655 6.9075-11.819 14.736-20.262 22.718-6.9075 9.0564-22.411 14.582-23.178 26.709l0.1538 0.307z" fill="#EFA97E"/>
		<path d="m198.24 657.35s77.056-42.212 71.377-59.404-61.707 7.061-93.941 43.44c-32.235 36.379 52.343 50.962 22.564 15.964z" fill="#F9C090"/>
		<path d="m200.23 657.96c2.9165-1.9955 36.379-20.876 56.027-37.761 17.345-13.815 31.007-28.704 38.989-38.068 0.1535 1.6885 0.614 3.377 0.7675 5.0654-7.0609 9.6705-18.727 23.332-36.226 37.607-30.393 24.867-55.72 33.463-58.944 34.537-1.842 0.4605-2.149-0.307-0.614-1.535v0.1535z" fill="#C4653D"/>
		<path d="m165.85 620.66c8.1354-7.3679 15.35-14.736 20.876-21.49 8.7495-10.131 24.713-43.287 26.862-48.045 0.7675 0.1535 1.535 0.4605 2.3025 0.614-1.535 4.7585-16.424 37.761-24.253 48.199-5.0655 6.9075-11.819 14.736-20.262 22.718-6.9075 9.0565-22.411 14.582-23.178 26.709-0.307 12.126 11.359 21.95 16.117 32.695 2.763 5.0655 5.526 10.591 6.4469 15.503 0.614 1.6885 6.447 3.2235 9.8239 2.6095 8.4424-0.307 10.438-6.9075 8.4424-11.512-1.535-4.605-3.5305-7.3679-3.991-8.4424-1.228-2.456-0.614-2.9164 1.3815-0.921 0.7675 0.921 4.4515 4.1445 6.447 11.052 3.2235 8.7494-9.2099 17.038-19.494 13.968-2.456-0.614-6.14-1.3815-7.6749-5.9865-0.614-2.149-1.3815-4.298-2.6095-6.6005-2.3025-4.605-4.912-9.21-7.8284-13.661-5.219-8.5959-14.275-17.652-13.047-29.472 2.3025-16.271 17.192-20.108 23.639-28.09v0.1535z" fill="#C4653D"/>
		<path d="m62.082 527.03c5.3725-4.4515 11.359-5.9865 16.885-7.675l8.4424-1.842 1.0745-0.1535c0.1535-1.0745 0.307-2.149 0.614-3.2234 2.763-8.4425 15.657-11.052 17.192-9.21 4.1445-5.0655 8.2889-9.9774 12.28-14.736 2.6095-2.763 18.573-19.494 21.183-21.95 0.921 0.7675 1.842 1.535 4.605 2.763-2.763 2.763-16.885 17.652-19.801 20.722-4.298 4.4514-7.9819 9.8239-12.433 15.043-9.6704 5.219-14.736 2.9165-17.345 9.21-1.6885 2.6095 3.2235 0.4605-4.1445 6.754l-5.3725 1.0745c-3.5305 0.7675-6.9075 1.6885-10.131 2.6095-3.07 1.0745-6.14 2.3025-8.2889 3.991l-1.535 1.228c-5.526 1.9955-2.763 0.4605-4.4515 0.921-1.3815 0-2.6095 0.307-3.684 0.614-4.298 2.3025-3.991 5.3724 1.842 5.5259l3.684 0.1535h2.3025c1.9955 9.6704 0.4605 2.763 0.921 4.912l-0.307 0.1535-0.307 0.1535h-0.1535l-0.4605 0.1534c-2.3025 0.7675-4.4515 1.6885-6.2935 2.763-8.9029 3.377-7.2145 12.74-3.07 12.126 4.298-1.0745 7.061-4.6049 7.9819-5.2189 2.149-1.842 2.763-1.535 1.228 1.0745-1.228 0.1535-2.6095 7.675-12.433 6.447-7.2145-5.0654-3.2235-13.201 3.2235-18.113-2.456-0.4605-5.219-1.6885-6.2935-5.5259-1.6885-10.438 13.201-11.359 13.354-11.205l-0.3069 0.4602z" fill="#C4653D"/>
		<path d="m690.51 626.5c-1.6885 7.5214-3.684 16.885-1.3815 24.406-91.946-9.5169-184.66-12.433-276.91-12.894-123.87-0.7675-248.05 2.3025-371.77 10.745-14.429 0.921-28.858 2.149-43.133 3.2235-1.6885 0.1535-3.8375 1.228-3.991 0-0.307-2.456-0.7675-4.7585-1.0745-7.2145-0.614-3.5305-1.0745-7.061-1.535-10.591 0-0.307-0.1535-0.4605-0.4605-0.614 99.621-5.5259 199.24-9.8239 299.02-13.201 77.21-2.6095 154.42-4.7585 231.63-4.912 52.036-0.1535 106.37-2.149 157.8 6.6005 4.298 0.7675 8.903 1.535 13.201 3.2234-0.614 0.307-1.0745 0.614-1.228 1.228h-0.1533z" fill="#C78E44"/>
		<path d="m620.97 726.27c-17.192-3.991-35.765-3.8375-53.264-4.4515-32.388-0.921-64.777-0.614-97.165 0-79.206 1.3815-158.41 4.6049-237.62 8.2889-42.366 1.9955-84.731 4.298-127.1 6.6005-0.614-0.307-1.535-0.1535-2.456 0.1535-12.587 0.7675-25.327 1.3815-37.914 2.149-5.3725 0.3069-10.591 0.614-15.964 0.921h-0.921c0-0.1535-0.1535-0.4605-0.1535-0.7675-0.4605-1.9955-0.921-4.1445-1.3815-6.14-6.14-26.862-12.126-53.725-18.266-80.74 109.29-8.1354 219.2-10.898 328.64-11.512 91.792-0.4605 183.89 1.3815 275.53 8.2889 0 25.634-3.07 52.804-11.819 77.056l-0.1534 0.1536z" fill="#B87643"/>
		<path d="m27.852 666.1s567.33-46.05 604.17 20.722c0 0 5.219-25.941 2.9165-39.756 0 0-346.14-16.731-608.78 3.377l1.6885 15.503v0.1534z" fill="#9E5E31"/>
		<path d="m90.019 810.08c1.6885 15.964 3.377 31.928 4.912 47.892 0.307 3.07 6.6005 31.314-5.833 24.867-6.6005-3.377-6.754-14.889-8.1354-20.876l-10.592-47.431c-5.3725-23.946-10.591-47.892-15.964-71.838 0 0 0-0.1535-0.1535-0.1535 9.5169-0.614 19.034-1.0745 28.551-1.6885 2.3025 23.025 4.7585 46.203 7.2145 69.228z" fill="#C78E44"/>
		<path d="m83.726 739.47s25.941 152.88 10.131 144.29c0 0-15.196-120.96-21.336-143.37l11.206-0.9211z" fill="#AD6F2E"/>
		<path d="m614.53 729.8c-7.2145 43.594-14.276 87.494-23.485 130.78-0.614 3.2235-1.3815 6.2935-2.149 9.517-0.307 1.0745-1.3815 1.3815-2.3025 2.149-6.6005 4.298-10.898-0.7675-11.359-6.754-0.921-12.28 2.763-25.634 4.4515-37.607 5.0655-33.463 11.666-69.535 4.7585-103.15 0 0 0-0.1535-0.1535-0.1535 10.898 0.4605 21.797 1.6885 32.235 3.991-0.921 0.307-1.842 0.614-1.9955 1.228z" fill="#C78E44"/>
		<path d="m616.37 728.57l-23.639 141.83s-13.815 8.1354-16.578 2.4559c-2.9165-5.8329 10.438 1.6885 12.74-9.2099s18.42-105.91 11.512-139.38c0 0 13.047 0.1534 16.117 4.2979h-0.1534z" fill="#AD6F2E"/>
		<path d="m126.86 772.93c0.7675 7.8284 1.0745 15.81-0.4605 23.639-1.3815 7.061-7.6749 9.9775-8.9029 2.6095-3.684-19.955-7.2145-39.91-10.898-59.711l14.736-0.921v0.1535c2.456 11.359 4.298 22.718 5.3725 34.23h0.1534z" fill="#AD6F2E"/>
		<path d="m557.88 754.05c-0.4604 5.9865-1.228 11.973-2.7629 17.652-2.149 7.8284-8.5959 1.0745-8.903-2.456l-2.763-45.129h15.196v0.1535c0.307 9.9774 0.1535 19.955-0.614 29.779h-0.1535z" fill="#AD6F2E"/>
		<path d="m690.51 626.5c-1.842 8.2889-4.1445 18.88-0.614 26.862 1.0745-0.614 1.9955-1.3815 3.07-1.9955-93.174-9.9774-187.27-12.74-280.75-13.354-123.87-0.7675-248.05 2.3025-371.77 10.745-14.429 0.921-28.858 2.149-43.133 3.2235-1.6885 0.1535-3.8375 1.228-3.991 0-0.307-2.456-0.7675-4.7585-1.0745-7.2145-0.614-3.5305-1.0745-7.061-1.535-10.591-0.307-1.6885-4.7585-0.614-4.4515 1.228 0.921 6.2935 1.842 12.74 2.9165 19.034 0.1535 0.7675 1.3815 0.7675 1.9955 0.7675 121.72-10.591 244.37-13.815 366.4-14.429 108.83-0.614 217.97 2.149 326.34 12.587 2.456 0.307 5.0655 0.4605 7.5214 0.7675 0.7675 0 3.684-0.614 3.07-1.9955-3.5305-7.8285-1.228-18.113 0.614-26.095 0.4604-1.842-4.1445-1.228-4.4515 0.4605h-0.1534z" fill="#9E5E31"/>
		<path d="m24.015 652.74c6.754 29.779 13.508 59.558 20.108 89.336 0.1535 0.7675 1.3815 0.921 1.9955 0.7675 115.28-7.061 230.71-12.74 345.99-16.424 48.045-1.535 96.244-2.6094 144.29-2.3024 27.323 0.1535 57.716-1.535 84.578 5.3724 0.921 0.307 3.0699 0 3.377-1.228 9.517-25.174 12.894-53.111 12.74-79.82 0-2.149-4.4515-1.228-4.4515 0.4605 0.1535 26.402-3.0699 54.185-12.587 79.052 1.0745-0.4605 2.3025-0.7675 3.377-1.228-17.959-4.6049-37.607-4.4515-56.181-5.0654-32.388-0.921-64.777-0.614-97.165 0-79.206 1.3815-158.41 4.605-237.62 8.2889-55.874 2.6095-111.75 5.5259-167.47 8.903-5.3725 0.3069-10.591 0.614-15.964 0.921-0.921 0-1.6885 0.1535-2.6095 0.1535 2.149-0.1535 2.149 1.535 1.535-0.921-0.4605-1.9955-0.921-4.1445-1.3815-6.14-6.14-27.169-12.28-54.185-18.42-81.354-0.4605-1.842-4.912-0.614-4.4515 1.228h0.3071z" fill="#9E5E31"/>
		<path d="m49.956 743.77c5.833 26.248 11.666 52.343 17.499 78.592 3.377 15.35 6.9075 30.853 10.284 46.203 1.3815 6.14 2.149 15.964 9.9774 17.652 9.3634 2.149 14.275-5.0655 13.354-13.201-1.3815-13.968-2.9165-27.937-4.298-41.752-3.07-30.086-6.2935-60.172-9.3634-90.411 0-0.614-0.1535-1.0745-0.1535-1.6885-0.1535-1.842-4.605-0.7675-4.4515 1.228 2.456 23.178 4.7585 46.51 7.2145 69.688 1.6885 15.964 3.377 31.928 4.912 47.892 0.307 3.07 6.6005 31.314-5.833 24.867-6.6005-3.377-6.754-14.889-8.1354-20.876l-10.592-47.431c-5.3725-23.946-10.591-47.892-15.964-71.838-0.4605-1.842-4.912-0.7675-4.4515 1.228v-0.1536z" fill="#9E5E31"/>
		<path d="m101.84 738.7c2.3025 12.74 4.605 25.634 6.9075 38.375 1.535 8.9029 1.228 22.718 7.8284 29.779 2.6095 2.7629 7.061 1.6885 9.5169-0.7675 5.833-5.9865 5.833-15.657 5.833-23.332-0.1535-15.043-2.763-30.546-6.14-45.129-0.4605-1.842-4.912-0.614-4.4515 1.228 2.456 11.359 4.298 22.718 5.3725 34.23 0.7675 7.8285 1.0745 15.81-0.4605 23.639-1.3815 7.061-7.6749 9.9775-8.9029 2.6095-3.684-20.569-7.5214-41.138-11.205-61.707-0.307-1.842-4.7585-0.7675-4.4515 1.228l0.1535-0.1536z" fill="#9E5E31"/>
		<path d="m539 724.74l1.842 29.472c0.614 8.7495-0.7675 16.271 5.526 22.871 9.0565 9.3634 13.968-8.4424 14.889-14.122 2.149-13.047 2.149-26.709 1.6885-39.91 0-1.3815-4.4515-0.4605-4.4515 1.228 0.307 9.9774 0.1535 19.955-0.614 29.779-0.4604 5.9865-1.228 11.973-2.7629 17.652-2.149 7.8284-8.5959 1.0745-8.903-2.456-0.921-15.196-1.842-30.393-2.9165-45.743-0.1535-1.3815-4.605-0.4605-4.4515 1.228h0.1535z" fill="#9E5E31"/>
		<path d="m614.53 729.8c-7.2145 43.594-14.276 87.494-23.485 130.78-0.614 3.2235-1.3815 6.2935-2.149 9.517-0.307 1.0745-1.3815 1.3815-2.3025 2.149-6.6005 4.298-10.898-0.7675-11.359-6.754-0.921-12.28 2.763-25.634 4.4515-37.607 5.0655-33.463 11.666-69.535 4.7585-103.15-0.1535-1.0745-4.7585 0-4.4515 1.228 7.9819 38.528-1.3815 79.666-7.061 117.89-1.228 8.2889-5.9865 25.02 1.535 31.621 4.4514 3.8375 15.196-1.535 18.42-5.0654 1.842-1.9955 1.9955-8.1355 2.6095-10.591 1.3815-5.9865 2.4559-12.126 3.684-18.113 3.0699-15.657 5.8329-31.467 8.5959-47.278 3.8375-21.797 7.5214-43.594 11.205-65.391 0.1535-1.228-4.1444-0.4605-4.4514 0.7675z" fill="#9E5E31"/>
		<path d="m32.764 448.74l-45.743 187.88c272.46-18.266 508.7-21.797 710.7-10.131l-132.01-170.54c-176.37-9.2099-353.97-11.512-533.1-7.0609l0.1536-0.1536z" fill="#AD6F2E"/>
		<path d="m39.365 452.74l-44.361 175.76c264.33-17.038 496.57-18.266 692.59-7.5215l-124.95-161.63c-171-8.596-349.52-10.745-523.28-6.6005z" fill="#EFCC83"/>
		<path d="m121.95 491.88s-18.573-6.2935-17.652 5.3725c1.0745 11.512 18.727 56.948 28.09 59.097 9.5169 2.149 17.652-18.88-10.591-64.316l0.1535-0.1535z" fill="#C78E44"/>
		<path d="m84.493 505.54s-19.341-3.8375-16.731 7.5214c2.456 11.359 25.941 54.032 35.612 54.953 9.6705 0.7676 15.043-21.029-18.88-62.474z" fill="#C78E44"/>
			<defs>
				<path id="h" d="m117.8 514.9c-2.3025-6.4469-4.298-12.894-5.9865-19.494-1.6885-6.2935-2.456-8.7495 3.8375-13.201 12.587-3.377 20.876 27.016 24.406 35.151 0.4605 0.921 1.3815 3.2235 2.456 6.2935-4.4515-2.456-9.2099-2.9164-13.815 0.7675-1.9955 1.535-3.377 3.8375-4.605 6.2935-2.6095-5.6794-4.605-11.512-6.2935-15.964v0.1535z"/>
			</defs>
			<clipPath>
				<use overflow="visible" xlink:href="#h"/>
			</clipPath>
			<defs>
				<path id="i" d="m117.8 514.9c-2.3025-6.4469-4.298-12.894-5.9865-19.494-1.6885-6.2935-2.456-8.7495 3.8375-13.201 12.587-3.377 20.876 27.016 24.406 35.151 0.4605 0.921 1.3815 3.2235 2.456 6.2935-4.4515-2.456-9.2099-2.9164-13.815 0.7675-1.9955 1.535-3.377 3.8375-4.605 6.2935-2.6095-5.6794-4.605-11.512-6.2935-15.964v0.1535z"/>
			</defs>
			<clipPath>
				<use overflow="visible" xlink:href="#i"/>
			</clipPath>
			<defs>
				<path id="j" d="m147.43 551.74c-0.921-1.9955-1.842-3.8375-2.763-5.8329-0.614-1.3815-3.8375-0.4605-3.2235 0.921 0.921 1.9955 1.9955 3.991 2.9165 5.9865-8.1354-1.842-13.968-9.6704-18.42-18.42 0.614-1.9955 1.535-3.8375 2.6095-5.6794 1.228-1.9955 2.763-3.8375 4.912-4.7585 3.2235-1.535 7.2144 1.3815 9.5169 3.377 0.307 0.1535 0.614 0.307 1.0745 0.307 2.9165 8.903 6.14 20.569 3.684 24.099h-0.307z"/>
			</defs>
			<clipPath>
				<use overflow="visible" xlink:href="#j"/>
			</clipPath>
			<defs>
				<path id="k" d="m147.43 551.74c-0.921-1.9955-1.842-3.8375-2.763-5.8329-0.614-1.3815-3.8375-0.4605-3.2235 0.921 0.921 1.9955 1.9955 3.991 2.9165 5.9865-8.1354-1.842-13.968-9.6704-18.42-18.42 0.614-1.9955 1.535-3.8375 2.6095-5.6794 1.228-1.9955 2.763-3.8375 4.912-4.7585 3.2235-1.535 7.2144 1.3815 9.5169 3.377 0.307 0.1535 0.614 0.307 1.0745 0.307 2.9165 8.903 6.14 20.569 3.684 24.099h-0.307z"/>
			</defs>
			<clipPath>
				<use overflow="visible" xlink:href="#k"/>
			</clipPath>
		<path d="m113.81 480.83c-4.7585 3.2235-7.368 5.8329-6.14 11.359 1.9955 9.2099 4.912 18.266 8.1354 27.016 4.1445 11.205 15.196 39.756 31.774 35.612 12.126-2.9164-1.842-32.388-4.4515-38.375-4.298-10.131-12.433-41.598-28.551-36.072-1.842 0.614-1.3815 2.6095 0.4605 1.9955 12.74-4.4514 21.336 26.709 24.867 34.998 1.6885 4.1445 14.736 37.761 4.298 35.305-14.582-3.377-22.104-25.788-26.402-37.914-2.3025-6.4469-4.298-12.894-5.9865-19.494-1.6885-6.447-2.456-8.9029 4.1445-13.354 1.842-1.228-0.921-2.149-2.149-1.228v0.1535z" fill="#782521"/>
		<path d="m125.32 535.78c0.614-2.4559 1.6885-4.7584 3.07-6.9074 1.228-1.9955 2.763-3.8375 4.912-4.7585 3.2235-1.535 7.2144 1.3815 9.5169 3.377 0.921 0.7675 3.991-0.4604 2.9165-1.3815-5.219-4.4515-11.359-6.14-17.038-1.535-3.377 2.7629-5.526 7.3679-6.6005 11.512-0.307 1.2281 2.9165 0.7676 3.2235-0.307z" fill="#782521"/>
		<path d="m141.29 546.83c2.3025 4.605 4.4515 9.21 6.754 13.815 0.614 1.3815 3.8375 0.4605 3.2235-0.921-2.3025-4.605-4.4515-9.2099-6.754-13.815-0.6141-1.3815-3.8375-0.4605-3.2235 0.921z" fill="#2B2A29"/>
		<path d="m114.27 571.54l-7.5215-7.5215v-0.307c0.4605-1.9955 3.8375-2.456 6.14-2.6094 0.4606 3.5304 0.921 6.9073 1.3815 10.438z" fill="#E31953"/>
		<path d="m110.9 547.14c0.1535 0.307 0.1535 0.7675 0.307 1.535l1.3815 9.6705c-2.763 0.1535-6.6005 0.614-6.9074 3.8375v0.7675l-5.526-5.526c-1.9955-1.9955-3.07-3.377-4.298-5.2189 0.1535-1.228 0.614-2.3025 1.0745-3.377 2.6094-5.2191 9.5169-3.5306 13.968-1.6886z" fill="#F8D3AC"/>
		<path d="m84.186 500.32c0 0.1535 0.1535 0.1535 0.1535 0.307 0.7675 1.3815 1.6885 2.9165 2.456 4.298 5.3725 9.3635 10.745 18.88 16.117 28.244 1.9955 3.5305 4.1445 7.2144 6.14 10.745-4.605-1.535-10.438-2.3025-13.201 2.4559-0.614 1.0745-1.0745 2.3025-1.228 3.684-0.614-1.0745-1.228-2.3025-1.9955-3.684-7.2145-13.201-14.429-26.402-21.643-39.603 1.3815-6.2935 7.8284-7.0609 13.201-6.2935v-0.1534z" fill="#ccf"/>
		<path d="m68.99 507.23c7.5215 13.661 14.889 27.476 22.411 41.138 5.9865 10.898 15.043 18.42 23.792 27.169 0.7675 0.7675 1.535-0.307 1.3815-1.0745-1.228-9.2099-2.6095-18.42-3.8375-27.63-0.307-2.149-2.149-4.298-3.2235-6.14l-9.2099-16.117c-4.912-8.7495-9.9774-17.499-14.889-26.248-1.0745-1.842-4.912-1.3815-6.6005-1.228-5.526 0.614-9.2099 3.2235-10.131 8.903-0.1535 1.3815 1.6885 2.9165 1.9955 0.921 1.0745-6.9074 7.8284-7.675 13.508-6.7539 0.1535 0-0.7675-1.3815 0.1535 0.307 0.7675 1.3815 1.6885 2.9165 2.456 4.298 5.3725 9.3635 10.745 18.88 16.117 28.244 2.149 3.684 4.298 7.3679 6.2935 11.205 1.535 2.763 1.535 2.149 1.842 4.4515 1.228 8.5959 2.3025 17.038 3.5305 25.634 0.4605-0.307 0.921-0.7675 1.3815-1.0745l-15.964-15.964c-3.684-3.684-4.605-5.6794-7.6749-11.052-7.3682-13.354-14.583-26.862-21.951-40.217-0.921-1.6885-2.3025-0.1535-1.535 1.228h0.1535z" fill="#8F2930"/>
		<path d="m95.699 555.12c-0.1535-1.3815 0.307-4.4515 1.228-6.2935 2.763-5.5259 10.284-3.2234 14.582-1.535 0.7675 0.307 0.4605-2.456-0.4605-2.763-4.7585-1.9955-12.126-3.8375-15.35 1.6885-1.3815 2.4559-1.842 5.5259-1.535 8.4424 0.1535 1.228 1.535 2.3024 1.3815 0.4604h0.1535z" fill="#8F2930"/>
		<path d="m107.06 564.48c-0.307-0.307-0.1535-0.1535-0.307-0.4605 0 0-0.1535-0.307 0-0.1535 0.1535 0.4605 0 0.1535 0.1535-0.1535 0.614-2.456 5.526-2.456 7.368-2.6094 0.4605 0 0-2.763-0.7675-2.763-2.6095 0.1535-7.5215 0.307-7.6749 3.8375-0.1535 1.535 0.614 3.5305 1.6885 4.7585 0.4605 0.4605 0.4605-0.4605 0.4605-0.614 0-0.614-0.307-1.3815-0.614-1.842h-0.3071z" fill="#8F2930"/>
		<path d="m73.288 500.63l25.327 44.208s-2.9165-0.921-2.763 7.368l-27.016-46.05 4.4515-5.526z" fill="#99f"/>
		<path d="m266.7-86.967c-0.7675 0.307-1.3815 0.614-2.149 0.921-27.323 11.666-46.971 38.221-65.544 64.93-32.849 50.501-55.106 105.61-52.957 155.8l0.4605-1.3815c1.9955-6.447 4.1445-12.587 6.447-18.573 5.0655-11.819 10.284-23.792 20.569-32.081 1.3815-0.921 2.9165-1.6885 4.298-2.456l0.307-0.1535 0.1535-0.1535c-1.6885-1.842 0.1535-0.1535 1.535 1.535 1.0745 1.228 2.149 2.3025 1.6885 2.149l-0.1535 0.4605-0.4605 0.921-0.921 1.9955-3.684 7.8284c-2.3025 5.219-4.4515 10.284-6.2935 15.503-3.5305 10.284-6.447 20.415-6.14 30.086 0 4.4515 1.0745 8.5959 3.5305 11.819 0.4605-1.9955 1.6885-5.9865 1.6885-8.1355 1.3815-9.0564 2.9165-17.652 5.0655-25.634 4.298-12.74 8.2889-27.323 17.192-33.156 0.7675-1.842 1.6885-3.2235 4.1445-1.9955l0.614-0.1535c-12.126 20.415-15.35 37.914-9.5169 40.831 10.745 2.3025 11.973 3.991-1.228 1.0745-3.377-1.535-5.219-9.6704-2.149-19.341 0.921-3.07 1.9955-6.2935 3.5305-9.8239-7.0609 12.28-10.898 28.397-13.201 46.05-2.3025 4.605 2.3025 10.438-7.0609 15.196-5.833-4.7585-6.2935-10.438-6.9075-16.117-0.4605-11.359 2.9165-22.564 6.6004-33.463 1.9955-5.526 4.1445-10.898 6.6005-16.424l0.307-0.614c-6.9075 7.5215-11.666 17.959-15.657 28.244-2.149 5.6795-4.1445 11.512-5.833 17.499l-2.456 8.9029-1.0745 4.4515-0.307 0.921c1.6885 0 1.228 0.1535 0 0v0.1535l-0.1535 0.614v0.307c-0.7675 0-0.4605 0 0 0 0.7675 0 1.535 0.1535-5.3725 0v-0.1535l-0.1535-0.921-0.1535-1.3815c-1.842-12.74-2.149-25.788-0.614-38.528 1.228-11.819 3.5305-23.332 6.447-34.691-13.354 13.201-36.379 37.3-61.4 75.214-16.424 26.402-35.612 61.4-35.151 104.07 0 1.228 0 2.456 0.1535 3.684 1.6885-8.2889 3.8375-16.578 6.6005-25.02 7.5214-23.332 19.801-46.203 35.458-68 8.1354-10.745 16.578-20.876 25.634-30.086l6.9075-6.754 3.377-3.2235 1.3815-1.3815 0.307-0.307c0.7675 0.614 0.4605 0.307 0.1535 0-0.614-0.614-1.228-1.228 4.4515 3.991l-0.1535 0.1535-0.1535 0.307v0.1535c0.921 0.921 1.3815 1.228 0 0l-0.1535 0.307-0.7675 0.921-10.284 15.196c-13.201 20.262-24.713 40.217-34.077 59.711-9.2099 19.494-16.424 38.682-19.341 57.255 1.535 20.876-16.885 35.765-31.774 40.831-1.228 0.4605-2.3025 0.7675-3.5305 1.0745 3.684-0.4605 7.061-1.3815 10.284-2.763 11.819-4.4514 20.876-11.819 27.783-18.266 14.122-13.047 21.336-23.332 24.56-27.016 6.2935-7.8284 6.9074-7.368 1.0745 1.228-0.4605 0.7675-1.228 1.842-2.3025 3.2235 0.1535 5.526-1.228 13.508-8.2889 21.643-7.368 10.438-24.867 20.876-32.235 38.682 1.3815-1.228 2.9165-2.149 4.605-2.763 6.9075-3.5305 15.81-1.6885 22.411-1.0745 14.122 2.456 29.318-6.6005 34.998-21.797l1.6885-5.8329 0.4605-1.535 0.1535-0.307c-2.6095 0.307-0.307 0 2.149-0.307 1.842-0.307 3.684-0.4605 3.07-0.4605v0.1535l0.1535 0.307 0.307 0.921 0.921 3.684c0.921 4.912 0.1535 10.131-1.842 14.736-4.298 9.21-12.74 15.503-21.49 19.955-15.81 7.9819-39.296 11.819-48.199 23.946l0.4605-0.1535 7.368-2.9165c4.912-1.842 9.8239-3.377 14.889-4.7585 10.898-3.5305 21.336 1.228 30.239 1.3815 9.3634 0.921 18.727 1.535 27.476 0.614 4.4515-0.307 8.5959-1.228 12.433-2.6095 1.9955-0.614 3.5305-1.6885 5.219-2.6095l1.0745-1.0745c-0.7675-0.307-0.614-0.307 0 0l0.7675-0.7675 0.1535-0.1535c0.7675 0.307 0.4605 0.1535 0 0-0.614-0.4605-1.3815-0.7675 5.0655 2.456v0.1535l-0.1535 0.4605-0.307 0.921-0.7675 1.6885c-4.298 12.74-20.569 18.42-31.314 16.731 8.9029 5.3725 18.266 9.2099 27.169 11.512 39.91 8.5959 66.312-5.5259 78.284-12.74 3.5305-7.368 5.526-13.661 6.6004-17.345-12.587-1.3815-39.91-5.833-67.54-24.56-17.345-11.512-33.77-28.397-45.436-48.199-5.9865-9.8239-10.898-20.262-14.429-30.853-1.535-7.2144-15.043-15.35-16.885-26.095 0.307-1.535-3.07-4.7585 3.07-7.9819 3.684 0.4605 5.219 1.842 6.2935 2.456 1.9955 1.228 4.1445 2.456 6.14 3.377-1.228-3.07-2.9165-7.9819-3.991-10.284-0.7675-3.2235-1.9955-7.061 0.614-11.512 1.6885-2.149 3.684-2.9165 5.6795-3.2235 2.456-1.0745 6.6005 2.3025 6.447 3.684 2.149 4.7585 3.2235 10.591 4.7585 13.661 0.1535-2.9165 1.535-8.289 1.3815-11.205 0.614-3.07 0.1535-5.526 2.763-9.2099 2.9165-4.7585 9.9774-0.7675 10.284 2.149 4.605 11.819-1.228 22.411 4.605 28.09 3.377 1.6885 2.149-14.122 9.5169-19.187 5.3725-3.07 10.131 3.07 9.5169 6.6005 0.307 3.684 0 6.9075-0.307 9.8239-3.377 11.205 0 17.038 2.456 19.034 5.6795-2.149 13.047-7.5215 21.49-2.456 5.0655 12.28-8.1354 12.74-9.9774 14.736-1.3815 0.614-2.6095 1.3815-3.8375 1.9955 7.2145 5.0655 39.142 24.099 65.237 22.564 17.038 0.4605 35.765-3.684 48.506 2.6095 2.9165 1.0745 5.6794 2.149 7.9819 3.2234-2.149-1.9955-4.298-4.1445-6.2935-6.14-38.835-39.91-51.115-73.68-54.492-80.894l-0.1535-0.307c-1.228 1.228-2.763 2.456-4.7585 3.8375-5.3725 4.912-20.722 8.4424-30.546-3.377-10.131-14.736 5.3725-26.095 11.205-27.937 1.228-0.4605 2.3025-0.921 3.5305-1.3815-3.377-1.3815-5.526-2.763-6.4469-2.456-3.07-1.535-2.763-2.149 0.614-1.535 1.6885-1.3815 24.56 12.433 40.984-5.833 13.508-18.42 16.424-50.041 29.011-70.763 14.122-27.937 32.695-51.269 50.655-64.93 18.88-12.74 34.997-14.122 37.914-14.122 3.5305 0 3.5305 0.7675 0.307 1.535-1.0745 0.4605-4.1445 1.0745-8.2889 2.3025 10.131 3.2235 24.56 6.9075 34.537-3.684 1.3815-1.228 1.0745-2.456 7.0609-9.6704 11.205-1.0745 8.4424 9.2099 7.5215 12.28-1.535 4.4515-3.8375 8.5959-6.6005 13.201-5.0655 9.0564-13.661 19.341-17.806 32.081-2.149 6.9075 4.605 9.0564 9.21 1.6885 4.4514-6.447 7.9819-14.429 11.052-23.025 3.991-7.061 3.2235-15.657 8.5959-23.178l-0.7675-1.535v-0.1535l-0.1535-0.1535c-0.4605 0.1535 1.0745-0.1535 2.763-0.4605 0.307-0.4605 0.7675-0.7675 1.228-1.228l0.4605 0.921c1.3815-0.1535 2.149-0.307 0.307 0l-0.1535 0.4605c4.4514 9.3634 3.377 20.415 0.1535 30.393-3.377 10.591-8.5959 20.876-15.043 30.853-1.9955 2.3025-3.684 5.833-5.6795 8.5959 3.07-2.149 5.9865-4.4515 8.7495-7.368 18.42-16.578 28.397-44.208 23.792-71.53-0.614-3.377-1.228-6.9075-2.149-10.284v-0.1535c-0.921-0.921-1.3815-1.9955-0.921-3.07l-0.4605-1.6885c0.7675-0.7675 1.228-0.4605 1.6885 0.1535l0.921-0.614 0.921 3.2235c4.605 5.526 7.2144 12.433 9.5169 19.341 4.1445 14.122 3.991 29.472 2.3025 44.361-1.842 15.043-5.3725 29.625-10.131 43.44-2.6095 5.9865-1.0745 0.921 2.456-1.228 2.763-2.3025 5.0655-5.0655 6.9075-8.1354 4.298-5.526 7.0609-12.126 9.3634-18.573 8.5959-26.402 4.912-53.725-0.4605-77.67-1.3815-5.9865-3.07-11.819-4.912-17.652l-2.149-6.447-0.614-1.0745 0.1535-0.307-0.1535-0.614c-0.614-0.7675-2.763-1.535-1.228-2.6095-0.1535-0.4605 0.4605-0.921 2.456-1.0745v0.1535l0.7675-0.1535 1.3815 4.1445c5.6795 10.284 10.438 20.415 15.043 30.239 9.21 19.648 16.117 38.682 22.871 55.567 6.6004 16.424 16.271 30.7 28.551 36.226 2.763 1.228 5.526 1.842 8.2889 1.9955-3.377-2.149-6.2934-4.4515-8.9029-6.754-16.731-14.429-18.727-29.472-19.034-31.928 1.3815-53.111-18.727-67.233-13.354-66.619 1.6885 0 10.591 10.131 16.117 28.09 2.763 0.921 5.9865 2.3025 9.9774 4.298 0.1535 0.7675 3.991 2.763 10.284 6.447 14.889 9.0564 43.594 28.244 68.921 64.163 9.0565 11.052 11.666 31.007 18.266 34.23 2.3025-10.284-3.377-22.257-5.526-30.546-5.9865-17.345-10.745-27.476-11.052-28.704l-0.4604-1.228c-5.3725-7.368-11.052-14.275-16.424-20.876-14.736-17.192-29.165-31.16-41.905-42.059-16.731-14.582-30.393-24.253-38.989-30.086-4.4515-3.07-7.368-5.0655-8.7495-6.14-4.1445-3.2235-3.684-3.8375 1.0745-1.3815 4.298 2.3025 31.007 17.499 60.172 43.287 14.582 12.894 29.625 28.244 42.826 44.975 6.7539 8.2889 12.74 17.345 18.42 26.095 2.149 1.228 1.3815-1.3815 1.535-1.9955-1.6885-15.964-15.657-32.388-27.169-50.655-0.307-1.0745-2.6095-3.5305 0.307-7.061 4.1445-1.842 4.7585-0.1535 6.6005 0.1535 3.0699 1.3815 5.0654 3.5305 7.0609 5.3725 3.8375 3.991 6.9075 8.1354 9.824 12.433 1.3815 2.149 2.7629 4.298 4.1445 6.447-8.7495-31.774-29.472-46.817-31.467-50.655-3.684-3.8375-3.377-4.4515 0.921-1.3815 3.07 3.5305 22.411 15.964 34.384 48.813 1.228 4.1445 1.9955 8.5959 2.3025 13.508-2.763 0.307-2.149 0.921-8.5959-5.0655-4.7585-5.526-16.885-20.722-20.569-24.867 7.0609 12.587 26.248 44.515 29.318 72.298-2.456 3.377 0.921 3.5305-3.684 2.3025l-0.1535-0.1535-0.307-0.614-0.4605-0.7675c-0.7675 0.1535-1.0745 0.1535 0 0l-4.4515-7.9819c-0.7675-1.3815-1.6885-2.6095-2.456-3.991l0.307 0.7675c1.9955 7.6749 5.3725 17.652 7.2145 31.621-0.614 1.9955 1.3815 5.526-0.4605 8.4424 5.2189 15.196 10.131 35.612 11.512 61.707 4.7584 52.957-32.388 139.53-124.33 164.55-19.494 4.912-38.528 5.9865-56.795 4.2979 5.9865 5.219 15.35 14.736 28.09 29.011 1.535 1.0745 6.14 7.5215 19.955 19.801 7.0609-2.456 20.108-6.7539 36.379-14.889 2.3025-1.842 17.806-6.14 49.273-33.309 15.503-13.815 34.23-34.077 53.111-64.47 19.341-29.779 38.528-71.53 38.068-126.18-4.4519-110.21-60.018-164.86-88.876-191.11-32.081-26.402-46.203-33.002-49.58-35.458 2.6095 2.149-62.628-34.537-97.779-25.481-23.025-6.447-48.659-2.456-75.368-0.921-8.7495 0.921-17.806 2.149-27.016 3.684 0 0-31.928 4.4515-53.111 15.043l-0.1535 0.1534z" fill="#FF9A1F"/>
		<path d="m167.23 149.58c0.1535 0.7675 0.1535 1.535 0.307 2.149 0 0-0.1535-0.7675-0.307-2.149zm-32.542-30.7c-50.041 20.569-82.122 116.81-82.122 116.81 3.991-65.698 83.504-145.06 83.504-145.06l-1.3815 28.397v-0.1535zm176.98-209.37c9.2099-13.047 35.765-17.959 93.481-3.07 0 0 71.07 61.4 34.844 161.94 0 0 21.49-65.851-17.806-102.54 0 0 7.675 59.711 0.1535 60.018s-4.298-45.743-9.21-49.273c-4.912-3.684-28.09 33.616-58.944 16.271-1.9955-1.0745-4.1445-2.6095-6.6005-4.4515-21.029 11.359-60.325 37.454-72.758 80.74-17.345 60.172-38.989 86.573-75.675 75.675-9.2099-2.763-15.657-19.801-17.499-43.594-6.2935 14.429-15.35 36.993-14.582 48.199-1.0745-9.0564-4.1445-43.594 14.122-57.409-0.307-7.2144-0.1535-15.043 0.4605-23.025-27.016 13.354-31.928 50.041-31.928 50.041-6.2935-31.928 23.178-84.271 47.278-120.19 18.42-48.199 54.339-89.644 114.66-89.336zm-128.48 254.04c14.889 34.23 18.727 36.84 27.016 42.826 1.842 1.3815 3.991 2.763 6.2935 4.7585 13.508 11.052 75.368 81.968 23.332 129.55-52.19 47.431-131.55 25.481-98.853 22.564 32.695-3.07 23.332-57.869 13.815-33.309s-74.6 12.433-49.427 0.4605c47.124-22.257 65.544-135.54 65.544-135.54-43.594 123.57-98.7 121.42-82.429 97.932 17.038-24.406 54.339-117.58 54.339-117.58s-49.58 103.77-67.386 93.941c-17.652-9.9774 57.562-126.18 57.562-126.18 4.1445 15.964 17.959 17.038 30.086 16.885 9.5169-0.1535 17.806-0.921 19.955 3.8375l0.1535-0.1535zm411.53-177.29s175.3 267.86-107.91 388.35c0 0-13.508-1.3815-17.499-12.894-3.991-11.666 223.8-38.989 136.31-272.77 0 0 29.932-15.503-10.898-102.69zm-164.7-89.183c21.49-3.2235 47.431 7.9819 41.598 14.275 45.436 14.275 42.212 3.377 112.67 86.42 0 0-17.499-10.131-18.113-2.763s34.077 50.348 27.323 49.273c-2.9165-0.614-9.9775-11.666-23.946-27.783-18.113-21.029-47.892-50.501-95.323-76.903 0 0 97.779 70.763 120.04 136.31 0 0-31.007-56.948-112.98-100.23 0 0 8.2889 36.993 2.456 46.203-5.833 9.2099-11.666-41.598-41.752-79.206-30.086-37.761-30.853-39.296-11.819-45.436l-0.1535-0.1535z" fill="#FED700"/>
		<path d="m527.03 78.812h-0.1535l-0.4605 0.1535c-1.6885 0.614-3.2234 0.7675-5.0654 1.0745-3.377 0.307-6.9075 0-10.438-1.0745-7.0609-2.149-13.661-6.754-18.88-13.047-18.42-22.871-24.867-58.483-44.515-98.546 1.3815 5.0655 2.6095 10.284 3.5305 15.657 2.9165 14.889 4.6049 31.007 3.2235 47.892-1.535 16.731-6.2935 35.305-19.648 49.273l-5.219 5.0655-1.3815 1.228c-1.535-0.921 2.456 3.07-3.5305-1.842l0.307-0.7675 1.228-3.2235c1.535-4.4515 2.9165-9.0564 4.1445-13.661 2.456-9.3634 4.4515-19.034 5.6795-29.011 2.456-19.801 1.3815-39.756-7.368-55.567 0-0.614-0.1535-1.228-0.4605-1.842 0.307 1.228 0.614 2.6095 0.7675 3.8375 1.535 8.9029 1.842 17.652 0.921 26.248-1.535 17.192-9.21 32.542-19.034 44.208-5.0655 5.833-10.591 10.898-16.578 15.043-2.6095-0.614-0.307 6.14-7.0609-0.7675l3.07-4.1445 5.6795-8.2889c7.0609-11.205 12.74-22.411 15.81-33.616 1.3815-5.526 2.3025-11.052 1.6885-16.271-0.1535-1.3815-0.307-2.6095-0.614-3.8375-5.219 18.42-9.9774 34.691-20.108 47.278-2.6095 3.5305-10.131 5.833-13.968 1.228-3.8375-4.4515-2.3025-9.5169-1.3815-12.74 2.3025-6.9075 5.6795-12.126 8.4424-17.038 5.6795-9.6704 10.745-17.192 13.354-23.485 0.307-0.921 0.4605-1.6885 0.7675-2.3025-0.921 1.3815-1.6885 2.456-2.3025 3.2235-9.6704 11.512-24.099 9.6704-32.081 7.8284-6.6004-1.6885-11.819-3.8375-15.964-5.833-4.912 1.9955-10.745 5.0655-16.885 9.3634-16.424 11.973-34.844 35.305-50.501 65.851-16.731 29.932-16.424 63.242-37.761 76.903-10.898 4.7585-19.648 4.298-26.095 2.6095-2.6095 1.0745-5.9865 2.6095-9.3634 4.912-6.754 4.298-11.819 13.661-5.9865 18.727 7.8284 8.5959 16.885 6.754 23.639 3.2235 5.9865-3.07 10.284-7.368 10.591-7.0609 1.0745-0.4605 1.6885-0.1535 1.228 1.0745-0.307 0.614-1.3815 2.3025-3.684 4.605l0.4605 1.0745c3.684 6.6005 24.253 53.264 72.452 93.174 46.05 40.984 123.26 68.307 182.36 51.115 77.67-19.955 122.34-95.783 120.65-151.04 0.3069-27.63-4.4515-50.194-9.6705-66.926-0.614 0.307-1.228 0.614-1.9955 0.921-6.754-2.9165-5.219-7.6749-7.3679-11.359-2.763-7.9819-6.447-16.424-11.82-24.867-23.025-33.77-47.431-46.05-60.018-54.646-13.661-7.8284-19.034-10.438-20.569-11.052-1.6885-0.921-3.2235-1.6885-4.6049-2.6095 1.842 8.4424 2.763 18.266 2.149 29.318 0.307 1.9955 0.614 8.9029 8.2889 19.801 3.991 5.3725 10.131 11.512 19.187 17.038l1.6885 0.921 0.921 0.4605 0.4605 0.307h0.1535c0-0.7675 0-1.535-0.1535 5.3725l-0.1536 0.4604z" fill="#EFA97E"/>
		<path d="m504.16 19.101s109.75 56.027 101.46 177.44-195.25 178.37-285.66 84.731c-59.558-61.707-62.014-92.56-53.264-139.53 3.377-17.959 53.264-128.63 81.662-125.87 19.034 1.842 21.183 4.912 22.411 7.061 0.614 1.0745 0.921 1.9955 2.763 2.456 5.8329 1.3815-9.5169 24.253-0.4605 31.621 9.0565 7.368 13.354 36.686 39.603 7.2145 26.402-29.318 16.271-5.526 8.4424 15.503-7.8285 20.876 40.37 8.4424 38.528-68.461 0 0 15.503 70.916 59.097 75.061 43.594 3.991-57.255-36.993-14.429-67.233h-0.1535z" fill="#F9C090"/>
		<path d="m246.13 341.45h0.307c-0.1535 0.7675-2.149 2.6095-3.991 5.9865-6.6004 11.973-21.183 36.84-30.853 47.278 11.359 21.643 30.239 39.756 51.269 54.339l133.7 0.4605c8.7495-19.955 10.438-36.226 11.205-38.375 0.4605-1.228 1.228-1.228 1.6885 0 0.1535 0.4605 0.307 1.3815 0.307 2.9165 5.0655 3.2235 13.047 8.4424 24.406 14.429 2.6095 0.1535 21.336 16.578 61.553 17.038 12.894 2.149 13.508 17.652 18.113 26.402 2.6095 4.605 7.675 9.3634 12.74 8.7495 3.07-2.456-2.763-10.745-2.9164-16.885 9.2099-9.3634 25.481 13.661 34.691 8.4424-0.921-3.377-3.2234-6.447-5.0654-9.8239-0.921-1.6885-2.149-3.07-2.456-5.526 2.149-2.456 4.1445 0.1535 5.8329 0.4605 5.9865 2.149 16.578 9.6704 19.955 3.2235-3.5305-5.833-10.745-9.0564-17.038-12.28l-2.6095-0.1535-0.921-0.1535h-0.307c-0.921 3.377 1.228-4.605 1.0745-3.8375h0.1535l0.4605 0.1535 1.6885 0.7675 1.228 0.614c4.1445-0.307 12.28 1.0745 15.657-1.228 3.991-5.3725-7.9819-9.2099-13.354-9.9774-2.3025-0.4605-4.7585-0.614-7.061-0.921-1.0745 0.614-2.149 1.228-2.6094-0.1535h-0.4605l0.307-0.921c-0.1535-0.614-0.1535-1.228-0.1535-2.149l1.9955 0.1535c1.842-0.7675 4.298-0.7675 5.5259-2.3025 2.3025-1.6885 5.219-4.605 4.1445-6.2935-1.228-1.535-4.9119-0.921-7.6749-0.4605-6.2935 1.0745-12.433 1.535-18.42 0.921-11.512-0.614-23.025-3.8375-30.853-9.8239-33.002-21.49-48.813-39.603-51.115-41.291-15.81-17.345-25.02-29.011-28.551-34.537-9.8239-1.228-19.341-3.07-28.397-5.526-6.6004 5.6795-16.731 13.508-17.345 13.201-1.0745 1.228-18.727 9.0564-20.415 8.5959-0.7675-0.1535-1.0745-0.7675-0.614-1.535 1.0745-1.228 17.038-10.745 17.806-11.973 0.4605 0.1535 7.5215-5.3725 13.508-10.284-8.7495-2.763-17.192-5.833-25.02-9.3634-26.709-11.819-48.352-27.016-65.851-42.519-9.3634-4.1445-30.546-13.047-64.777-7.0609-40.831-1.535-61.707-23.332-66.465-27.63-2.149 1.228-4.298 2.456-6.14 3.5305-6.9075 3.991-11.666 6.6004-12.74 6.9075-1.228 0.307-1.6885-0.307-0.921-1.3815 0.7675-0.921 4.298-4.1445 10.438-8.5959 3.07-2.149 6.754-4.912 11.359-7.5215 4.912-2.149 10.745-6.14 9.3634-6.2935-1.9955-1.228-9.5169 0.7675-13.508 2.456l-3.377 1.3815c-1.6885 0.1535 1.3815 0.614-3.991 0.4605l-1.3815-0.4605c-1.6885-0.7675-3.5305-1.3815-5.3725-1.535-7.2144-1.228-11.819-0.4605-13.047-0.614s-1.535-0.7675-0.4605-1.535c0.921-0.614 7.9819-3.2235 17.345-1.9955 1.228 1.0745 2.763 1.228 4.605 0.7675-2.763-2.6095-6.14-9.3634-3.5305-18.113 0.4605-4.298 1.535-13.354-2.149-15.043-5.0655-0.7675-5.0655 9.9774-8.5959 18.727-17.192 3.991-11.205-17.652-12.433-23.639-3.8375-15.196-4.605 0.307-5.9865 12.894-1.0745 1.0745 0.921 4.912-5.6795 5.3725-3.07-1.228-3.8375-3.377-4.605-4.912-1.3815-3.2235-2.3025-6.2935-3.2235-9.2099-1.0745-3.07-2.3025-5.833-2.149-4.4515-2.149 0.4605-2.456 1.535-2.3025 4.4515 0.614 2.763 1.6885 5.833 3.07 8.9029 0.614 1.6885 1.3815 2.9165 2.149 4.7585 0.4605 0.4605 3.2235 7.368-3.684 7.9819-3.991-0.7675-8.7494-3.377-11.512-5.219 2.456 5.833 6.447 11.512 11.052 15.657 7.2145 7.5215 5.526 13.354 9.2099 19.648 5.3725 12.126 11.666 23.332 18.88 32.849 14.122 19.341 31.16 32.542 46.357 41.291 31.314 17.192 54.799 18.113 59.711 19.801l-0.921 1.6885 0.1538-0.1538z" fill="#EFA97E"/>
		<path d="m462.25 380.28s25.788 39.296 84.578 47.585c0 0 18.727 34.537-17.192 26.248s-101.62-25.941-101.16-37.914c3.991-19.187 27.323-27.476 33.77-35.919z" fill="#F9C090"/>
		<path d="m246.28 330.4s17.499-26.402 2.456-56.488c-34.23-3.2235-32.388 12.28-76.289-26.402l-14.275 6.9075s-1.842 68.768 88.262 75.828l-0.1535 0.1534z" fill="#F9C090"/>
		<path d="m114.12 216.65c1.6885-2.456 3.684-4.298 5.833-5.219-8.1355 0.307-10.284-19.494-6.447-21.183 4.298-1.842 9.6704 20.108 9.6704 20.108 2.456-0.4605 5.0655-0.4605 7.675 0-4.298-8.2889-0.307-25.634 3.991-23.946 4.605 1.6885 3.07 19.034 2.456 25.788 4.912 1.842 9.5169 4.298 12.587 6.2935-1.535-7.061 3.377-23.178 7.368-23.025 5.526 0.307-3.07 25.941-3.07 25.941l-1.228 0.307c-35.919 7.5215-42.98 4.605-42.826 0.921-5.6795 0.614-8.7494-8.1355-7.2145-11.359 1.3815-3.07 7.6749 2.3025 11.052 5.526l0.1535-0.1535zm46.664 16.731s19.494-7.9819 22.718-3.684-33.156 19.034-33.156 19.034c-42.673-23.025 10.438-15.35 10.438-15.35z" fill="#F9C090"/>
		<path d="m233.23 179.97c0.4605 0.7675 0.921 1.6885 1.535 2.9165 3.684 6.6005 24.253 53.264 72.452 93.174 46.05 40.984 123.26 68.307 182.36 51.115 77.67-20.108 122.34-95.783 120.5-151.04 0.307-28.244-4.7585-51.269-9.9775-68.154 1.0745-0.614 1.842-1.535 2.3025-2.763 5.3725 15.35 10.745 36.379 12.126 63.549 4.9119 52.957-32.388 139.38-124.33 164.55-45.129 11.359-88.722 1.842-122.8-13.201-34.384-15.196-60.479-36.226-79.82-55.72-38.835-39.91-51.115-73.68-54.492-80.894-0.4605-1.0745-0.7675-1.9955-1.0745-2.763l1.0745-0.4605 0.1535-0.3069z" fill="#C4653D"/>
		<path d="m208.83 155.56c2.6095-1.0745 4.912-1.842 6.754-2.3025 1.535 0.614 2.9165 1.228 4.298 1.6885l0.4605 0.1535c-2.763 0.921-7.368 2.6095-11.973 5.9865-6.754 4.298-11.819 13.661-5.9865 18.727 14.582 16.117 33.616-4.605 34.23-3.8375 1.0745-0.4605 1.6885-0.1535 1.228 1.0745-0.614 1.0745-3.2235 5.219-9.6704 9.6704-5.3725 4.912-20.722 8.4424-30.546-3.377-10.131-14.736 5.219-26.095 11.205-27.937v0.1535z" fill="#C4653D"/>
		<path d="m204.84 171.83c-0.4605-0.7675 2.6095-5.0655 3.07-5.0655 0 0.1535 3.5305-3.07 8.289-1.9955 3.991 1.0745 6.2935 1.535 6.6004 1.228l5.0655 0.307 0.4605 0.921c0 0.921-5.0655 2.6095-5.526 2.456-1.535 0-13.508-2.763-12.74 0l-4.4515 2.763-0.921-0.614h0.1535z" fill="#C4653D"/>
		<path d="m524.11 76.97c0.614-1.6885 12.28-1.535 18.42 2.9165 6.447 4.605 13.968 3.991 14.889 4.7585 0.614 0.307 0.921 1.0745 0.4604 1.535-0.4604 0.7675-8.4424 4.912-18.573-1.228-7.9819-4.912-13.968-5.526-14.889-6.2935-0.4604-0.4605-0.7673-1.0745-0.3069-1.6885z" fill="#BA6600"/>
		<path d="m344.06 92.013c-0.307-1.0745 5.0655-9.8239 11.052-12.894 7.2144-4.605 27.016-4.7585 28.09-4.1445 0.614 0.307 0.7675 1.0745 0.4605 1.535-0.4605 1.0745-17.959 2.763-25.327 7.6749-7.2144 4.912-11.512 8.9029-12.894 8.9029l-1.3815-1.0744z" fill="#BA6600"/>
		<path d="m397.17 249.66c1.6885-0.4605-1.842 5.0655 25.941 17.499 1.9955 0.921 5.8329 10.284 11.512 12.126 6.2935 1.9955 15.196-3.991 20.108-4.1445 9.0565-0.1535 14.736-1.535 18.727-3.5305 6.447-3.2235 8.7495-4.912 9.21-5.219 7.2144-6.7539 1.9955-7.368-5.3725-0.307 0-0.7675-19.648 14.275-24.406 2.3025-1.3815-3.2235-5.219 2.3025-9.3634 1.0745-1.535-0.614-2.9165-6.9074-4.1445-5.9865-15.81 9.8239-36.072-19.034-36.993-19.034-6.14-6.2935-12.433-2.6095-4.912 5.219h-0.307z" fill="#f00"/>
		<path d="m445.98 219.11c0.921-0.4605 10.898-1.9955 14.429-6.6005 6.447-5.0655-10.745-31.774-10.898-32.849 0-0.614 0.307-1.3815 0.921-1.3815 0-1.842 24.406 27.476 14.122 38.375-9.5169 8.5959-18.42 4.605-18.88 3.991-0.4605-0.4605-0.307-1.228 0.307-1.6885v0.1536z" fill="#C4653D"/>
		<path d="m488.5 1.4488c0.1535-1.6885 0.1535-3.377 0-5.0655 2.9165 0.4605 7.675 1.9955 13.661 5.219 0.614 2.456 43.133 19.955 79.206 70.61 9.0565 11.052 11.666 31.007 18.266 34.077 2.3025-10.284-3.377-22.257-5.526-30.546-5.9865-17.345-10.745-27.476-11.052-28.704l-0.1534-0.307c-8.4424-11.666-19.955-25.941-36.072-41.905-4.605-4.605-48.659-43.44-47.892-46.51 0.1535-0.1535 0.307-0.1535 0.4605 0 52.19 35.765 88.722 82.429 99.314 100.85 6.447-11.359-27.783-47.738-27.169-57.255 0.614-10.284 17.499 0.921 29.011 21.643-2.7629-11.205-13.201-29.472-20.722-37.607-1.842-3.2235-14.736-15.35-12.587-15.964 1.535-0.4605 17.499 15.043 19.187 17.806 1.535 2.763 27.937 36.686 20.876 47.585-2.6095 4.1445-27.937-28.09-29.625-30.393 13.201 20.262 41.445 77.364 26.555 75.982-1.0745-0.1535-3.07-4.605-7.8285-12.74 1.9955 7.5215 5.219 17.038 6.9075 30.239-0.7675 2.9165 3.377 8.7494-5.0655 11.512-6.7539-2.9165-5.2189-7.6749-7.3679-11.359-2.763-7.9819-6.447-16.424-11.973-24.867-23.025-33.77-47.278-46.05-60.018-54.646-13.661-7.8284-19.034-10.438-20.415-11.052-4.7585-2.456-7.982-4.7585-10.284-6.447l0.3069-0.1536z" fill="#BA6600"/>
		<path d="m354.65-1.9282l1.0745-0.1535c10.284 3.2235 25.481 7.8284 36.072-3.2235 1.3815-1.228 1.0745-2.456 7.2144-9.6704 11.205-1.0745 8.4424 9.2099 7.5215 12.28-1.535 4.4515-3.8375 8.5959-6.6005 13.201-5.0655 9.0564-13.661 19.341-17.806 32.081-2.149 6.9075 4.6049 9.0564 9.2099 1.535 4.4515-6.447 7.9819-14.429 11.052-23.025 3.991-7.061 3.2234-15.657 8.5959-23.178l-0.7675-1.535-0.1535-0.1535v-0.1535c-0.4605 0 1.0745-0.1535 2.763-0.4605 0.307-0.4605 0.7675-0.7675 1.228-1.228l0.4605 0.921c1.3815-0.1535 2.149-0.307 0.307 0l-0.1535 0.4605c4.4515 9.3634 3.377 20.415 0.1535 30.393-3.377 10.591-8.5959 20.876-15.043 30.853-1.9955 2.3025-3.684 5.833-5.6795 8.5959 3.07-2.149 5.9865-4.605 8.7495-7.368 18.42-16.578 28.244-44.208 23.792-71.684-0.614-3.377-1.228-6.9075-2.149-10.284v-0.1535c-0.921-0.921-1.3815-1.9955-0.921-3.07l-0.4605-1.6885c0.7675-0.7675 1.228-0.4605 1.6885 0.1535l0.921-0.614 0.921 3.2235c4.6049 5.526 7.368 12.433 9.5169 19.341 4.1445 14.122 3.991 29.318 2.3025 44.361-1.842 15.043-5.3724 29.625-10.131 43.44-2.6095 5.9865-1.0745 0.921 2.456-1.228 2.763-2.3025 5.0655-5.0655 6.9074-8.1355 4.298-5.526 7.061-12.126 9.3634-18.573 8.7495-26.402 4.912-53.725-0.4605-77.67-1.3815-5.9865-3.07-11.973-4.912-17.652l-2.149-6.2935-0.614-1.0745 0.1535-0.307-0.1535-0.4605c-0.614-0.921-2.763-1.535-1.228-2.6095-0.1535-0.4605 0.4605-0.921 2.456-1.0745v0.1535l0.7675-0.1535 1.3815 4.1445c5.6795 10.284 10.438 20.415 15.043 30.239 9.2099 19.648 16.117 38.682 22.871 55.567 6.6005 16.424 16.271 30.7 28.551 36.226 2.763 1.0745 5.526 1.842 8.289 1.9955-3.2235-2.149-6.2935-4.4515-8.903-6.754-16.578-14.429-18.727-29.472-19.034-31.928 1.3815-53.111-18.573-67.233-13.354-66.619 2.6095 0 22.871 24.406 20.415 65.391 0.307 1.9955 0.614 8.9029 8.4424 19.801 3.991 5.3725 10.131 11.512 19.187 17.038l1.6885 1.0745 0.921 0.4605 0.4605 0.1535h0.1535c0 2.456 0.1535-5.3725-0.1535 5.3725h-0.1535l-0.4605 0.1535c-1.6885 0.614-3.377 0.7675-5.0654 1.0745-3.377 0.307-6.9075-0.1535-10.438-1.0745-7.0609-2.149-13.661-6.754-18.88-13.047-18.42-22.871-24.867-58.483-44.515-98.546 1.3815 5.0655 2.6095 10.284 3.5305 15.503 2.763 14.889 4.6049 31.007 3.2235 47.892-1.535 16.731-6.2935 35.305-19.648 49.273l-5.219 5.0655-1.228 1.228c-1.535-0.921 2.456 2.9165-3.5305-1.9955l0.307-0.7675 1.228-3.2235c1.535-4.4515 2.9165-9.0564 4.1445-13.661 2.6095-9.2099 4.605-19.034 5.6795-29.011 2.456-19.801 1.3815-39.756-7.368-55.567 0-0.614-0.1535-1.228-0.4605-1.842 0.307 1.228 0.614 2.6095 0.7675 3.8375 1.535 8.9029 1.842 17.652 0.921 26.248-1.535 17.192-9.21 32.542-19.034 44.208-5.0655 5.833-10.591 10.898-16.578 15.043-2.6095-0.614-0.307 6.14-6.9074-0.614l3.07-4.1445 5.6795-8.2889c7.0609-11.205 12.74-22.411 15.81-33.463 1.3815-5.526 2.3025-11.052 1.6885-16.271-0.1535-1.3815-0.307-2.6095-0.614-3.8375-5.219 18.573-9.9774 34.691-20.108 47.278-2.6095 3.5305-10.131 5.833-14.122 1.228-3.8375-4.4515-2.3025-9.5169-1.3815-12.74 2.3025-6.9075 5.6795-12.126 8.4424-17.038 5.6795-9.6704 10.591-17.192 13.354-23.485 0.307-0.921 0.4605-1.6885 0.614-2.3025-0.921 1.3815-1.6885 2.6095-2.3025 3.2235-9.6704 11.512-24.099 9.6704-32.081 7.8284-8.289-1.9955-14.429-4.912-19.187-7.368 2.9165-0.7675 5.6794-1.535 8.7494-1.6885l-0.1531 0.6142z" fill="#BA6600"/>
		<path d="m206.52 150.19c1.6885-1.3815 24.56 12.433 40.984-5.833 13.661-18.42 16.578-50.041 29.011-70.763 14.122-27.937 32.695-51.269 50.655-64.93 18.88-12.74 34.998-14.122 37.914-14.122 3.5305 0 3.5305 0.7675 0.307 1.6885-2.763 1.0745-16.424 2.763-33.309 14.582-16.424 11.973-34.844 35.305-50.348 66.005-16.731 29.932-16.424 63.242-37.914 76.903-22.257 9.8239-35.305-2.3025-38.068-1.842-3.07-1.535-2.763-2.149 0.614-1.535l0.1534-0.1535z" fill="#BA6600"/>
		<path d="m195.17 135.76c2.149 2.3025 21.183-2.3025 30.393-13.508 12.894-12.126 21.643-25.634 23.332-26.555 0.921-0.614 1.535-0.307 1.3815 0.7675-0.4605 1.842-5.6795 15.043-20.876 30.239-15.657 16.578-34.384 13.047-34.998 10.591-0.921-0.614-0.614-1.228 0.614-1.535h0.1536z" fill="#BA6600"/>
		<path d="m521.5-83.59c2.6094 1.842 31.467 14.122 65.851 50.041 33.616 35.151 72.298 98.546 73.373 180.82 0.921 83.196-44.515 142.91-75.368 179.13-33.156 36.686-61.4 49.58-64.316 51.269-19.034 9.21-32.081 11.819-39.296 12.28-1.0745-0.921-2.149-1.842-3.377-2.763 5.9865-2.3025 20.415-6.6005 39.449-15.964 2.3025-1.842 17.806-6.14 49.273-33.309 15.503-13.815 34.23-34.077 53.111-64.47 19.187-29.779 38.528-71.53 37.914-126.18-4.4516-110.21-60.018-164.86-88.722-191.11-32.081-26.402-47.738-31.007-51.115-33.463-28.858-13.815-42.212-17.345-40.37-19.341 1.535-1.0745 18.42 0.4605 43.594 12.894v0.1535z" fill="#BA6600"/>
		<path d="m199.16-21.116c-32.849 50.501-55.106 105.61-52.957 155.8l0.4605-1.3815c1.9955-6.447 4.1445-12.587 6.6004-18.573 5.0655-11.819 10.284-23.792 20.569-32.081 1.3815-0.921 2.9165-1.6885 4.298-2.456l0.307-0.1535h0.1535c-2.9165-3.2235 4.1445 4.298 3.377 3.5305l-0.307 0.4605-0.4605 0.921-0.921 1.9955-3.684 7.8284c-2.3025 5.219-4.4515 10.284-6.2935 15.503-3.5305 10.284-6.447 20.415-6.14 29.932 0.1535 4.4515 1.0745 8.5959 3.377 11.819 0.4605-1.9955 1.842-5.9865 1.6885-8.2889 1.3815-9.0564 2.9165-17.652 5.0655-25.634 4.298-12.587 8.2889-27.323 17.345-33.156 0.7675-1.842 1.6885-3.2235 4.1445-1.9955l0.4605-0.1535c-11.973 20.415-15.35 37.914-9.3634 40.831 10.745 2.3025 11.973 3.991-1.228 1.0745-3.377-1.535-5.219-9.6704-2.149-19.341 0.921-3.07 1.9955-6.447 3.5305-9.9774-7.061 12.28-10.898 28.397-13.201 46.05-2.3025 4.7585 2.456 10.438-7.061 15.196-5.833-4.7585-6.2935-10.438-6.9075-16.117-0.4605-11.359 2.763-22.564 6.6005-33.463 1.842-5.526 4.1445-10.898 6.6004-16.424l0.307-0.614c-6.9074 7.5215-11.666 17.959-15.657 28.244-2.149 5.6795-4.1445 11.512-5.833 17.499l-2.456 8.9029-1.0745 4.4515-0.1535 0.921c1.6885 0 1.228 0 0 0v0.1535l-0.1535 0.614v0.307c-2.456 0 5.219 0.307-5.3725 0v-0.1535l-0.1535-0.921-0.1535-1.3815c-1.842-12.74-2.149-25.788-0.614-38.528 5.526-51.422 28.858-98.086 53.725-135.69 16.885-23.946 35.765-48.506 71.684-67.693 40.217-15.81 102.08-23.332 143.52-18.42 5.3725 1.0745 12.433 3.2235 15.196 1.3815 34.23-1.6885 35.305 5.9865 53.264 13.815-22.257-1.228-17.192-12.28-56.488-8.1354-23.025-6.447-48.659-2.456-75.214-0.921-70.149 8.1355-101 17.499-147.67 84.578l-0.614-0.1533z" fill="#BA6600"/>
		<path d="m154.95 65.765l-0.1535 0.921c-0.307 0.921-0.4605 1.6885-0.7675 2.6095-11.359 11.052-38.068 36.533-67.847 81.508-16.424 26.402-35.612 61.4-35.151 104.07 0 1.228 0 2.456 0.1535 3.684 1.6885-8.289 3.8375-16.578 6.6005-25.02 7.6749-23.332 19.801-46.203 35.458-68 8.1355-10.745 16.578-20.876 25.634-30.086l6.9075-6.754 3.377-3.377 1.3815-1.3815 0.307-0.307c1.9955 1.6885-4.298-3.991 4.4515 3.8375l-0.1535 0.1535-0.1535 0.307-0.1535 0.1535c0.921 0.921 1.3815 1.228 0 0l-0.1535 0.307-0.614 0.921-10.284 15.196c-13.201 20.262-24.713 40.217-34.077 59.711-9.2099 19.494-16.424 38.682-19.341 57.255 1.535 20.876-16.885 35.765-31.774 40.831-1.228 0.4605-2.3025 0.7675-3.5305 1.0745 3.5305-0.4605 7.061-1.3815 10.284-2.6095 11.819-4.4515 20.722-11.819 27.783-18.266 14.122-13.047 21.336-23.332 24.56-27.016 6.2935-7.8284 6.9075-7.368 1.0745 1.228-2.763 3.8375-11.973 18.266-31.16 34.691-9.6704 7.5215-22.718 16.731-39.756 16.424-2.149 0-4.298-0.4605-6.447-1.0745-0.614-0.1535-1.0745-0.307-1.6885-0.614 1.842-7.5215 1.3815-2.149 2.149-3.991l2.9165-0.4605c3.991-0.7675 7.9819-1.6885 11.973-3.2235 7.8284-2.9165 15.35-7.5215 20.876-14.275 6.754-6.9074 7.5215-14.736 8.1354-25.02 1.6885-9.6704 3.991-19.341 7.368-28.704 6.6005-18.88 15.503-37.454 25.327-55.26 4.4515-7.9819 9.0564-15.81 13.815-23.485-5.3725 6.14-10.284 12.126-14.889 18.42-13.661 18.727-24.406 38.989-32.235 59.711-3.684 10.438-6.754 20.876-8.9029 31.467-1.0745 5.219-1.6885 10.591-2.149 15.657v1.6885c-10.745 1.228-3.07 0.307-5.3725 0.4605v-0.1535l-0.1535-0.4605c-1.3815 0.1535-1.842 0.1535 0 0l-0.307-1.535-0.7675-3.991c-0.614-2.6095-0.921-5.3725-1.228-7.9819-4.1445-43.44 14.429-80.74 31.467-108.98 33.309-51.729 66.465-80.74 77.056-90.104l0.1536-0.1535z" fill="#BA6600"/>
		<path d="m84.34 281.58c7.6749-7.2144 9.8239-14.736 10.131-20.108l2.149-2.9165c0.4605 5.3725-0.614 14.275-8.2889 23.025-7.368 10.438-24.867 20.876-32.235 38.682 1.3815-1.228 2.9165-2.149 4.605-2.763 6.9075-3.5305 15.657-1.6885 22.411-1.0745 14.122 2.456 29.318-6.6005 34.844-21.95l1.6885-5.833 0.4605-1.535 0.1535-0.307c-4.605 0.614 6.2935-0.921 5.219-0.7675v0.1535l0.1535 0.307 0.307 0.921 0.921 3.684c0.921 4.912 0.1535 10.131-1.842 14.736-4.298 9.2099-12.74 15.503-21.49 19.801-15.81 7.982-39.296 11.973-48.199 24.099l0.4605-0.1535 7.368-2.9165c4.912-1.842 9.8239-3.5305 14.889-4.7585 10.898-3.5305 21.336 1.228 30.239 1.3815 9.3634 0.921 18.727 1.3815 27.476 0.614 4.4515-0.307 8.5959-1.228 12.433-2.6095 1.9955-0.614 3.5305-1.6885 5.219-2.6095l1.0745-1.0745c-0.7675-0.4605-0.614-0.307 0 0l0.7675-0.7675 0.1535-0.1535c2.3025 1.0745-4.912-2.456 5.0655 2.456v0.1536l-0.1535 0.4605-0.307 0.921-0.7675 1.6885c-4.298 12.74-20.569 18.42-31.314 16.731 8.9029 5.3725 18.266 9.2099 27.169 11.512 43.747 9.3634 71.377-8.4424 81.508-14.736-0.614 1.3815-1.842 2.6095-2.763 3.8375l-0.4605 0.921c-5.526 3.5305-13.815 8.2889-25.174 12.126-18.573 6.2935-47.124 8.2889-74.14-4.912-5.6795-5.0655-15.657-2.9165-17.192-16.117 7.061 1.9955 14.582 3.377 21.49 1.6885 4.605-0.921 8.5959-3.2235 11.666-6.6005-3.5305 1.3815-7.2145 1.9955-10.745 2.6095-16.578 1.842-32.542 0.1535-48.199-2.456-6.2935-1.3815-13.968 1.3815-20.722 3.5305l-10.131 3.8375-4.912 2.149-1.228 0.614c-7.061-1.0745-2.9165-1.3815-4.7585-2.149-0.7675-1.3815-1.0745-2.9165-0.921-4.298 12.28-20.415 33.156-19.955 48.352-27.783 7.8285-3.377 15.196-7.8285 20.108-14.122 1.842-2.3025 3.2235-4.912 4.1445-7.5215-6.14 11.512-17.345 20.108-29.779 20.415-15.964-0.1535-30.7-5.219-36.533 7.8285l-0.614 1.535-0.1535 0.1535-0.1535 0.307c-1.9955 0.1535 3.991 0.921-4.4515 0.4605v-1.3815l0.1535-5.3725c0.921-3.2235 1.9955-6.6005 3.5305-9.21 3.2235-5.5259 7.061-9.9774 10.745-13.968 7.5215-8.1355 14.889-14.429 20.415-20.415h0.1533z" fill="#BA6600"/>
		<path d="m379.06 339.45c0.614 0.1535 10.591-7.8284 16.885-13.047 2.149 0.921 4.298 1.842 6.2935 2.456-5.9865 5.526-19.341 15.964-19.955 15.503-1.0745 1.228-18.727 9.0564-20.415 8.5959-0.7675-0.1535-1.0745-0.7675-0.614-1.535 1.0745-1.228 17.038-10.745 17.806-11.973z" fill="#C4653D"/>
		<path d="m461.49 366.32c1.9955 1.535 9.2099 11.666 34.998 32.542 6.2935 4.912 14.736 11.052 23.485 15.964 10.438 3.07 22.871 5.6795 36.686 3.2235 2.6095 0 10.591-2.6095 11.052 5.526-1.228 3.991-3.8375 5.9865-6.754 7.5215 3.684 0.614 7.5214 1.535 11.205 3.07 2.149 1.228 4.4515 2.149 6.14 4.605 2.7629 1.842 1.228 8.1354-2.3025 8.2889-3.684 1.0745-7.061 1.228-10.438 1.228l0.4605 0.1535c4.4514 2.9165 9.6704 4.298 13.047 11.205-3.5305 11.052-12.433 3.377-16.117 2.9165-1.842-1.228-5.9865-2.6095-8.2889-3.5305 1.842 3.377 4.298 6.9075 5.9865 11.052-0.1535 1.228 2.149 3.2235-1.228 5.526-2.763 1.228-3.5305 0.1535-5.0655 0-2.3025-0.7675-4.605-1.6885-6.6005-2.6095-7.5214-3.377-16.271-8.9029-21.029-10.745 0.307 1.3815 0.921 5.526 1.842 7.368 0.307 3.5305 4.605 6.6005 0.614 12.894-21.49 3.07-21.797-20.415-26.095-26.555-4.6049-8.7494-15.964-6.2935-24.099-6.9074-34.844-3.8375-44.975-13.968-48.352-14.429-11.205-5.9865-18.42-11.666-22.564-15.964 0.307-1.842 0.307-3.8375 0-5.6795 4.912 2.9165 13.354 8.7495 26.095 15.35 2.6095 0.1535 21.336 16.578 61.553 17.038 12.894 2.149 13.508 17.652 18.113 26.402 2.6095 4.605 7.675 9.3635 12.74 8.7495 3.07-2.456-2.763-10.745-2.9164-16.885 9.2099-9.3634 25.481 13.661 34.691 8.4424-0.921-3.377-3.2234-6.447-5.0654-9.8239-0.921-1.6885-2.149-3.07-2.456-5.5259 2.149-2.456 4.1445 0.1535 5.8329 0.4605 5.9865 2.149 16.578 9.6704 19.955 3.2235-3.5305-5.8329-10.745-9.0564-17.038-12.28l-2.6095-0.1535-0.921-0.1535h-0.307c-0.921 3.377 1.228-4.605 1.0745-3.8375h0.1535l0.4605 0.1535 1.6885 0.7675 1.228 0.614c4.1445-0.307 12.28 1.0745 15.657-1.228 3.991-5.3725-7.9819-9.2099-13.354-9.9774-2.3025-0.4605-4.7585-0.614-7.061-0.921-1.0745 0.614-2.149 1.228-2.6094-0.1535h-0.4605l0.307-0.921c-0.1535-0.614-0.1535-1.228-0.1535-2.149l1.9955 0.1535c1.842-0.7675 4.298-0.7675 5.5259-2.3025 2.3025-1.6885 5.219-4.605 4.1445-6.2935-1.228-1.535-4.9119-0.921-7.6749-0.4605-6.2935 1.0745-12.433 1.535-18.42 0.921-11.512-0.614-23.025-3.8375-30.853-9.8239-33.002-21.49-48.813-39.603-51.115-41.291-44.361-48.506-36.993-52.497 5.219-4.912v0.1532z" fill="#C4653D"/>
		<path d="m170.76 240.75c2.763 2.456 38.068 25.174 66.619 23.639 17.192 0.4605 35.765-3.684 48.506 2.6095 12.587 4.6049 19.955 9.6704 21.49 10.898 1.535 1.3815 1.0745 1.9955-0.7675 1.535-4.298-0.7675-26.709-16.578-69.689-9.0565-44.054-1.6885-64.93-27.016-67.233-28.397-1.3814-1.5349-0.7674-1.9954 1.0746-1.2279z" fill="#C4653D"/>
		<path d="m213.28 393.79l-0.7675 0.614c-1.842-1.228-12.126-4.7585-14.429-5.219 0.1535-1.0745 13.047-5.0655 14.122-5.8329 0.307-0.307 7.8284-1.535 17.038-17.499 7.061-12.126 9.9774-22.411 11.205-26.709 2.3025 0.614 4.605 1.0745 6.9075 1.0745-1.0745 1.535-5.0655 7.6749-15.81 26.862-12.587 21.183-17.806 25.788-18.113 26.709h-0.1535z" fill="#C4653D"/>
		<path d="m246.74 341.45c-4.7585-0.7675-39.296-1.535-74.294-25.174-17.345-11.512-33.77-28.397-45.436-48.199-5.9865-9.8239-10.898-20.262-14.429-30.853-1.535-7.2145-15.043-15.503-16.885-26.095 0.307-1.535-3.07-4.7585 3.07-8.1355 3.684 0.4605 5.219 1.842 6.2935 2.456 2.6095 1.535 5.526 3.377 7.9819 4.298 0.1535 6.2935-3.991-6.754-5.833-11.052-0.7675-3.2235-1.9955-7.0609 0.614-11.512 1.6885-2.149 3.684-2.9165 5.6795-3.2235 2.456-1.0745 6.6005 2.3025 6.447 3.684 2.6095 5.833 3.684 13.201 5.833 15.35-2.763 1.842 0.614-8.4424 0.307-12.74 0.614-2.9165 0.1535-5.526 2.6095-9.2099 2.9165-4.7585 9.9774-0.7675 10.284 2.149 4.605 11.819-1.228 22.411 4.605 28.09 3.377 1.842 2.149-14.122 9.6704-19.187 5.3725-3.07 10.131 3.07 9.5169 6.6004 0.307 3.684 0 6.9075-0.307 9.8239-3.684 11.973 0.4605 17.806 2.9165 19.341 4.4515 3.07 4.605 3.991-0.7675 1.3815-2.763-0.614-8.5959-8.5959-5.3725-19.341 0.4605-4.298 1.535-13.354-2.149-15.043-5.0655-0.7675-5.0655 9.9774-8.5959 18.727-17.192 3.991-11.205-17.652-12.433-23.639-3.8375-15.196-4.605 0.307-5.9865 12.894-1.0745 1.0745 0.921 4.912-5.6795 5.3725-3.07-1.228-3.8375-3.377-4.605-4.912-1.3815-3.2235-2.3025-6.2935-3.2235-9.2099-1.0745-3.07-2.3025-5.833-2.149-4.4515-2.149 0.4605-2.456 1.535-2.3025 4.4515 0.614 2.763 1.6885 5.833 3.07 8.9029 0.614 1.6885 1.3815 2.9165 2.149 4.7585 0.4605 0.4605 3.2235 7.368-3.684 7.9819-7.6749-1.535-18.42-9.8239-11.973-5.9865 2.3025 6.14 6.6005 12.126 11.359 16.578 7.2144 7.5215 5.526 13.354 9.2099 19.648 5.3725 12.126 11.666 23.332 18.88 32.849 14.122 19.341 31.16 32.542 46.357 41.291 31.314 17.192 54.799 18.113 59.711 19.801l-0.307 1.6885-0.1534-0.1536z" fill="#DC8554"/>
		<path d="m140.52 229.24c0.921-0.614 7.9819-3.2235 17.345-1.9955 5.6795 4.912 15.81-9.5169 28.09-2.3025 5.0655 12.28-7.9819 12.894-9.9774 14.736-4.298 2.149-8.289 4.4515-11.666 6.447-6.9075 3.991-11.666 6.6004-12.74 6.9075-1.228 0.307-1.6885-0.307-0.921-1.3815 0.7675-0.921 4.298-4.1445 10.438-8.5959 3.07-2.149 6.754-4.912 11.359-7.5215 4.912-2.149 10.745-6.14 9.3634-6.2935-1.9955-1.228-9.517 0.7675-13.508 2.456l-3.377 1.3815c-1.6885 0.1535 1.3815 0.614-3.991 0.4605l-1.3815-0.4605c-1.6885-0.7675-3.5305-1.3815-5.3725-1.535-7.2145-1.228-11.819-0.4605-13.047-0.614s-1.535-0.7675-0.4605-1.535l-0.1534-0.1535z" fill="#DC8554"/>
		<path d="m214.05 259.33c-4.298 28.704-11.359 54.646-26.402 72.605l54.799 10.745c12.894-8.1354 15.503-27.016 23.332-40.524l-5.3725-38.835c-2.6095 0-5.833 0.4605-8.1355 0.7675-11.205 1.0745-24.56 0.307-38.375-4.6049l0.1536-0.1536z" fill="#ccf"/>
		<path d="m485.89 388.27c-17.345 21.029-30.853 42.059-33.77 63.856l-41.752-31.314c-2.456-14.122 9.0564-27.783 13.508-41.598l27.937-19.187c5.0655 12.74 18.88 14.889 34.23 28.397l-0.1535-0.1535z" fill="#ccf"/>
		<path d="m471.62 376.75c-12.433-13.354-21.336-22.718-34.23-35.765-23.485 17.806-72.298 53.111-112.67 40.37-33.463-10.591-45.589-107.3-41.138-115.43-0.307-0.1535-14.736-4.7585-31.314-1.842 10.745 28.397 5.3725 52.343 1.9955 61.246-3.2235 8.9029-9.6704 13.661-23.946 13.354-7.9819 9.2099-12.587 49.427-15.81 63.856-19.801 12.894-37.147 29.011-52.19 46.05l248.98 1.3815c5.0655-9.5169 8.5959-17.652 8.903-20.108 5.8329-34.537 31.621-48.813 51.422-53.111z" fill="#6B7F8F"/>
		<path d="m291.41-42.759c-37.3 10.591-42.826 65.698-82.429 71.377 41.905-26.095 37.761-68.46 79.973-82.89 3.2235-0.614 6.2935 1.3815 6.9074 4.4515 0.614 3.2235-1.3815 6.2935-4.4515 6.9075v0.1535z" fill="#FF9A1F"/>
		<path d="m334.24-35.698c-83.196 22.104-57.409 95.323-125.1 96.858 84.885-40.063 32.542-80.74 122.65-108.22 3.2235-0.7675 6.2935 1.228 7.061 4.4515s-1.228 6.2935-4.4515 7.061l-0.1535-0.1536z" fill="#FF9A1F"/>
		<path d="m331.93-9.6032c-46.05 15.503-17.806 10.284-44.668 23.946 15.503-24.406 8.7495-19.494 40.677-34.844 3.07-1.0745 6.447 0.4605 7.5215 3.377 1.0745 3.07-0.4605 6.447-3.377 7.5215h-0.1535z" fill="#FF9A1F"/>
		<path d="m351.12-82.976c39.603-22.871 82.89 9.2099 12.894 16.885-24.867 32.235 91.639-6.447 20.876 32.081l-9.9774 4.605c3.8375-3.07 19.187-14.736 24.099-19.955-11.973 1.842-30.853 12.126-41.138 1.228-21.49-22.871 16.885-30.853 29.318-32.849-9.2099-2.6095-22.564 3.377-29.165 7.5214-2.6095 1.842-6.2935 1.228-8.1354-1.3815-1.842-2.6095-1.228-6.2935 1.3815-8.1354h-0.1537z" fill="#FF9A1F"/>
		<path d="m457.96-86.813c-3.991 0-11.359-0.307-15.657 0.7675 2.456 11.512 44.361 7.8284 15.657 24.099 2.149 0.921 13.354 5.526 14.275 5.9865-16.117-1.535-28.397-3.991-12.74-12.433-28.244-10.284-41.905-25.174-1.535-27.323 3.2235 0 5.833 1.9955 5.833 4.4515 0 2.4559-2.6095 4.4514-5.833 4.4514zm-15.81 0.3069c0-0.1535 0.1535-0.4605 0-0.7675v0.7675zm15.503 24.56v-0.1535h0.1535l-0.1535 0.1535zm4.605-7.8285l0.307-0.1535c-0.1535 0-0.307 0.1535-0.307 0.1535z" fill="#FF9A1F"/>
			<defs>
				<path id="l" d="m405.31 799.8s-28.858 22.718-78.284 14.889-3.377-27.169 25.788-24.867c29.165 2.1489 70.149-1.6886 52.497 9.9774z"/>
			</defs>
			<clipPath>
				<use overflow="visible" xlink:href="#l"/>
			</clipPath>
			<defs>
				<path id="g" d="m287.57 801.79s-28.858 22.718-78.284 14.889-3.377-27.169 25.788-24.867c29.165 2.149 70.149-1.6885 52.497 9.9774z"/>
			</defs>
			<clipPath>
				<use overflow="visible" xlink:href="#g"/>
			</clipPath>
		<path d="m283.89 769.86c0.614 6.447 1.6885 14.122-0.4605 20.415-3.5305 10.284-21.029 16.731-30.086 18.727-27.476 5.8329-42.059-18.42-37.761-41.905 1.9955-10.591 6.447-21.183 11.973-30.546 5.526 9.3634 15.043 15.503 26.402 14.429 6.9075-0.614 19.034-5.8329 25.02-13.047 1.9955 10.591 3.684 21.336 4.7585 31.928h0.1535z" fill="#6B7F8F"/>
		<path d="m388.73 749.76c11.819 8.7495 29.318 42.519 9.9774 51.576-10.438 4.912-23.485 5.6794-34.844 5.9865-7.982 0.1535-19.648 0.4605-25.02-6.6005-10.591-13.968-9.21-27.783-7.982-44.822 13.508-6.447 31.928-14.582 47.278-10.898l0.614 0.1535c1.535 0.1535 8.2889 2.6094 9.8239 4.6049h0.1536z" fill="#6B7F8F"/>
		<path d="m227.4 741.77s-17.652 40.37-1.228 48.659 51.269 4.298 52.19-12.74-43.44-5.8329-43.44-5.8329 7.2145-24.253-7.5215-30.239v0.1534z" fill="#ccf"/>
		<path d="m338.53 776.31c7.2144-8.5959 41.445-30.546 59.865-5.219 19.801 27.323-24.713 27.63-40.063 27.63-13.815 0-27.016-13.815-19.801-22.411z" fill="#ccf"/>
		<path d="m230.93 732.87c15.964-0.7675 31.314-1.535 47.278-2.149 0 0.1535-0.1535-0.7675-0.1535-0.614 0.4605 13.354-23.792 20.415-32.695 17.192-6.6005-2.3025-11.666-7.982-14.429-14.582v0.1535z" fill="#ccf"/>
		<path d="m326.25 728.88c16.117-0.614 31.928-1.228 47.738-1.6885 0 0.307 3.8375 12.587 4.4515 15.043-12.894-1.535-29.318 3.991-41.752 9.517l-0.1535-0.307c0.1535-0.1535 0.307-0.307 0.1535-0.4605-1.0745-2.3025-9.9774-21.336-10.438-22.104z" fill="#ccf"/>
		<path d="m348.36 762.34c9.0564-4.912 19.801-7.675 29.932-5.9865 1.228 0.1535 5.219-1.6885 2.763-2.149-11.973-1.9955-24.867 1.3815-35.305 7.061-2.6095 1.3815 1.3815 1.6885 2.6095 0.921v0.1535z" fill="#544226"/>
		<path d="m353.42 774.01c7.9819-3.07 20.262-6.2935 29.625-3.684 1.9955 0.614 5.219-2.456 2.456-3.07-11.052-3.0699-23.639 0-34.077 3.991-2.9165 1.0745-0.307 3.684 1.9955 2.9165v-0.1535z" fill="#544226"/>
		<path d="m366.47 783.53c4.912-3.684 11.205-5.526 17.192-3.8375 1.0745 0.307 5.0655-1.3815 3.684-1.842-8.2889-2.3025-17.499 0.307-24.253 5.3725-1.842 1.3815 2.6095 1.0745 3.5305 0.307h-0.1536z" fill="#544226"/>
		<path d="m321.34 729.03c3.5305 7.368 7.8285 17.038 11.359 24.406l4.298-1.9955c-3.5305-7.368-7.368-15.196-10.745-22.564l-4.912 0.1535z" fill="#343C49"/>
		<path d="m378.29 742.23l5.0655 1.0745c-1.535-5.0655-3.377-11.205-4.912-16.271l-4.4515 0.1535c0.4605 3.991 3.07 10.898 4.298 15.043z" fill="#343C49"/>
		<path d="m225.25 733.18c-8.4425 13.354-15.043 31.314-15.043 47.278 0 24.253 24.56 34.23 45.282 29.779 12.74-2.763 32.235-11.666 33.463-26.402 1.3815-16.424-2.763-34.384-5.9865-50.501l-4.4515 1.228c2.3025 11.666 4.298 23.485 5.526 35.458 0.614 6.447 1.6885 14.122-0.4605 20.415-3.5305 10.284-21.029 16.731-30.086 18.727-27.476 5.833-42.059-18.42-37.761-41.905 2.149-11.512 8.289-24.406 14.429-34.077l-4.912 0.307v-0.3069z" fill="#544226"/>
		<path d="m254.11 750.98c9.3634-0.921 29.625-10.745 29.318-20.415l-5.526 0.1534c0.1535 12.74-23.639 19.955-32.542 16.731-6.9075-2.456-11.512-7.982-14.429-14.582l-5.219 0.307c2.6095 11.973 16.424 19.034 28.397 17.959v-0.1534z" fill="#343C49"/>
		<path d="m381.97 783.83c0 1.0745-1.535 1.842-3.5305 1.842-1.842 0-3.5305-0.7675-3.5305-1.842s1.535-1.842 3.5305-1.842c1.842 0 3.5305 0.7676 3.5305 1.842z" fill="#FFF9C9"/>
		<path d="m197.78 488.65c1.842 13.354 6.2935 39.756 2.6095 51.729l-14.736 46.203c52.957-12.894 117.27-25.174 155.8-14.736l35.612 9.6705 8.5959 7.6749c39.142-7.5214 81.968-22.718 121.57-18.727l46.51 4.605-68.46-90.871c-24.253-4.912-65.391-5.526-104.53 0.4605l-42.673 8.1355c-35.612-3.2235-67.54-9.9774-106.68-9.6704l-33.463 5.5259h-0.1536z" fill="#E6E6E6"/>
		<path d="m381.21 569.86c-8.1355-15.503-16.424-30.853-24.56-46.357-4.7585-8.7495-9.3634-17.652-13.968-26.402-1.535-2.763-2.149-6.14-5.526-6.7539-21.029-3.991-42.366-6.754-63.549-8.2889-25.481-1.9955-53.725-3.5305-77.978 5.8329-0.614 0.307-1.535 1.0745-1.228 1.842 5.526 19.034 7.0609 40.677 0.7675 59.711-2.6095 7.9819-18.573 30.239-11.359 39.756 0.614 0.7675 1.6885 0.7675 2.456 0.4605 21.336-5.8329 43.287-9.9774 65.237-13.201 36.84-5.5259 78.898-10.131 114.66 3.07 8.1354 3.0699 15.043 12.28 23.639 9.8239 12.433-3.5305 24.867-6.447 37.454-9.2099 25.327-6.14 61.86-14.429 125.87-4.1445 1.228 0.4605 3.377 1.0745 2.149-0.614-15.657-21.183-51.729-70.61-67.386-91.792-1.228-1.535-3.684-1.0745-2.3025 0.614 39.756 53.878 56.181 71.991 65.851 89.336-13.815-2.456-60.325-9.6705-122.49 3.0699-13.968 2.9165-27.783 6.14-41.445 10.131-2.456 0.7675-6.9075-4.6049-10.898-6.7539-7.675-4.1445-16.271-6.6005-24.867-8.2889-38.682-8.1355-80.74-2.149-119.27 4.6049-13.815 2.456-27.63 5.3725-41.291 8.7495-1.3815 0.307-2.9165 0.7675-4.298 1.0745-2.763 0.7675 0-0.307 0.921 0.921-3.5305-4.7584 2.3025-16.731 3.991-20.722 3.5305-9.0565 8.2889-16.885 10.284-26.402 1.9955-9.21 1.6885-19.034 0.921-28.397-0.614-6.6005-1.6885-13.201-3.2235-19.648-0.921-3.684-1.3815-1.9955 1.0745-2.763 3.991-1.3815 8.2889-2.3025 12.587-2.9165 33.463-5.833 69.535-0.921 102.84 4.1445l14.275 2.3025c1.535 0.307 3.07 0.4605 4.605 0.7675 2.149 0.4605 0.7675 0.614 0.307-0.307 3.684 7.061 7.368 13.968 11.205 20.876 10.284 19.187 20.415 38.528 30.7 57.716 0.921 1.6885 5.219 0.1534 4.1445-1.9955l-0.307 0.1535z" fill="#838A8C"/>
		<path d="m338.07 493.87c43.133-13.968 87.801-18.573 148.13-10.898 0.7675 1.228 0.307 1.228 1.0745 1.9955-24.099-8.903-124.33-0.1536-149.2 8.9029z" fill="#838A8C"/>
		<path d="m200.85 480.52c1.842 13.354 6.2935 39.756 2.6095 51.729l-14.736 46.203c52.957-12.894 117.27-25.174 155.8-14.736l35.612 9.6705 8.5959 7.6749c39.142-7.5214 81.968-22.718 121.57-18.727l46.51 4.605-68.461-90.871c-24.253-4.912-65.391-5.5259-104.53 0.4605l-42.673 8.1354c-35.612-3.2235-67.54-9.9774-106.68-9.6704l-33.463 5.526h-0.1535z" fill="#E6E6E6"/>
		<path d="m384.12 561.72c-8.1355-15.503-16.424-30.853-24.56-46.357-4.7585-8.7495-9.3634-17.652-13.968-26.402-1.535-2.763-2.149-6.14-5.526-6.7539-21.029-3.991-42.366-6.754-63.549-8.289-25.481-1.9955-53.725-3.5305-77.978 5.833-0.614 0.307-1.535 1.0745-1.228 1.842 5.526 19.034 7.061 40.677 0.7675 59.711-2.6095 7.9819-18.573 30.239-11.359 39.756 0.614 0.7675 1.6885 0.7675 2.456 0.4605 21.336-5.8329 43.287-9.9774 65.237-13.201 36.84-5.5259 78.898-10.131 114.66 3.07 8.1354 3.0699 15.043 12.28 23.639 9.8239 12.433-3.5305 24.867-6.447 37.454-9.21 25.327-6.14 61.86-14.429 125.87-4.1445 1.228 0.4605 3.377 1.0745 2.149-0.614-15.657-21.183-51.729-70.61-67.386-91.792-1.228-1.535-3.684-1.0745-2.3025 0.614 39.756 53.878 56.181 71.991 65.851 89.336-13.815-2.4559-60.325-9.6704-122.49 3.07-13.968 2.9165-27.783 6.14-41.445 10.131-2.456 0.7675-6.9075-4.605-10.898-6.754-7.675-4.1445-16.271-6.6004-24.867-8.2889-38.682-8.1354-80.74-2.149-119.27 4.605-13.815 2.456-27.63 5.3725-41.291 8.7495-1.3815 0.307-2.9165 0.7675-4.298 1.0745-2.763 0.7675 0-0.307 0.921 0.921-3.5305-4.7585 2.3025-16.731 3.991-20.722 3.5305-9.0565 8.289-16.885 10.284-26.402 1.9955-9.2099 1.6885-19.034 0.921-28.397-0.614-6.6005-1.6885-13.201-3.2235-19.648-0.921-3.684-1.3815-1.9955 1.0745-2.763 3.991-1.3815 8.2889-2.3025 12.587-2.9165 33.463-5.8329 69.535-0.921 102.84 4.1445l14.275 2.3025c1.535 0.307 3.07 0.4605 4.6049 0.7675 2.149 0.4605 0.7675 0.614 0.307-0.307 3.684 7.0609 7.368 13.968 11.205 20.876 10.284 19.187 20.415 38.528 30.7 57.716 0.921 1.6885 5.219 0.1535 4.1445-1.9955l-0.3072 0.1536z" fill="#838A8C"/>
		<path d="m341.14 485.74c43.133-13.968 87.801-18.573 148.13-10.898 0.7675 1.228 0.307 1.228 1.0745 1.9955-24.099-8.903-124.33-0.1535-149.2 8.9029z" fill="#838A8C"/>
		<path d="m200.85 471.46c1.842 13.354 6.2935 39.756 2.6095 51.729l-14.736 46.203c52.957-12.894 117.27-25.174 155.8-14.736l35.612 9.6704 8.5959 7.6749c39.142-7.5214 81.968-22.718 121.57-18.727l46.51 4.605-68.461-90.871c-24.253-4.912-65.391-5.526-104.53 0.4605l-42.673 8.1355c-35.612-3.2235-67.54-9.9774-106.68-9.6704l-33.463 5.526h-0.1535z" fill="#EBEDE8"/>
		<path d="m384.12 552.66c-8.1355-15.503-16.424-30.853-24.56-46.357-4.7585-8.7495-9.3634-17.652-13.968-26.402-1.535-2.763-2.149-6.14-5.526-6.754-21.029-3.991-42.366-6.754-63.549-8.2889-25.481-1.9955-53.725-3.5305-77.978 5.8329-0.614 0.307-1.535 1.0745-1.228 1.842 5.526 19.034 7.061 40.677 0.7675 59.711-2.6095 7.9819-18.573 30.239-11.359 39.756 0.614 0.7675 1.6885 0.7675 2.456 0.4605 21.336-5.8329 43.287-9.9774 65.237-13.201 36.84-5.5259 78.898-10.131 114.66 3.07 8.1354 3.0699 15.043 12.28 23.639 9.8239 12.433-3.5305 24.867-6.447 37.454-9.2099 25.327-6.14 61.86-14.429 125.87-4.1445 1.228 0.4604 3.377 1.0745 2.149-0.614-15.657-21.183-51.729-70.61-67.386-91.792-1.228-1.535-3.684-1.0745-2.3025 0.614 39.756 53.878 56.181 71.991 65.851 89.336-13.815-2.456-60.325-9.6705-122.49 3.0699-13.968 2.9165-27.783 6.14-41.445 10.131-2.456 0.7675-6.9075-4.605-10.898-6.754-7.675-4.1445-16.271-6.6005-24.867-8.2889-38.682-8.1355-80.74-2.149-119.27 4.6049-13.815 2.456-27.63 5.3725-41.291 8.7495-1.3815 0.307-2.9165 0.7675-4.298 1.0745-2.763 0.7675 0-0.307 0.921 0.921-3.5305-4.7584 2.3025-16.731 3.991-20.722 3.5305-9.0565 8.289-16.885 10.284-26.402 1.9955-9.21 1.6885-19.034 0.921-28.397-0.614-6.6005-1.6885-13.201-3.2235-19.648-0.921-3.684-1.3815-1.9955 1.0745-2.763 3.991-1.3815 8.2889-2.3025 12.587-2.9165 33.463-5.833 69.535-0.921 102.84 4.1445l14.275 2.3025c1.535 0.307 3.07 0.4605 4.6049 0.7675 2.149 0.4605 0.7675 0.614 0.307-0.307 3.684 7.061 7.368 13.968 11.205 20.876 10.284 19.187 20.415 38.528 30.7 57.716 0.921 1.6885 5.219 0.1535 4.1445-1.9955l-0.3072 0.1536z" fill="#838A8C"/>
		<path d="m341.14 476.68c43.133-13.968 87.801-18.573 148.13-10.898 0.7675 1.228 0.307 1.228 1.0745 1.9955-24.099-8.903-124.33-0.1536-149.2 8.9029z" fill="#838A8C"/>
		<path d="m553.59 562.03c-7.9819 17.345 22.257 20.262 22.257 20.262s39.91 13.047 43.133-4.298-65.391-18.88-65.391-15.964z" fill="#C78E44"/>
		<path d="m583.83 487.27c-0.307 0.307-0.7675 0.4605-1.6885 0.307l-5.3725-0.614c-13.047-1.3815-29.318-2.149-39.449 8.2889-7.8284 8.1355-5.6794 20.876-3.377 29.779 2.6094 9.9774 7.2144 19.187 12.28 27.937 1.842 3.2235 3.991 6.447 6.14 9.517 6.6005 9.5169 18.573 9.3634 27.783 2.3025 0.921-0.614 2.456-0.307 3.2234 0.307 19.187 17.499 38.375-29.625 41.445-42.059 7.0609-27.63-11.205-55.874-41.291-35.919l0.3071 0.1535z" fill="#DC0000"/>
		<path d="m595.95 488.04s1.9955 15.657-12.433 17.345-23.792-10.438-20.722-13.354c3.07-2.9165 14.429 12.74 33.156-3.991z" fill="#E31E24"/>
		<path d="m597.79 493.72c-7.2145 23.485-27.323 16.271-35.151 1.842-2.763-1.3815 0-3.07 1.9955-2.149 6.447 6.754 17.806 18.266 24.56 6.447 1.842-1.9955 3.377-4.7585 4.298-7.5215 0.6139-1.842 4.9119-0.4605 4.2979 1.3815z" fill="#9A0000"/>
		<path d="m580.6 484.36c10.438-6.9074 26.402-10.745 36.379-3.8375 15.043 10.131 15.964 29.779 11.512 47.278-3.991 15.503-15.657 41.598-34.691 43.747-3.8375 0.4604-7.8284-0.7675-11.052-2.6095l-0.921-0.307c-1.535 0.921-3.0699 1.842-4.7585 2.6095-28.09 11.666-43.287-28.397-48.199-48.659-2.3025-9.824-2.6095-21.49 5.5259-30.086 11.666-12.28 32.388-9.6704 46.05-7.982 0 0.7675 0.614 3.2235 0.614 3.2235-13.508-1.6885-32.695-3.8375-43.747 7.8285-7.8284 8.1354-5.6794 20.876-3.377 29.779 2.6094 9.9775 7.2144 19.187 12.28 27.937 1.842 3.2235 3.991 6.447 6.14 9.517 6.6005 9.5169 18.573 9.3634 27.783 2.3025 0.921-0.614 2.456-0.307 3.2234 0.3069 19.187 17.499 38.375-29.625 41.445-42.059 7.0609-27.63-11.052-56.027-41.291-35.919-0.4605 0.614-1.6885 0.4605-2.456 0.307-1.9955-0.4605-1.535-2.6095-0.614-3.2235l0.1537-0.1536z" fill="#9A0000"/>
		<path d="m585.82 463.94c-5.5259 11.205-10.131 25.02-8.903 38.989 0.1535 1.9955 4.605 0.921 4.4515-0.4605-1.3815-13.354 3.07-26.862 8.5959-38.221 0.921-1.842-3.5305-1.3815-4.1445-0.1535v-0.1534z" fill="#9A0000"/>
		<path d="m611.92 489.27s21.029 14.429 3.8375 47.738c-17.192 33.463-22.257 31.774-28.397 23.178-5.9865-10.745-5.6794 2.456-19.034 1.3815-13.201-1.0745-42.673-52.19-11.666-51.115s55.874 0 55.106-21.336l0.1535 0.1535z" fill="#FF4141"/>
		<path d="m590.12 515.67s2.456-19.034 21.336-17.806c18.88 1.0745 3.5304 39.142-21.336 17.806z" fill="#FF691F"/>
		<path d="m598.72 510.14c1.228 2.6095 5.526 2.9165 9.6705 0.7675s6.447-6.14 5.2189-8.7494c-1.228-2.6095-5.5259-3.07-9.6704-0.7675-4.1445 2.149-6.447 6.14-5.219 8.7494z" fill="#FFB061"/>
		<polygon points="477.45 396.4 484.05 388.73 471.46 379.06 462.87 382.13" fill="#99f"/>
		<path d="m215.43 263.63c-0.4605 3.684-1.0745 7.5215-1.535 11.205 14.736 3.377 27.63 2.456 39.603-1.0745-0.921-2.149-1.6885-4.4515-2.6095-6.6004-12.587 2.6095-24.253 0.614-35.612-3.5305h0.1536z" fill="#99f"/>
		<path d="m255.03 265.93c0.921 1.9955 1.6885 3.8375 2.6095 5.8329 7.982-0.921 15.043-0.4605 21.643 0.7675 0.1535-1.9955 0.307-3.8375 0.4605-5.8329-7.2144-2.763-15.503-2.763-24.56-0.7675h-0.1536z" fill="#4D4D4D"/>
		<polygon points="433.86 348.36 438.31 344.83 467.32 375.37 460.26 378.9" fill="#4D4D4D"/>
		<path d="m185.8 444.14c35.919-6.7539 73.833-8.4424 108.68-13.201 24.253-3.377 66.465-7.0609 86.266-25.327 31.774-18.88 30.086-32.849 46.664-39.603l8.1354 20.262c-8.4424 11.819-16.885 23.639-25.327 35.612-1.9955 7.5215-3.991 14.889-6.14 22.411h-218.28v-0.1536z" fill="#4D4D4D"/>
		<path d="m330.86 756.05c16.578-7.982 41.291-18.573 57.869-6.14 11.819 8.7495 29.318 42.519 9.9774 51.576-10.438 4.912-23.485 5.6794-34.844 5.9865-7.982 0.1535-19.648 0.4605-25.02-6.6005-10.591-13.968-9.0564-27.476-7.9819-44.822l-3.5305-0.1535c-1.0745 16.578-5.219 45.436 15.81 51.729 18.113 5.3725 45.129 1.6885 61.553-7.2144 8.289-4.4515 7.2145-14.736 5.526-22.718-2.763-12.894-11.052-26.862-23.178-32.849-16.885-8.4424-44.208 3.8375-59.558 11.205l3.377 0.1534v-0.1533z" fill="#544226"/>
		<path d="m514.9 203.91c0.307 8.903 14.122 15.657 30.853 15.043s30.086-8.4424 29.625-17.345c-0.307-8.9029-14.122-15.657-30.853-15.043s-30.086 8.4425-29.625 17.345z" fill="#FF9561"/>
		<path d="m315.82 198.39c0.307 8.9029 14.122 15.657 30.853 15.043s30.086-8.4424 29.625-17.345c-0.307-8.9029-14.122-15.657-30.853-15.043s-30.086 8.4424-29.625 17.345z" fill="#FF9561"/>
		<path d="m540.69 135.3c0.921-0.1535 1.9955-0.4605 2.9165-1.0745 1.9955-1.0745 3.8375-2.763 5.219-4.912s1.9955-4.605 1.9955-6.9074c0-1.228 1.0745-2.3025 2.3025-2.3025s2.3025 1.0745 2.3025 2.3025c0 2.3025-0.4605 4.4515-1.228 6.447-1.228 3.07-3.2234 5.6795-5.8329 7.8284-2.149 1.6885-4.605 2.9165-7.2145 3.2235 0 1.6885 0 3.377-0.307 5.0655-3.377 23.946-33.156 20.262-36.226-2.149-4.1446-29.932 31.621-31.007 36.072-7.5215z" fill="#1D1D1B"/>
		<path d="m515.83 142.67c-8.7494-2.763-8.2889-17.806 2.149-15.657 8.5959 1.842 9.517 19.187-2.149 15.657z" fill="#fff"/>
		<path d="m350.2 132.69c-0.921-0.307-1.842-0.921-2.763-1.535-1.9955-1.3815-3.684-3.5305-4.912-5.833s-1.842-4.912-1.6885-7.368c0.1535-1.228-0.921-2.456-2.149-2.763s-2.3025 0.614-2.456 1.842c-0.1535 2.3025 0.1535 4.605 0.921 6.754 1.0745 3.2235 2.9165 6.2935 5.219 8.7494 1.9955 1.9955 4.298 3.684 6.9075 4.605-0.1535 1.6885-0.1535 3.377 0 5.219 2.149 24.867 31.467 26.095 35.765 3.8375 5.6795-29.472-29.318-36.533-34.998-13.661l0.1535 0.1535z" fill="#1D1D1B"/>
		<path d="m374.3 144.2c8.7495-1.228 9.2099-16.578-1.228-16.117-8.5959 0.4605-10.284 17.806 1.228 16.117z" fill="#fff"/>
</svg>
