<?xml version="1.0" encoding="utf-8"?>
<!-- Generator: Adobe Illustrator 25.4.1, SVG Export Plug-In . SVG Version: 6.00 Build 0)  -->
<svg version="1.1" id="Layer_1" xmlns="http://www.w3.org/2000/svg" xmlns:xlink="http://www.w3.org/1999/xlink" x="0px" y="0px"
	 viewBox="0 0 585 572.7" style="enable-background:new 0 0 585 572.7;" xml:space="preserve">
<style type="text/css">
	.st0{fill:#7E7E7E;stroke:#7E7E7E;stroke-width:3.6;stroke-miterlimit:4;}
	.st1{fill:#7E7E7E;stroke:#7E7E7E;stroke-width:2.9678;stroke-miterlimit:3.2976;}
	.st2{fill:#7E7E7E;stroke:#7E7E7E;stroke-width:2.3474;stroke-miterlimit:2.6082;}
	.st3{fill:#7E7E7E;}
	.st4{fill:#FF9955;}
	.st5{fill:#552200;}
	.st6{fill:#0096FF;}
	.st7{fill:#FF0000;}
	.st8{fill:#FFFF00;}
	.st9{fill:#441B00;}
	.st10{fill:#FFFFFF;}
	.st11{fill:#2B2B2B;}
</style>
<g transform="translate(-178.09 -88.353)">
	<g transform="translate(-585.87 -68.389)">
		<g transform="matrix(.83605 .54866 -.54866 .83605 1410.3 -624.25)">
			<g transform="translate(-24.244 51.518)">
				<path class="st0" d="M271.4,1172.4l8.6-8.6c-34.5,70.9-46,143.5-42.9,217.1l-2.9-17.1C230.5,1301.2,237.7,1237.7,271.4,1172.4
					L271.4,1172.4z"/>
				<path class="st0" d="M222.9,1175.2l11.4-20c-26.8,73.9-34.4,152.1-37.1,231.4l-2.9-5.7C198.2,1311.7,198.3,1241.9,222.9,1175.2
					L222.9,1175.2z"/>
			</g>
			<g transform="matrix(.9952 -.097892 .097892 .9952 -122.19 46.931)">
				<g transform="matrix(.14229 -.81202 .81202 .14229 -777.35 1177.8)">
					<path class="st1" d="M234.3,1155.2c-42.9,52.7-24.3,77.4-27,134.5l-2.9-5.7C192.3,1219.5,193.5,1186.4,234.3,1155.2
						L234.3,1155.2z"/>
				</g>
				<g transform="matrix(.11255 -.64226 .64226 .11255 -558.74 1160.5)">
					<path class="st2" d="M234.3,1155.2c-42.9,52.7-24.3,77.4-27,134.5l-2.9-5.7C192.3,1219.5,193.5,1186.4,234.3,1155.2
						L234.3,1155.2z"/>
				</g>
			</g>
		</g>
		<path class="st3" d="M1327.7,705.2c0,13.4-72.9,24.3-162.9,24.3c-89.9-0.1-162.9-10.9-162.9-24.3c0-13.4,72.9-24.3,162.9-24.3
			S1327.7,691.7,1327.7,705.2L1327.7,705.2z"/>
		<g transform="matrix(1.137 0 0 1.0475 841.32 -188.42)">
			<rect x="200.1" y="386.7" class="st4" width="139.8" height="151.2"/>
			<rect x="271" y="437.6" class="st4" width="112.3" height="49.5"/>
			<rect x="177.1" y="426.6" class="st4" width="40" height="40"/>
			<rect x="185.6" y="410.3" class="st5" width="40.2" height="23.1"/>
			<rect x="196.8" y="387.3" class="st5" width="64.8" height="26.4"/>
			<rect x="308.3" y="476.5" class="st5" width="41" height="18.1"/>
			<rect x="289.5" y="484.1" class="st5" width="34.3" height="17.1"/>
			<rect x="200" y="329.5" class="st6" width="140" height="60"/>
			<rect x="171.4" y="369.5" class="st6" width="200" height="20"/>
			<rect x="177.1" y="523.8" class="st6" width="194.3" height="137.1"/>
			<rect x="222.8" y="523.7" class="st7" width="34.4" height="94.4"/>
			<rect x="227.6" y="556.9" class="st8" width="24.5" height="29.8"/>
			<rect x="222.8" y="609.5" class="st7" width="108.6" height="51.5"/>
			<rect x="294.7" y="523.5" class="st7" width="36.3" height="102.7"/>
			<rect x="302.1" y="558.2" class="st8" width="22.6" height="28.4"/>
			<rect x="157.5" y="647" class="st6" width="53.5" height="85"/>
			<rect x="156.8" y="709.1" class="st9" width="72.6" height="35"/>
			<rect x="340.6" y="638.7" class="st6" width="47.3" height="95.9"/>
			<rect x="339.6" y="709.2" class="st9" width="64.8" height="29.3"/>
			<rect x="108.5" y="563.3" class="st4" width="42.9" height="49.5"/>
			<rect x="126.7" y="535.9" class="st6" width="65.5" height="51.2"/>
			<rect x="403.5" y="490.9" class="st4" width="42.9" height="49.5"/>
			<rect x="354.5" y="508.5" class="st6" width="68.6" height="51.4"/>
			<path class="st10" d="M333.9,428.3c0,11.7-9.5,21.2-21.2,21.2c-11.7,0-21.2-9.5-21.2-21.2c0-11.7,9.5-21.2,21.2-21.2
				C324.4,407,333.9,416.5,333.9,428.3z"/>
			<path class="st11" d="M332.5,427.1c0,7.1-5.8,12.9-12.9,12.9c-7.1,0-12.9-5.8-12.9-12.9c0-7.1,5.8-12.9,12.9-12.9
				C326.8,414.3,332.5,420,332.5,427.1z"/>
			<rect x="276.1" y="496.5" class="st5" width="34.3" height="17.1"/>
		</g>
	</g>
</g>
</svg>
